<?xml version="1.0" standalone="no"?>
<!DOCTYPE svg PUBLIC "-//W3C//DTD SVG 20010904//EN"
 "http://www.w3.org/TR/2001/REC-SVG-20010904/DTD/svg10.dtd">
<svg version="1.0" xmlns="http://www.w3.org/2000/svg"
 width="763.000000pt" height="756.000000pt" viewBox="0 0 763.000000 756.000000"
 preserveAspectRatio="xMidYMid meet">

<g transform="translate(0.000000,756.000000) scale(0.100000,-0.100000)"
fill="#000000" stroke="none">
<path d="M4125 7421 c-12 -11 -42 -28 -190 -106 -232 -122 -457 -242 -625
-333 -96 -52 -238 -128 -315 -169 -77 -42 -174 -93 -215 -115 -41 -23 -106
-58 -145 -78 -38 -21 -101 -54 -140 -75 -38 -21 -101 -55 -140 -75 -38 -21
-119 -64 -180 -97 -60 -33 -154 -83 -209 -112 -54 -29 -114 -62 -135 -73 -20
-11 -74 -41 -121 -66 -47 -24 -89 -48 -95 -52 -5 -4 -55 -31 -110 -60 -127
-67 -338 -181 -389 -210 -22 -12 -63 -33 -90 -48 -28 -14 -98 -51 -156 -82
-58 -32 -145 -79 -195 -104 -49 -26 -94 -51 -100 -55 -5 -5 -46 -28 -90 -51
-315 -169 -357 -200 -337 -247 8 -21 72 -130 150 -258 30 -49 66 -110 80 -135
14 -25 36 -62 49 -83 13 -21 32 -53 42 -70 10 -18 41 -68 68 -112 28 -44 78
-125 111 -180 34 -55 100 -163 147 -240 100 -161 429 -697 454 -737 142 -235
383 -627 437 -710 24 -37 44 -71 44 -74 0 -4 6 -15 14 -23 7 -9 32 -53 56 -98
l42 -82 -25 -33 c-85 -112 -73 -337 29 -541 66 -131 175 -246 283 -300 59 -29
75 -32 161 -33 l95 -1 123 -79 c68 -43 134 -86 146 -94 13 -8 48 -30 77 -48
30 -19 81 -51 114 -73 33 -21 67 -42 75 -47 16 -8 77 -46 258 -162 64 -42 124
-79 132 -83 8 -4 47 -27 85 -52 39 -25 86 -54 105 -65 19 -11 47 -28 62 -38
169 -107 236 -149 253 -158 11 -6 49 -30 85 -52 88 -55 247 -154 279 -172 42
-24 210 -129 298 -187 45 -29 84 -53 87 -53 3 0 25 -13 49 -30 25 -16 47 -30
51 -30 3 0 33 -18 67 -40 60 -39 65 -40 149 -40 l86 0 100 117 c54 64 137 162
183 218 47 55 88 102 91 105 3 3 84 99 180 214 96 116 211 252 255 304 44 52
89 107 100 121 11 14 28 35 38 46 10 11 47 53 80 94 34 41 103 121 152 179 50
57 101 118 115 136 37 47 433 520 440 526 3 3 31 37 62 75 43 53 407 489 526
630 24 28 164 197 179 215 161 200 166 208 143 251 -15 26 -63 25 -94 -3 -37
-34 -266 -301 -578 -674 -47 -57 -92 -110 -100 -118 -7 -7 -29 -33 -48 -57
-58 -71 -109 -132 -144 -169 -18 -19 -61 -71 -96 -115 -36 -44 -92 -112 -125
-150 -79 -93 -243 -288 -291 -347 -102 -123 -227 -273 -309 -367 -49 -57 -110
-129 -134 -160 -24 -31 -70 -85 -101 -121 -31 -36 -65 -77 -77 -93 -12 -15
-43 -53 -70 -83 -26 -31 -68 -80 -93 -109 -91 -106 -125 -148 -134 -166 -5
-11 -12 -19 -16 -19 -4 0 -34 -33 -65 -73 -32 -39 -63 -76 -69 -82 -7 -5 -37
-41 -68 -80 -82 -103 -127 -152 -128 -138 0 12 -188 139 -320 217 -36 22 -101
62 -145 91 -95 61 -289 184 -326 205 -23 13 -84 52 -352 221 -43 27 -82 49
-87 49 -4 0 -13 7 -21 16 -7 9 -28 23 -46 32 -28 14 -134 79 -268 164 -185
116 -575 355 -793 485 -96 57 -153 72 -212 54 -33 -10 -47 -8 -89 8 -120 45
-230 182 -299 371 -11 31 -16 79 -17 150 0 104 1 106 33 150 17 24 32 54 32
66 0 13 5 26 10 29 29 18 4 85 -66 177 -24 31 -44 59 -44 62 0 3 -25 45 -55
93 -30 48 -66 108 -80 133 -14 25 -43 72 -65 105 -22 33 -43 67 -47 75 -4 8
-52 87 -106 175 -55 88 -137 221 -182 295 -134 219 -258 421 -298 485 -21 33
-72 116 -114 185 -42 69 -113 183 -157 255 -45 71 -85 137 -91 146 -5 9 -27
45 -48 80 -21 35 -58 96 -83 134 -24 39 -58 93 -76 120 -49 79 -95 150 -135
211 -35 54 -36 57 -17 68 10 6 80 43 154 82 231 121 332 175 354 188 11 7 68
38 126 69 58 30 185 98 284 151 98 53 180 96 183 96 2 0 20 10 41 23 20 13 91
52 157 87 66 35 134 71 150 80 17 9 75 41 130 70 55 29 125 67 155 83 30 16
116 62 190 102 74 40 160 86 190 102 30 17 96 52 145 78 50 26 104 55 120 65
44 26 157 87 260 140 50 26 108 57 130 70 40 23 112 61 280 150 50 27 153 83
230 125 77 43 217 119 310 170 94 51 191 104 216 118 l47 26 17 -47 c9 -26 21
-58 25 -72 13 -36 139 -376 160 -430 10 -25 59 -153 109 -285 50 -132 109
-287 131 -345 23 -58 79 -204 125 -325 46 -121 104 -274 130 -340 25 -66 66
-172 90 -235 23 -63 57 -150 74 -193 17 -43 29 -82 26 -87 -3 -5 -69 -60 -148
-123 -78 -62 -187 -151 -242 -196 -55 -45 -142 -117 -194 -159 -52 -42 -115
-94 -140 -115 -25 -20 -50 -41 -56 -45 -22 -17 -368 -302 -505 -416 -80 -66
-154 -128 -165 -137 -11 -9 -63 -52 -115 -96 -52 -43 -109 -90 -126 -103 -17
-14 -72 -59 -121 -100 -50 -41 -108 -89 -129 -107 -22 -17 -49 -39 -60 -50
-12 -10 -39 -31 -60 -48 -51 -40 -168 -138 -174 -146 -6 -8 -149 -126 -298
-247 -62 -50 -134 -109 -160 -131 -26 -22 -94 -79 -152 -127 -165 -137 -190
-163 -190 -199 0 -39 16 -55 56 -55 25 0 59 21 165 106 74 59 148 118 165 133
17 14 50 42 75 62 99 81 307 253 353 292 27 23 59 48 70 56 19 13 91 72 156
128 37 31 394 326 474 392 38 31 88 72 110 92 23 19 55 45 71 58 31 23 83 66
163 134 25 21 77 64 116 95 39 30 89 72 112 91 22 20 74 64 115 97 41 34 162
135 269 223 273 227 385 321 522 438 65 56 124 100 131 98 7 -3 23 4 36 14 32
25 32 68 -1 146 -14 33 -44 110 -67 170 -23 61 -46 119 -51 130 -5 11 -38 99
-74 195 -36 96 -84 222 -106 280 -23 58 -52 134 -65 170 -21 61 -83 222 -173
455 -22 55 -83 215 -136 355 -54 140 -104 269 -111 285 -7 17 -28 68 -45 115
-18 47 -36 90 -40 95 -4 6 -13 28 -20 50 -18 56 -50 118 -69 132 -19 15 -73
17 -86 4z"/>
<path d="M5238 4840 c-10 -6 -18 -23 -18 -39 0 -35 18 -51 100 -88 131 -61
161 -76 157 -80 -3 -2 -29 7 -58 20 -30 14 -88 39 -129 56 -41 18 -85 37 -98
44 -29 14 -51 2 -70 -37 -12 -23 -10 -66 7 -284 l22 -256 -38 -32 c-231 -192
-331 -277 -449 -379 -76 -66 -150 -129 -163 -140 -14 -11 -50 -42 -81 -70
-125 -111 -199 -176 -280 -245 -47 -40 -109 -93 -139 -119 -30 -25 -93 -80
-140 -121 -47 -42 -147 -128 -221 -191 -280 -240 -378 -325 -665 -579 -82 -73
-175 -153 -207 -179 -61 -50 -82 -83 -73 -112 4 -11 4 -19 1 -19 -5 0 -258
148 -318 186 -21 13 -40 24 -43 24 -2 0 -28 15 -57 33 -90 56 -106 62 -136 51
-22 -8 -28 -16 -30 -46 -4 -45 -49 -13 478 -333 80 -49 161 -98 180 -110 19
-12 100 -62 180 -110 80 -48 156 -95 170 -104 14 -8 37 -22 53 -31 15 -8 109
-64 209 -125 298 -181 558 -336 771 -462 54 -32 111 -66 125 -75 15 -10 34
-21 42 -25 8 -5 70 -41 136 -81 67 -39 127 -72 133 -72 6 0 11 -10 11 -22 0
-13 23 -74 50 -137 27 -63 48 -116 46 -118 -2 -2 -88 49 -192 113 -104 64
-202 124 -219 134 -16 9 -47 28 -67 41 -39 25 -41 27 -268 164 -80 48 -167
102 -195 120 -27 17 -90 55 -140 84 -49 29 -178 106 -285 172 -107 65 -274
166 -370 224 -96 59 -184 111 -195 118 -275 168 -313 185 -344 155 -10 -11
-15 -9 -29 7 -9 12 -34 30 -55 40 -167 85 -313 330 -267 449 7 19 5 30 -9 48
-16 19 -23 21 -46 13 -48 -17 -68 -56 -68 -129 2 -148 110 -337 257 -450 84
-64 149 -82 181 -50 15 15 17 15 30 -3 8 -11 74 -57 147 -103 73 -46 149 -93
168 -105 19 -12 64 -40 100 -62 36 -22 88 -54 115 -72 28 -17 78 -48 113 -69
34 -20 183 -110 330 -200 147 -90 276 -169 287 -175 11 -7 38 -24 60 -38 33
-21 550 -335 643 -390 15 -9 114 -69 220 -133 258 -156 252 -153 296 -132 32
15 170 162 312 332 23 27 97 114 165 193 68 79 135 158 149 175 14 18 97 117
185 220 153 181 347 410 663 785 163 194 277 329 427 506 55 65 123 147 152
182 29 36 67 82 85 102 18 20 53 61 78 91 25 30 61 73 80 95 20 22 60 69 89
105 29 36 85 100 124 143 106 115 104 99 65 532 -7 77 -11 160 -10 185 4 87
-7 100 -115 136 -50 17 -202 80 -288 119 -64 29 -281 123 -500 215 -93 39
-195 83 -225 97 -30 14 -82 36 -115 49 -63 24 -192 78 -260 109 -22 10 -58 26
-80 35 -22 10 -56 24 -75 33 -51 22 -248 103 -375 153 -125 50 -163 59 -187
44z m298 -226 c22 -9 77 -34 122 -55 46 -22 88 -39 94 -39 5 0 22 -7 36 -15
15 -8 81 -38 147 -66 66 -28 134 -57 150 -65 17 -7 140 -61 275 -119 135 -59
264 -115 287 -126 23 -10 44 -19 47 -19 3 0 34 -13 68 -28 35 -16 108 -48 163
-72 55 -23 136 -58 180 -77 44 -19 103 -44 130 -56 28 -11 63 -30 78 -40 l29
-20 -35 -36 c-19 -20 -36 -41 -38 -48 -2 -6 -43 -53 -90 -105 -47 -51 -123
-136 -169 -188 -45 -52 -94 -108 -109 -125 -14 -16 -89 -102 -166 -190 -76
-88 -164 -187 -195 -220 -30 -33 -111 -126 -179 -205 -69 -80 -132 -152 -140
-161 -9 -8 -70 -78 -136 -154 -66 -76 -158 -182 -205 -235 -47 -53 -110 -125
-140 -160 -30 -35 -62 -71 -70 -79 -8 -9 -94 -106 -190 -216 -96 -110 -189
-216 -206 -235 -37 -41 -278 -318 -383 -440 -41 -47 -103 -118 -140 -158 -36
-41 -70 -80 -74 -88 -13 -22 -27 -16 -27 10 0 17 -12 34 -37 52 -21 16 -42 31
-47 35 -4 4 11 24 34 46 24 21 149 157 279 303 129 146 238 267 241 270 5 5
155 172 206 230 12 14 71 79 130 146 60 66 199 221 309 344 190 214 368 412
716 801 186 209 454 511 489 553 14 16 46 52 71 80 72 79 127 165 122 187 -9
33 -62 66 -229 139 -87 39 -177 79 -199 90 -22 10 -65 29 -95 43 -30 13 -86
39 -125 57 -38 17 -88 40 -110 50 -22 10 -74 34 -116 54 -42 19 -116 53 -165
74 -145 64 -483 217 -564 255 -78 37 -92 49 -24 21z m533 -411 c454 -196 835
-362 846 -368 11 -7 37 -18 58 -25 20 -6 37 -16 37 -21 0 -5 -14 -24 -31 -42
-17 -17 -65 -69 -107 -114 -68 -75 -77 -81 -92 -68 -9 8 -19 15 -23 15 -4 0
-30 11 -59 24 -56 25 -352 151 -598 254 -80 33 -251 103 -380 155 -311 126
-432 176 -435 179 -1 2 -11 75 -24 163 -12 88 -24 170 -27 183 -4 12 -3 22 1
22 4 0 379 -160 834 -357z m-759 -164 c41 -17 129 -53 195 -80 66 -28 248
-102 405 -165 157 -63 294 -119 305 -124 26 -12 140 -57 290 -115 66 -25 129
-50 140 -54 11 -5 33 -14 48 -20 l29 -11 -32 -38 c-18 -20 -56 -62 -84 -92
-28 -30 -85 -93 -126 -140 -41 -47 -97 -110 -125 -140 -27 -31 -89 -98 -136
-150 -48 -52 -102 -113 -120 -135 -19 -23 -52 -61 -75 -85 -97 -106 -207 -228
-314 -350 -41 -47 -122 -137 -180 -200 -58 -64 -121 -134 -140 -156 -89 -101
-203 -228 -295 -329 -81 -89 -173 -191 -260 -289 -89 -100 -173 -194 -185
-206 -38 -41 -136 -155 -149 -172 -7 -11 -16 -30 -20 -44 l-6 -24 -35 23 c-19
13 -54 35 -77 48 -51 29 -175 104 -223 134 -19 12 -57 35 -84 51 -27 16 -75
45 -107 64 -192 116 -235 142 -331 198 -40 23 -107 63 -148 88 -151 92 -276
167 -310 186 -54 30 -101 59 -140 83 -19 12 -87 53 -152 91 -114 67 -116 69
-90 80 15 7 75 54 133 105 59 52 173 150 255 219 81 69 155 132 164 140 9 8
43 37 75 65 33 27 96 81 140 120 45 38 95 81 111 95 17 14 62 53 100 87 38 34
157 137 265 230 108 92 269 231 359 308 90 77 207 178 259 225 53 47 125 110
161 140 161 139 229 198 275 241 28 25 68 62 90 80 22 19 42 37 43 42 6 12 24
8 102 -24z m2050 -547 l12 -164 -24 -26 c-14 -15 -47 -56 -74 -92 -26 -36
-117 -146 -201 -245 -227 -266 -334 -392 -373 -439 -19 -23 -54 -64 -76 -92
-23 -27 -79 -94 -124 -149 -46 -55 -85 -102 -89 -105 -3 -3 -24 -27 -46 -55
-22 -27 -84 -101 -138 -165 -54 -63 -124 -146 -157 -185 -32 -38 -134 -160
-227 -270 -92 -110 -178 -213 -191 -230 -13 -16 -40 -48 -60 -70 -21 -22 -49
-56 -64 -75 -14 -19 -40 -51 -57 -70 -33 -38 -50 -57 -139 -164 -31 -38 -86
-104 -122 -145 -36 -42 -104 -123 -150 -181 -46 -58 -92 -114 -103 -125 -10
-11 -33 -39 -50 -63 l-31 -44 -13 29 c-7 15 -37 81 -68 147 l-55 119 28 37
c15 20 59 73 98 116 39 43 101 115 139 159 38 44 87 100 109 125 23 25 66 74
96 109 30 35 64 73 75 85 11 12 43 49 70 81 28 33 71 82 96 110 25 27 86 97
135 154 49 57 138 160 198 230 59 69 123 142 140 161 42 46 402 459 534 612
56 66 137 159 180 207 42 48 88 101 102 118 14 16 50 59 81 94 340 388 518
600 519 618 0 8 2 12 4 10 2 -2 9 -78 16 -167z"/>
</g>
</svg>
