<?xml version="1.0" standalone="no"?>
<!DOCTYPE svg PUBLIC "-//W3C//DTD SVG 20010904//EN"
 "http://www.w3.org/TR/2001/REC-SVG-20010904/DTD/svg10.dtd">
<svg version="1.0" xmlns="http://www.w3.org/2000/svg"
 width="2337.000000pt" height="2390.000000pt" viewBox="0 0 2337.000000 2390.000000"
 preserveAspectRatio="xMidYMid meet">

<g transform="translate(0.000000,2390.000000) scale(0.100000,-0.100000)"
fill="#ECC95F" stroke="none">
<path d="M21155 23830 c-44 -10 -105 -25 -135 -34 -30 -9 -68 -20 -85 -25
-107 -29 -268 -127 -379 -231 -115 -109 -184 -216 -235 -367 -87 -259 -93
-416 -25 -692 9 -35 19 -71 24 -80 4 -9 16 -36 26 -61 24 -57 75 -139 105
-166 41 -37 104 -72 158 -88 84 -25 140 -7 209 68 35 38 112 179 112 205 0 8
35 84 83 179 69 137 175 233 296 268 69 21 127 13 208 -26 72 -35 126 -92 168
-177 28 -55 30 -65 30 -178 0 -138 -16 -195 -111 -388 -88 -179 -200 -321
-465 -587 -154 -155 -344 -314 -362 -303 -4 2 -20 33 -36 68 -53 117 -119 196
-240 289 -139 107 -327 198 -466 226 -22 5 -58 13 -80 19 -70 18 -301 14 -375
-8 -154 -44 -301 -143 -387 -261 -111 -152 -104 -327 17 -414 68 -50 150 -67
319 -65 151 1 182 -7 196 -51 15 -49 -91 -224 -289 -475 -270 -342 -430 -622
-586 -1020 -59 -152 -108 -293 -153 -445 -10 -30 -23 -75 -31 -100 -23 -75
-66 -305 -66 -355 0 -19 -5 -57 -11 -85 -11 -51 -11 -51 -87 -88 -87 -41 -209
-153 -256 -235 -57 -98 -105 -280 -106 -406 -1 -180 97 -441 204 -540 14 -14
26 -32 26 -41 0 -8 -23 -38 -51 -65 -294 -285 -376 -761 -187 -1084 18 -31 67
-89 107 -129 l75 -72 -40 -42 c-21 -23 -44 -47 -51 -53 -28 -25 -94 -150 -116
-221 -52 -161 -59 -243 -32 -369 42 -205 127 -333 290 -440 44 -28 85 -58 91
-66 7 -8 19 -43 29 -79 36 -140 47 -178 72 -255 49 -152 206 -441 352 -649 61
-87 202 -270 225 -291 6 -6 31 -33 56 -60 25 -28 86 -95 135 -149 94 -102 110
-124 101 -133 -3 -3 -18 -1 -33 5 -54 20 -189 55 -321 81 -30 6 -138 14 -240
17 -346 11 -616 -30 -1062 -161 -30 -9 -64 -19 -75 -22 -122 -32 -423 -132
-520 -174 -11 -5 -43 -17 -71 -28 -28 -11 -73 -30 -100 -42 -107 -48 -806
-398 -909 -455 -60 -34 -137 -76 -170 -93 -33 -18 -73 -40 -90 -50 -16 -10
-57 -33 -90 -51 -33 -18 -77 -44 -97 -57 -21 -12 -40 -23 -43 -23 -2 0 -33
-17 -67 -38 -35 -21 -126 -69 -203 -106 -77 -38 -148 -72 -157 -77 -10 -5 -23
-9 -29 -9 -6 0 -25 -7 -42 -14 -18 -8 -70 -27 -117 -41 -47 -15 -103 -33 -125
-40 -22 -7 -58 -18 -80 -25 -22 -7 -53 -17 -70 -21 -16 -4 -56 -14 -88 -23
-158 -43 -283 -58 -472 -57 -340 2 -688 64 -975 174 -90 34 -217 93 -223 105
-4 5 5 29 19 53 84 149 109 248 88 359 -28 145 -95 234 -226 298 -95 46 -99
47 -193 73 -136 36 -293 16 -421 -56 -23 -13 -45 -21 -48 -18 -10 10 -7 158 5
215 42 207 52 247 97 373 32 90 55 137 100 203 51 76 68 70 76 -25 25 -274
193 -501 454 -611 195 -83 400 -93 537 -26 101 50 214 180 246 286 41 132 49
260 24 408 -62 380 -256 627 -560 718 -155 46 -287 52 -487 22 -118 -18 -174
-29 -283 -59 -115 -32 -268 -105 -365 -175 -136 -98 -286 -292 -353 -456 -8
-19 -20 -48 -26 -65 -41 -99 -101 -315 -101 -363 0 -51 -12 -92 -27 -92 -27 0
-102 215 -153 440 -26 116 -67 241 -109 332 -66 142 -184 225 -307 215 -33 -3
-84 -10 -114 -17 -59 -13 -176 -8 -207 9 -10 6 -40 20 -68 32 -27 12 -67 29
-87 39 -21 10 -60 24 -87 31 -105 27 -208 -27 -253 -130 -22 -51 -39 -163 -35
-236 l2 -50 -46 3 c-50 4 -156 -12 -204 -30 -49 -19 -114 -69 -135 -105 -34
-58 -28 -147 16 -241 108 -228 121 -271 103 -335 -7 -23 -13 -87 -13 -142 -1
-92 2 -104 27 -147 64 -107 160 -161 407 -228 41 -11 126 -29 190 -41 41 -7
96 -20 205 -48 44 -11 176 -59 183 -65 12 -13 -16 -25 -81 -36 -104 -16 -253
-61 -357 -108 -236 -104 -356 -192 -498 -366 -34 -41 -120 -198 -143 -261 -48
-130 -75 -253 -98 -436 -52 -412 96 -747 401 -908 235 -123 555 -157 763 -80
115 42 209 115 271 209 72 109 87 294 35 456 -90 282 -261 465 -496 531 -103
29 -133 35 -202 40 -40 3 -73 8 -73 10 0 2 8 12 18 22 111 114 407 224 730
272 101 16 113 9 83 -49 -47 -93 -76 -231 -66 -311 18 -129 92 -309 161 -389
70 -82 185 -132 305 -132 97 0 162 20 262 82 43 26 83 48 88 48 10 0 83 -142
119 -230 12 -30 26 -64 30 -75 23 -57 74 -219 90 -285 50 -214 66 -309 85
-520 19 -201 3 -411 -45 -600 -16 -67 -42 -165 -55 -210 -7 -25 -17 -63 -23
-85 -55 -200 -124 -375 -234 -585 -145 -277 -372 -732 -422 -845 -27 -60 -62
-139 -78 -175 -17 -36 -37 -81 -46 -100 -8 -19 -39 -86 -69 -149 -29 -62 -53
-117 -53 -121 0 -5 -6 -21 -14 -37 -8 -15 -19 -39 -24 -53 -5 -14 -15 -38 -22
-55 -15 -38 -108 -314 -125 -375 -41 -144 -93 -348 -115 -445 -8 -39 -25 -112
-50 -222 -50 -222 -73 -599 -49 -818 12 -116 55 -309 99 -444 16 -52 27 -97
25 -100 -3 -2 -5 1 -5 7 0 7 -6 12 -13 12 -7 0 -64 44 -127 98 -373 319 -644
497 -982 646 -21 9 -53 22 -70 30 -77 34 -229 75 -358 96 -84 15 -98 25 -153
107 -47 70 -127 155 -168 178 -122 68 -201 95 -335 116 -110 17 -191 1 -364
-69 -86 -35 -143 -74 -212 -144 -31 -32 -58 -58 -60 -58 -2 0 -37 33 -78 73
-89 86 -171 130 -315 169 -77 20 -303 17 -390 -6 -203 -53 -341 -131 -477
-268 -42 -43 -82 -78 -88 -78 -6 0 -32 17 -58 38 -104 83 -207 128 -361 156
-110 21 -189 20 -297 -3 -115 -25 -141 -34 -205 -66 -122 -61 -224 -160 -277
-268 -17 -37 -32 -73 -32 -81 0 -24 -23 -34 -115 -51 -246 -44 -336 -66 -470
-112 -55 -19 -109 -38 -120 -43 -11 -4 -36 -14 -55 -21 -239 -86 -601 -258
-804 -382 -99 -60 -393 -280 -461 -344 -44 -41 -201 -166 -279 -222 -99 -70
-143 -92 -186 -93 -61 -2 -79 56 -80 262 -1 125 -29 210 -88 265 -141 134
-361 66 -528 -162 -17 -24 -68 -123 -95 -188 -17 -40 -39 -172 -39 -235 0
-304 188 -690 429 -879 59 -46 183 -111 213 -111 27 0 22 -26 -14 -78 -151
-223 -533 -612 -724 -739 -66 -43 -236 -131 -294 -152 -164 -59 -293 -54 -420
15 -64 35 -115 91 -148 162 -48 106 -40 187 31 299 66 106 129 153 345 259
106 53 211 111 232 130 43 39 80 110 80 151 0 30 -22 98 -44 142 -24 45 -128
135 -186 160 -85 37 -92 39 -135 51 -261 69 -444 66 -690 -15 -213 -69 -379
-197 -506 -389 -80 -121 -116 -217 -170 -451 -17 -74 -19 -342 -2 -405 6 -25
19 -76 28 -115 22 -93 90 -273 137 -364 88 -170 230 -319 369 -388 124 -61
187 -79 379 -109 136 -21 367 -10 535 27 354 77 488 129 695 270 119 81 159
116 284 243 90 92 293 344 307 381 2 6 22 39 44 73 51 78 85 81 85 8 0 -37 78
-263 119 -346 130 -264 309 -389 434 -305 51 35 77 90 77 164 0 33 4 62 9 65
10 7 227 -160 292 -224 55 -55 123 -159 164 -250 25 -58 29 -79 33 -198 3
-101 0 -156 -13 -226 -20 -107 -12 -151 32 -186 55 -43 103 -37 202 28 138 91
232 210 275 347 60 192 62 290 9 555 -31 157 -116 429 -175 558 -69 152 -162
338 -205 412 -27 47 -76 130 -108 185 -73 123 -115 209 -127 255 -28 104 -40
163 -50 240 -11 93 -5 342 10 381 5 13 18 51 28 84 65 214 300 507 629 782
128 107 240 183 362 243 123 60 388 150 491 166 43 7 44 6 112 -61 70 -69 73
-72 158 -118 260 -140 613 -109 853 73 35 27 66 49 69 50 3 0 32 -25 65 -55
143 -132 357 -193 579 -165 258 31 446 129 625 324 l33 37 45 -68 c129 -195
327 -288 613 -288 166 0 233 21 386 121 79 52 213 199 257 283 37 71 77 180
77 213 0 25 27 47 52 41 151 -31 298 -93 548 -232 176 -97 350 -217 520 -359
36 -30 74 -61 85 -71 44 -35 221 -187 245 -208 14 -13 64 -54 112 -91 48 -37
87 -72 87 -78 1 -18 -44 -31 -169 -49 -63 -8 -137 -20 -165 -26 -27 -5 -151
-14 -275 -20 -391 -17 -572 -27 -690 -38 -183 -16 -662 -40 -1210 -62 -355
-13 -1003 -55 -1030 -65 -8 -3 -69 -10 -135 -15 -66 -5 -174 -16 -240 -24 -66
-9 -154 -20 -195 -24 -41 -5 -115 -17 -165 -26 -49 -9 -111 -21 -136 -25 -98
-18 -308 -79 -394 -115 -16 -7 -66 -28 -110 -46 -205 -86 -508 -291 -656 -446
-79 -82 -128 -153 -186 -268 -155 -311 -207 -586 -173 -925 38 -376 122 -584
326 -809 80 -88 231 -221 312 -274 234 -156 511 -234 942 -267 182 -14 283
-12 420 5 200 26 319 60 474 136 138 67 176 91 446 279 47 33 93 60 102 60 31
0 46 -41 53 -152 8 -124 21 -169 65 -221 47 -56 83 -70 171 -70 80 0 143 23
217 79 79 61 161 204 182 320 11 62 11 83 -4 155 -22 113 -88 247 -160 326
-31 33 -56 65 -56 71 0 7 226 163 345 237 88 55 426 226 525 265 242 97 550
167 769 177 148 7 158 2 135 -62 -37 -106 -53 -397 -26 -491 61 -214 264 -332
552 -322 100 3 109 5 195 47 168 82 262 210 310 424 27 121 20 244 -23 387
-62 205 -270 414 -512 513 -19 8 -48 20 -65 27 -160 66 -322 90 -616 90 -254
0 -421 -24 -639 -92 -71 -22 -126 -40 -145 -48 -11 -4 -42 -16 -70 -25 -82
-28 -189 -66 -210 -75 -11 -5 -42 -19 -70 -30 -147 -64 -320 -166 -415 -245
-65 -54 -74 -49 -86 47 -17 136 -82 244 -182 305 -87 54 -227 97 -382 118
-227 32 -386 15 -688 -71 -77 -23 -109 -47 -123 -95 -10 -33 -10 -45 4 -74 18
-37 69 -75 102 -75 19 0 115 -20 195 -40 215 -55 327 -121 378 -223 55 -111
74 -268 47 -392 -35 -157 -110 -257 -272 -360 -56 -37 -215 -115 -233 -115 -5
0 -18 -4 -28 -9 -64 -36 -295 -81 -513 -100 -147 -14 -235 -14 -318 -1 -36 6
-81 13 -99 16 -28 4 -31 7 -22 24 6 11 15 20 20 20 29 0 128 60 184 111 63 58
146 175 180 254 10 22 22 48 27 57 43 83 59 304 29 403 -53 172 -91 250 -171
357 -28 37 -77 89 -110 114 -32 26 -59 50 -59 54 0 18 225 106 400 156 30 8
69 19 85 24 59 18 426 107 555 135 41 9 93 20 115 25 86 18 308 56 420 70 526
69 1009 100 1555 100 305 0 616 6 1290 25 107 3 258 6 334 6 l140 2 29 -34
c15 -19 54 -72 85 -119 31 -47 95 -130 142 -184 47 -55 107 -127 134 -160 264
-328 701 -724 1046 -947 30 -20 97 -64 148 -98 51 -33 96 -61 99 -61 2 0 23
-13 46 -29 52 -36 235 -151 240 -151 2 0 38 -22 79 -49 131 -86 178 -111 212
-111 41 0 51 -12 112 -130 159 -308 473 -418 804 -283 85 35 135 66 187 115
32 32 47 39 65 35 63 -17 157 -39 194 -47 22 -5 51 -13 65 -19 100 -41 418
-81 649 -81 216 0 480 45 645 111 11 4 47 17 80 28 108 36 187 71 423 188 214
105 494 256 592 318 22 14 43 25 48 25 5 0 34 18 66 40 31 22 59 40 62 40 2 0
44 28 92 63 48 34 100 71 117 81 16 11 34 23 40 28 5 5 24 19 42 31 17 12 94
69 170 127 268 205 427 298 668 390 11 4 33 13 50 20 54 22 199 67 265 83 133
31 169 37 329 48 131 10 186 10 270 -1 58 -7 112 -16 121 -20 8 -5 37 -17 64
-27 81 -30 165 -121 225 -244 28 -57 58 -129 67 -159 21 -71 29 -202 15 -227
-9 -15 -10 -15 -11 -2 0 9 -8 43 -19 75 -52 162 -139 243 -336 310 -71 24 -95
27 -210 27 -122 0 -135 -2 -208 -32 -209 -83 -318 -228 -363 -480 -36 -200 41
-417 186 -523 78 -58 171 -94 335 -130 83 -18 434 -18 495 0 177 53 282 117
412 249 164 167 251 341 287 571 14 94 14 140 -4 237 -50 275 -226 510 -477
636 -197 99 -429 134 -835 126 -133 -2 -245 -2 -247 1 -3 3 16 30 42 61 111
130 217 300 265 426 47 124 67 245 67 406 -1 130 -5 156 -49 325 -14 52 -98
222 -148 297 -141 215 -402 487 -573 598 -199 129 -397 186 -742 215 -194 17
-246 13 -393 -25 -139 -36 -319 -165 -403 -290 -192 -282 -155 -597 91 -777
77 -57 222 -128 302 -147 33 -8 111 -21 173 -28 92 -10 127 -10 195 1 194 31
324 146 383 338 37 123 -6 268 -113 380 -27 28 -14 35 50 28 211 -23 424 -148
554 -326 80 -109 142 -261 159 -390 4 -30 8 -66 10 -80 8 -56 -25 -240 -66
-370 -21 -67 -75 -198 -105 -254 -142 -266 -239 -406 -336 -481 -14 -11 -35
-36 -47 -56 -30 -49 -129 -140 -146 -133 -8 3 -21 24 -30 47 -25 67 -151 252
-223 327 -100 107 -246 207 -364 249 -86 31 -220 64 -275 68 -58 4 -64 2 -95
-25 -30 -27 -34 -36 -33 -76 1 -56 21 -80 90 -111 67 -30 101 -79 138 -200 80
-263 68 -469 -36 -643 -42 -70 -169 -205 -264 -282 -81 -65 -302 -201 -399
-245 -33 -15 -73 -33 -90 -41 -89 -41 -275 -101 -390 -125 -22 -4 -71 -15
-110 -24 -38 -9 -99 -20 -135 -25 -36 -5 -94 -13 -130 -19 -334 -50 -754 -50
-891 0 -14 6 -60 15 -103 22 l-79 12 -14 50 c-49 165 -97 252 -193 346 -126
123 -355 197 -529 170 -160 -24 -322 -103 -430 -208 -62 -61 -78 -72 -99 -66
-107 27 -516 319 -892 637 -294 249 -483 449 -565 597 -22 40 -60 101 -83 137
-32 47 -40 67 -31 72 29 19 288 22 964 14 903 -11 3262 -10 3655 2 376 11 348
-3 370 189 12 101 10 201 -9 465 -7 98 -9 514 -5 1285 6 1030 5 1150 -10 1243
-9 57 -21 111 -27 120 -22 34 -60 53 -131 63 -92 13 -692 20 -813 9 -49 -4
-187 -11 -305 -14 -206 -6 -322 -12 -695 -37 -261 -17 -369 -26 -505 -44 -69
-8 -168 -20 -220 -25 -52 -5 -133 -13 -180 -19 -47 -6 -128 -16 -180 -21 -187
-21 -326 -44 -367 -62 -24 -10 -55 -35 -70 -55 l-28 -37 3 -160 c2 -88 7 -181
12 -206 5 -26 11 -138 15 -251 24 -857 73 -1124 225 -1209 l45 -25 390 1 c423
1 778 22 1156 70 63 8 147 14 186 14 68 0 177 21 216 42 36 19 48 69 36 160
-36 297 -63 381 -132 409 -35 15 -169 14 -246 -1 -29 -5 -91 -10 -136 -10 -45
0 -174 -6 -286 -14 -112 -8 -260 -17 -329 -21 -69 -3 -172 -8 -230 -11 -94 -6
-107 -4 -122 12 -34 39 -69 173 -109 419 -6 39 -15 92 -20 120 -8 41 -7 52 6
61 21 16 96 29 415 74 152 21 327 33 855 60 243 13 601 10 623 -3 10 -7 13
-110 12 -510 -1 -286 4 -608 11 -747 7 -135 13 -292 13 -350 l1 -105 -235 5
c-129 3 -399 4 -600 2 -201 -1 -1115 -4 -2031 -7 -1568 -4 -1667 -3 -1681 13
-54 62 -74 369 -33 492 60 178 174 292 370 370 34 13 125 30 164 30 142 0 384
-169 459 -320 72 -143 93 -177 132 -203 52 -36 128 -8 149 56 8 24 7 50 -4
107 -9 41 -20 116 -25 165 -5 50 -14 129 -20 176 -5 48 -10 105 -10 129 0 53
-24 140 -57 208 -47 96 -158 198 -268 247 -22 9 -49 21 -60 26 -31 14 -81 28
-189 50 -148 31 -318 24 -438 -18 -106 -38 -160 -64 -261 -125 l-77 -47 -14
22 c-21 32 -39 244 -31 362 3 55 13 132 22 170 18 80 74 256 104 324 11 25 24
55 28 66 46 109 195 397 285 550 218 372 383 561 643 738 114 77 428 229 535
257 21 6 57 27 79 47 37 34 39 38 39 96 0 57 -2 62 -39 97 -50 47 -123 81
-226 104 -44 10 -87 20 -95 23 -8 3 54 38 139 79 85 41 169 86 187 99 18 14
35 25 38 25 9 0 65 49 109 95 101 105 210 285 224 369 6 41 -20 101 -54 123
-28 19 -134 20 -179 2 -16 -6 -42 -15 -59 -19 -73 -20 -196 -50 -260 -65 -38
-8 -88 -20 -111 -26 -23 -6 -52 -9 -65 -7 -28 3 -28 10 -4 108 70 290 75 615
14 960 -24 137 -50 251 -74 325 -7 22 -19 65 -28 95 -18 66 -46 163 -58 205
-5 17 -20 71 -35 120 -46 162 -122 391 -169 508 -25 63 -45 126 -45 140 0 17
16 43 50 78 59 61 45 62 255 -11 83 -28 175 -58 205 -67 83 -23 161 -43 205
-54 22 -5 56 -13 75 -19 33 -9 469 -115 518 -126 71 -15 211 -37 307 -47 205
-22 603 -10 708 22 79 23 215 55 242 55 29 1 30 0 27 -39 -2 -22 -7 -53 -11
-70 -5 -16 -16 -75 -26 -130 -9 -55 -26 -136 -37 -180 -55 -216 -48 -269 39
-314 36 -19 72 -13 152 25 133 64 286 195 368 314 33 49 103 192 149 307 16
40 32 73 36 73 3 0 11 -19 17 -42 26 -111 33 -134 58 -185 32 -65 65 -100 117
-124 35 -15 44 -16 83 -4 62 19 82 45 114 152 22 76 19 68 84 218 99 230 151
323 264 470 96 125 268 278 451 402 87 59 216 142 245 158 11 6 72 42 135 80
112 66 313 170 415 214 28 12 59 26 70 31 36 16 169 57 245 76 58 14 116 18
260 18 191 1 240 -5 240 -27 0 -7 -25 -62 -55 -123 -31 -60 -70 -154 -87 -209
-30 -93 -32 -110 -31 -235 2 -309 120 -572 312 -695 91 -58 155 -72 376 -85
172 -10 279 -19 403 -36 106 -15 171 88 106 165 -16 19 -73 54 -152 92 -108
52 -137 71 -192 128 -83 84 -150 183 -175 256 -29 87 -15 226 35 331 110 229
283 334 556 334 123 0 258 -25 274 -50 4 -6 10 -136 14 -288 4 -152 11 -362
16 -467 16 -327 40 -897 49 -1215 6 -168 12 -348 15 -400 3 -52 8 -203 11
-335 15 -681 35 -1237 57 -1565 6 -91 11 -190 12 -220 l1 -54 -500 -1 c-466 0
-1054 -16 -1150 -30 -29 -5 -44 -3 -53 7 -45 55 -47 1160 -2 1558 37 332 47
371 90 355 12 -5 123 -21 290 -41 89 -11 209 -40 245 -59 l40 -20 -2 -476 c-1
-261 -6 -544 -12 -628 -14 -190 -9 -223 38 -270 30 -30 49 -39 116 -53 91 -18
258 -38 323 -38 46 0 97 23 108 49 22 55 33 141 34 267 0 77 4 165 10 195 11
58 42 947 34 989 -2 14 -8 126 -13 250 -10 237 -18 278 -64 329 -32 33 -124
77 -192 91 -201 40 -217 41 -805 50 -322 4 -621 12 -666 15 -102 9 -172 -10
-208 -58 -41 -54 -66 -202 -81 -487 -6 -105 -11 -183 -39 -525 -25 -305 -39
-915 -33 -1445 6 -517 16 -746 37 -867 15 -84 48 -127 108 -140 84 -18 1010 6
1472 38 374 25 1093 41 1350 29 61 -3 159 1 233 10 112 12 131 17 160 41 l32
27 -3 558 c-1 308 -4 577 -7 599 -10 71 -37 680 -45 1020 -5 182 -16 465 -25
630 -8 165 -20 399 -25 520 -6 121 -14 260 -19 310 -5 49 -10 142 -10 207 -1
66 -4 124 -6 131 -4 11 -21 525 -27 817 -3 124 -2 135 15 138 10 2 26 -3 35
-11 18 -15 141 -83 224 -124 26 -12 58 -32 70 -42 13 -11 57 -47 98 -81 91
-75 324 -303 393 -385 27 -33 69 -80 92 -105 93 -99 287 -332 360 -431 11 -14
45 -60 75 -100 95 -128 150 -221 150 -257 0 -11 -13 -30 -28 -43 -158 -136
-261 -430 -222 -639 46 -252 223 -453 455 -515 146 -40 139 -35 146 -98 4 -31
11 -69 17 -84 11 -30 34 -124 52 -214 14 -70 14 -522 0 -633 -5 -44 -15 -126
-21 -181 -15 -129 -23 -181 -44 -285 -9 -47 -20 -103 -24 -125 -5 -22 -13 -51
-18 -65 -6 -14 -23 -65 -38 -115 -43 -140 -188 -429 -288 -574 -53 -78 -237
-255 -302 -292 -176 -99 -326 -112 -600 -52 -127 28 -225 90 -225 143 0 10
-16 32 -35 49 -96 84 -207 -6 -170 -138 60 -215 99 -304 190 -435 24 -35 160
-171 207 -207 58 -44 162 -106 246 -145 45 -22 82 -45 82 -51 0 -7 -36 -48
-79 -90 -44 -43 -85 -84 -93 -92 -143 -147 -192 -187 -398 -317 -203 -129
-536 -244 -706 -244 -128 0 -308 56 -446 138 -190 113 -347 351 -374 570 -7
59 -1 64 42 27 69 -60 181 -105 262 -105 95 0 229 60 306 136 139 136 167 355
85 645 -35 122 -138 291 -223 366 -75 66 -198 119 -290 127 -102 8 -203 -15
-323 -75 -133 -66 -267 -208 -331 -351 -19 -41 -25 -60 -54 -158 -8 -29 -13
-98 -13 -190 1 -309 84 -632 218 -850 96 -156 346 -396 572 -549 295 -200 578
-268 880 -212 233 43 404 132 634 331 45 39 83 70 84 70 1 0 2 -93 2 -207 0
-272 13 -410 57 -603 83 -368 330 -627 685 -716 45 -11 94 -14 185 -11 175 7
240 22 388 90 183 85 389 291 470 471 59 130 65 165 64 376 -1 197 -5 222 -54
395 -50 176 -166 316 -300 364 -158 57 -309 53 -481 -12 -167 -63 -269 -170
-326 -339 -46 -137 -42 -266 14 -428 66 -191 171 -284 368 -328 l40 -9 -42
-12 c-83 -23 -247 14 -403 92 -138 69 -215 163 -257 317 -33 118 -22 536 16
680 7 25 17 63 23 85 17 67 88 287 109 340 68 164 181 365 297 526 147 205
304 446 401 619 46 82 284 562 327 660 20 47 50 114 66 149 33 73 45 104 94
251 75 223 106 365 123 561 12 140 -10 457 -43 619 -29 140 -35 165 -60 240
-40 123 -76 247 -76 265 0 9 17 37 39 63 95 115 144 260 145 427 0 135 -27
233 -93 330 -72 108 -126 150 -306 240 -79 39 -80 41 -92 89 -7 27 -34 81 -61
120 -135 198 -206 301 -273 401 -41 60 -79 117 -86 125 -12 15 -40 55 -124
175 -192 275 -595 694 -882 918 -255 199 -313 245 -331 263 -6 6 -38 26 -71
44 -66 36 -176 112 -194 133 -7 9 -12 164 -16 488 -3 261 -11 686 -18 944 -15
579 -14 1249 2 1495 22 341 66 733 102 910 5 25 16 81 24 125 8 44 22 114 31
155 8 41 20 100 26 130 11 56 17 84 63 270 46 189 110 369 136 385 7 5 18 0
26 -11 55 -77 176 -170 294 -226 158 -76 341 -105 469 -74 136 33 229 77 348
165 94 70 157 149 199 252 15 38 30 69 34 69 14 0 38 -106 49 -214 10 -92 10
-153 1 -275 -12 -159 -35 -332 -52 -386 -5 -16 -18 -59 -28 -95 -60 -205 -178
-395 -295 -474 -97 -66 -153 -80 -316 -81 -120 0 -154 3 -195 19 -166 65 -233
170 -310 483 -34 136 -59 184 -103 199 -75 24 -139 -18 -160 -103 -63 -264
-75 -352 -69 -516 8 -212 38 -347 114 -504 75 -154 211 -242 376 -243 62 0 69
-18 29 -73 -129 -174 -228 -383 -312 -657 -18 -58 -36 -116 -40 -130 -78 -244
-113 -462 -112 -685 3 -293 33 -502 95 -660 102 -260 234 -429 422 -541 128
-76 184 -89 375 -88 159 1 168 2 248 32 113 42 163 73 233 145 70 71 125 178
141 270 17 103 -4 278 -43 349 -5 10 -9 23 -9 28 0 6 -15 34 -33 63 -78 121
-157 169 -317 191 -100 14 -238 0 -365 -35 -120 -33 -118 -33 -128 31 -16 108
24 439 77 630 66 243 109 351 259 660 46 95 239 414 268 445 19 19 19 19 56
-16 34 -32 72 -58 143 -101 59 -35 217 -77 291 -78 96 0 233 54 319 127 38 32
100 114 123 165 27 57 32 146 13 205 -34 103 -126 153 -282 153 -183 0 -193
13 -109 146 31 49 83 132 116 183 82 128 147 258 184 366 9 28 21 59 25 70 8
19 27 109 50 228 11 56 15 420 6 436 -3 4 -10 57 -16 117 -9 101 -14 135 -41
269 -38 193 -119 411 -201 545 -97 157 -318 379 -482 484 -65 41 -200 106
-246 118 -288 75 -485 89 -780 57 -179 -20 -310 -62 -525 -171 -139 -70 -190
-106 -285 -201 -171 -172 -339 -438 -461 -732 -28 -69 -82 -260 -103 -365 -34
-173 -41 -233 -76 -595 -29 -303 -48 -900 -49 -1560 -1 -258 -5 -621 -11 -805
-5 -184 -12 -517 -15 -740 -5 -381 -10 -473 -36 -695 -19 -164 -20 -165 -101
-67 -31 37 -97 112 -148 167 -133 143 -234 254 -324 357 -86 99 -223 284 -294
397 -135 218 -272 512 -272 587 0 23 7 26 116 63 213 70 412 271 488 494 22
63 26 91 26 195 0 308 -118 532 -341 647 -16 9 -29 20 -29 27 0 6 28 41 63 77
128 136 177 227 243 446 24 83 25 334 0 420 -28 101 -95 222 -164 296 -41 44
-61 73 -56 81 4 7 22 31 39 53 85 110 132 248 141 420 14 230 -56 424 -210
580 -86 88 -90 102 -65 199 34 131 45 169 70 246 34 105 41 123 92 230 147
309 572 775 834 917 88 47 148 73 168 73 9 0 23 4 33 10 24 13 199 40 264 40
29 0 105 -7 168 -15 184 -24 251 -46 420 -133 68 -36 140 -74 160 -86 71 -44
373 -186 394 -186 6 0 16 -4 22 -9 5 -4 34 -17 64 -27 30 -10 60 -21 65 -25
29 -19 249 -78 483 -130 73 -16 283 -30 357 -23 229 20 406 121 532 304 74
108 89 165 56 221 -33 55 -97 71 -189 45 -192 -53 -376 -38 -524 42 -91 50
-146 90 -196 143 -86 90 -205 239 -199 249 3 5 31 12 63 15 119 15 172 65 172
162 0 46 -6 69 -29 108 -65 114 -227 218 -441 286 -143 45 -151 47 -207 54
-51 7 -87 30 -67 43 5 4 29 21 53 37 79 54 86 60 151 110 147 113 318 273 380
354 14 18 40 52 59 74 106 130 209 329 264 512 51 167 97 473 97 640 0 84 -20
243 -41 320 -72 273 -162 411 -353 540 -134 90 -265 145 -491 204 -166 44
-371 52 -510 21z"/>
<path d="M13266 10469 c-53 -42 -25 -131 112 -353 78 -128 234 -334 341 -451
20 -22 66 -76 103 -120 98 -118 190 -201 321 -289 63 -42 64 -59 4 -72 -18 -3
-36 -10 -42 -14 -5 -4 -21 -11 -35 -15 -49 -14 -189 -116 -247 -179 -138 -150
-155 -275 -45 -322 31 -13 60 -15 177 -9 264 13 519 0 635 -32 61 -16 271 -85
310 -101 14 -6 70 -27 125 -48 55 -20 125 -48 155 -61 30 -14 65 -29 78 -34
24 -9 29 -27 10 -34 -7 -2 -128 -8 -268 -14 -140 -6 -277 -16 -305 -21 -27 -6
-72 -16 -100 -22 -81 -17 -225 -67 -301 -104 -214 -104 -500 -347 -647 -550
-20 -29 -37 -56 -37 -60 0 -5 -11 -31 -24 -59 -14 -27 -34 -77 -45 -110 -11
-33 -33 -98 -50 -145 -41 -113 -40 -143 4 -187 33 -33 39 -35 83 -31 37 4 73
21 172 83 224 141 343 208 435 246 11 4 40 17 65 27 38 16 120 43 245 81 17 5
50 12 74 16 51 8 63 -3 50 -49 -13 -44 -11 -212 3 -258 17 -57 58 -88 118 -88
53 0 94 21 180 91 43 35 219 154 343 233 89 56 215 112 294 131 68 16 77 16
155 0 119 -24 168 -42 297 -108 216 -110 405 -244 636 -452 55 -49 105 -94
111 -100 6 -5 53 -44 105 -85 125 -101 252 -213 381 -336 107 -103 114 -107
196 -116 l24 -3 -30 -41 c-79 -109 -139 -284 -158 -465 -5 -43 -1 -71 15 -121
39 -117 157 -276 270 -362 71 -55 97 -68 201 -102 75 -25 100 -28 210 -28 140
0 190 12 297 71 l63 34 104 -91 c57 -49 106 -94 108 -99 3 -9 69 -85 238 -270
127 -141 350 -364 485 -486 91 -82 218 -200 270 -250 12 -11 43 -40 71 -65
246 -222 374 -346 374 -362 0 -5 -19 -38 -42 -71 -23 -34 -49 -73 -58 -87 -35
-53 -180 -359 -206 -435 -39 -114 -39 -213 1 -273 33 -50 87 -84 162 -103 43
-10 65 -10 120 0 124 25 185 58 423 235 155 115 149 115 270 -25 173 -200 269
-408 341 -738 24 -108 24 -208 -1 -396 -35 -267 -55 -338 -151 -547 -33 -69
-59 -134 -59 -143 0 -31 42 -94 71 -106 43 -17 103 -3 259 59 192 78 287 149
395 297 108 149 136 207 198 415 8 25 18 44 23 43 5 -1 24 -30 43 -65 112
-211 263 -385 441 -510 66 -46 287 -158 312 -158 8 0 18 -4 24 -8 5 -4 36 -16
69 -26 33 -9 76 -22 95 -29 48 -15 121 -27 205 -33 88 -7 137 16 156 73 15 47
5 165 -22 258 -11 39 -24 84 -28 100 -15 51 -69 175 -116 263 -132 247 -322
429 -603 577 -53 28 -97 55 -99 62 -2 6 11 14 29 18 123 25 261 91 380 181
172 128 219 190 318 419 27 62 60 191 60 232 -1 51 -10 68 -50 96 -43 29 -85
21 -189 -36 -53 -29 -112 -59 -131 -67 -19 -7 -48 -18 -65 -25 -208 -83 -606
-137 -767 -104 -211 43 -386 99 -520 165 -116 58 -338 234 -338 268 0 14 36
76 83 145 166 245 210 332 224 453 9 71 -22 170 -67 216 -119 123 -244 97
-665 -138 -67 -37 -139 -84 -163 -105 -12 -12 -36 -29 -52 -38 l-29 -18 -63
58 c-35 32 -230 226 -433 432 -397 401 -609 597 -870 806 -136 108 -160 130
-246 227 l-68 77 31 56 c93 171 88 386 -12 597 -55 116 -200 248 -360 329 -82
41 -89 43 -175 43 -86 -1 -184 -19 -250 -48 -16 -7 -56 -23 -87 -36 -32 -12
-86 -42 -120 -66 -35 -24 -66 -44 -70 -44 -5 0 -8 14 -8 31 0 47 -14 66 -144
194 -137 135 -260 266 -380 405 -21 25 -82 90 -135 145 -183 190 -257 280
-382 462 -135 198 -201 339 -228 490 -12 64 -2 133 35 242 15 46 83 176 115
223 11 14 19 29 19 33 0 9 127 211 180 285 83 115 98 171 63 230 -31 54 -63
62 -208 57 -71 -2 -142 -8 -157 -12 -25 -6 -28 -5 -28 16 0 60 65 306 109 414
32 78 168 341 228 444 41 68 77 140 82 160 18 83 -42 149 -124 135 -50 -8
-287 -102 -380 -150 -184 -96 -463 -416 -584 -669 -57 -120 -69 -151 -95 -260
-48 -200 -50 -222 -51 -502 -1 -150 -4 -276 -8 -279 -8 -8 -46 36 -47 52 0 6
-10 31 -23 55 -13 24 -43 91 -66 149 -24 58 -50 121 -58 140 -8 19 -18 44 -22
55 -5 11 -14 34 -21 50 -20 49 -66 196 -79 250 -21 93 -33 239 -40 491 -7 281
-6 279 -81 310 -43 18 -90 6 -160 -41 -125 -83 -262 -275 -284 -397 -4 -21
-14 -45 -24 -54 -15 -16 -17 -16 -27 1 -5 9 -34 49 -64 88 -91 122 -118 147
-377 354 -121 96 -309 232 -387 280 -128 79 -340 183 -375 183 -16 0 -41 -9
-56 -21z"/>
</g>
</svg>
