<?xml version="1.0" standalone="no"?>
<!DOCTYPE svg PUBLIC "-//W3C//DTD SVG 20010904//EN"
 "http://www.w3.org/TR/2001/REC-SVG-20010904/DTD/svg10.dtd">
<svg version="1.0" xmlns="http://www.w3.org/2000/svg"
 width="1531.000000pt" height="1125.000000pt" viewBox="0 0 1531.000000 1125.000000"
 preserveAspectRatio="xMidYMid meet">

<g transform="translate(0.000000,1125.000000) scale(0.100000,-0.100000)"
fill="#97750e8b" stroke="none">
<path d="M564 11020 c-17 -6 -51 -27 -75 -49 l-44 -39 -2 -438 c-1 -242 3
-601 7 -799 9 -358 9 -360 37 -439 42 -120 43 -120 323 -125 143 -2 227 -7
232 -14 3 -6 9 -47 13 -91 13 -154 63 -307 136 -413 106 -154 314 -323 473
-383 l29 -11 -80 -52 c-106 -70 -180 -136 -264 -235 -117 -140 -169 -269 -192
-479 l-12 -108 -45 -7 c-25 -3 -111 -7 -191 -7 -188 -1 -245 -12 -281 -51 -16
-17 -28 -39 -28 -49 0 -10 -8 -36 -17 -57 -16 -35 -18 -91 -21 -584 -3 -539 7
-1032 20 -1045 4 -4 60 0 124 9 78 11 121 13 128 6 11 -11 14 -9 -47 -44 -123
-70 -258 -237 -300 -370 -32 -102 -31 -308 2 -416 50 -166 141 -263 286 -306
113 -32 278 3 388 83 62 46 130 136 153 206 51 147 -3 344 -117 426 -87 63
-221 89 -318 61 -50 -14 -52 -3 -7 36 119 103 291 111 459 22 132 -70 282
-233 358 -390 33 -66 67 -174 58 -182 -2 -2 -42 -16 -89 -31 -207 -67 -429
-167 -558 -251 -170 -109 -432 -408 -591 -671 -136 -225 -247 -546 -297 -863
-14 -85 -19 -166 -18 -310 1 -260 24 -387 109 -601 117 -294 321 -598 490
-729 32 -25 69 -55 84 -67 l26 -22 -38 -1 c-51 0 -137 25 -179 53 -18 13 -55
51 -83 87 -166 211 -203 240 -320 248 -74 5 -74 5 -110 -31 -68 -68 -41 -136
75 -190 64 -30 73 -39 159 -154 130 -173 196 -222 331 -244 81 -14 246 0 342
28 29 8 82 16 118 17 58 1 76 -4 170 -47 185 -86 313 -139 405 -168 150 -47
373 -88 515 -96 l130 -6 0 -56 c1 -100 54 -171 129 -171 25 0 25 -1 6 -64 -39
-127 2 -253 96 -302 44 -22 116 -18 165 11 68 40 97 101 155 325 16 63 34 131
39 151 l10 36 132 6 c148 6 244 27 381 81 296 118 525 291 682 518 33 48 63
87 66 87 4 1 16 -22 27 -49 34 -82 125 -213 209 -301 261 -273 662 -385 1120
-310 155 25 264 27 323 6 82 -29 153 -10 190 50 46 75 13 162 -77 205 -43 20
-52 29 -48 45 3 11 8 92 12 180 8 233 -25 413 -106 572 -87 173 -347 349 -545
371 l-61 7 90 78 c144 125 300 192 545 232 261 44 616 -18 798 -138 246 -164
381 -491 302 -728 -58 -173 -179 -334 -299 -398 -70 -37 -122 -40 -199 -11
-63 24 -93 25 -132 5 -37 -19 -60 -63 -60 -114 0 -100 166 -196 316 -185 206
16 458 207 588 445 113 207 143 416 91 619 -37 142 -139 321 -250 439 -158
168 -309 249 -575 308 -142 31 -441 43 -580 23 -268 -38 -488 -122 -654 -248
-91 -68 -285 -267 -336 -344 -25 -37 -50 -68 -56 -68 -30 0 -314 355 -314 393
0 45 120 232 215 334 143 156 326 258 601 338 96 28 272 60 373 69 95 8 354
-12 451 -35 207 -48 492 -160 655 -257 324 -192 648 -557 705 -793 12 -46 11
-48 -25 -95 -139 -181 -193 -532 -119 -762 l17 -52 -49 -73 c-77 -114 -205
-235 -299 -284 -141 -73 -209 -83 -442 -68 l-122 8 -30 -31 c-60 -60 -31 -138
68 -181 206 -88 539 -17 779 166 84 64 139 123 233 248 37 50 74 97 83 104 9
7 16 19 16 25 0 7 25 63 55 124 130 261 158 414 120 647 -8 49 -10 94 -6 98
16 16 165 29 266 24 109 -6 202 -31 317 -87 88 -43 128 -77 163 -141 28 -50
30 -62 30 -154 0 -78 -4 -109 -19 -140 -61 -126 -206 -277 -303 -315 -103 -40
-136 -98 -93 -167 31 -52 71 -67 160 -60 179 14 324 78 433 191 46 47 60 57
68 45 5 -8 9 -17 9 -22 0 -16 85 -99 125 -122 22 -14 85 -36 140 -51 87 -23
113 -26 195 -21 54 3 124 15 163 27 57 18 79 32 150 97 96 90 106 105 107 157
0 30 -7 45 -33 71 -48 48 -77 53 -151 23 -160 -66 -274 -59 -359 20 -56 53
-55 145 3 268 27 55 37 66 76 83 83 37 94 137 20 182 -42 25 -80 24 -145 -6
-47 -22 -56 -24 -75 -12 -58 38 -112 24 -167 -43 l-36 -42 -27 46 c-114 196
-327 342 -579 398 -134 29 -327 19 -482 -27 -18 -5 -25 3 -49 62 -110 271
-429 606 -769 807 -125 74 -269 134 -502 211 -433 143 -835 136 -1286 -21
-337 -117 -539 -282 -735 -600 -11 -17 -14 -14 -34 31 -12 28 -42 111 -67 185
-38 110 -46 147 -45 198 1 39 -4 74 -13 92 -8 16 -15 38 -15 49 0 31 -47 80
-84 87 -71 13 -118 -40 -131 -146 -5 -35 -19 -75 -40 -110 -17 -30 -58 -107
-91 -170 -107 -211 -220 -367 -471 -656 -127 -146 -222 -236 -406 -382 -141
-112 -183 -137 -332 -192 -175 -65 -271 -84 -430 -83 -210 0 -369 39 -543 134
-132 70 -292 215 -403 362 -174 231 -222 516 -131 772 34 95 71 167 84 163 6
-2 64 -86 128 -187 138 -217 209 -314 288 -396 172 -179 325 -266 525 -301
109 -19 362 -13 464 11 134 32 427 209 549 332 38 39 97 112 131 162 54 80 69
115 122 274 109 333 143 495 143 682 -1 189 -27 303 -107 470 -146 304 -380
527 -695 662 -180 77 -336 117 -530 134 l-136 13 -47 154 c-66 214 -103 290
-175 361 -78 76 -130 93 -208 66 l-53 -18 -58 50 c-32 27 -76 63 -98 79 -22
16 -51 39 -64 50 l-23 22 21 7 c13 4 28 1 38 -6 11 -10 64 -15 183 -17 l167
-4 38 33 c21 19 44 48 51 65 21 50 64 502 64 675 0 98 -18 126 -123 189 -157
94 -285 220 -366 359 -54 92 -107 119 -171 86 -67 -35 -78 -103 -31 -200 72
-152 282 -367 417 -427 l47 -20 -6 -67 c-4 -36 -12 -154 -18 -261 -7 -107 -16
-199 -21 -205 -5 -6 -151 -10 -371 -11 -215 -1 -390 -6 -432 -12 -38 -7 -99
-13 -134 -14 l-65 -3 -2 290 c-1 160 -4 477 -6 707 -1 229 0 419 3 422 6 6 91
10 474 25 221 8 252 16 275 70 7 17 9 43 5 60 -8 37 -58 81 -91 81 -14 0 -27
7 -31 15 -3 9 1 63 10 121 22 155 62 231 186 354 106 105 190 159 296 192 59
18 95 22 225 22 146 1 160 -1 235 -28 137 -49 209 -92 310 -188 172 -163 243
-296 389 -726 200 -588 298 -750 426 -708 25 8 40 22 54 50 21 44 30 14 -69
236 -26 58 -96 251 -156 430 -60 179 -128 368 -150 422 -141 336 -404 603
-696 708 -35 13 -63 26 -63 30 0 4 20 15 45 24 82 32 196 116 304 224 119 119
178 202 261 366 54 107 78 176 226 641 71 226 105 316 161 437 28 61 34 84 29
112 -9 46 -47 76 -98 76 -31 0 -47 -8 -84 -42 -86 -79 -157 -252 -349 -848
-83 -256 -181 -433 -311 -564 -96 -96 -155 -137 -256 -180 -130 -55 -209 -69
-358 -63 -195 8 -304 55 -448 191 -147 139 -202 246 -217 422 l-7 81 33 7 c84
16 119 113 62 170 -14 14 -36 28 -47 31 -12 2 -169 8 -351 12 l-330 8 -7 105
c-4 58 -8 381 -10 719 l-3 614 95 -6 c52 -4 147 -11 210 -17 83 -8 158 -8 270
1 90 6 214 8 296 4 l140 -7 18 -226 c10 -125 20 -246 23 -269 l6 -41 -59 -30
c-122 -62 -289 -232 -376 -382 -67 -117 -69 -201 -5 -240 73 -45 134 -16 191
88 22 40 63 100 92 134 59 70 183 182 228 205 63 33 129 88 142 120 18 42 18
108 -1 323 -21 245 -45 421 -60 451 -17 32 -74 89 -100 99 -24 9 -327 6 -575
-5 -112 -5 -213 -4 -280 3 -164 17 -312 22 -346 12z m471 -6072 c77 -67 29
-203 -84 -237 -112 -33 -179 18 -197 152 l-7 45 40 -5 c43 -6 85 11 117 46 27
30 96 29 131 -1z m1412 -438 c106 -17 303 -79 400 -125 248 -117 442 -310 563
-560 49 -102 80 -222 89 -344 8 -119 0 -194 -35 -336 -24 -94 -29 -106 -37
-85 -104 262 -322 504 -560 622 -78 39 -217 78 -278 78 -25 0 -48 2 -51 5 -3
4 -2 23 2 43 5 20 11 92 14 160 7 131 16 189 42 279 20 70 14 123 -21 169 -51
67 -136 80 -213 32 -18 -11 -34 -19 -36 -17 -5 6 -26 71 -26 80 0 12 71 11
147 -1z m-707 -65 c0 -30 -36 -166 -61 -230 -63 -162 -130 -362 -145 -436
l-17 -77 -82 6 c-146 9 -271 -51 -402 -192 -112 -120 -213 -316 -213 -411 0
-94 54 -155 138 -155 55 0 87 17 139 74 24 26 51 46 62 46 27 0 26 -9 -4 -50
-29 -39 -89 -162 -111 -226 -136 -401 -34 -799 293 -1140 131 -136 232 -216
363 -286 182 -97 367 -146 585 -155 319 -13 656 95 940 302 249 182 351 277
586 545 162 185 254 314 340 474 20 37 39 64 42 59 4 -6 20 -48 37 -94 17 -46
56 -130 85 -186 l55 -102 -31 -138 c-17 -76 -33 -140 -35 -142 -2 -3 -41 32
-87 76 -87 85 -129 112 -191 124 -149 27 -219 -151 -82 -212 72 -32 206 -192
236 -284 21 -64 -59 -223 -198 -397 -194 -240 -503 -412 -779 -433 -108 -9
-184 11 -210 55 -8 14 -29 35 -48 47 -27 18 -34 30 -40 70 -17 120 -132 223
-267 239 -144 17 -221 -115 -128 -221 9 -11 25 -42 35 -68 l18 -48 -34 -28
-33 -28 -37 24 c-30 20 -57 25 -160 34 -154 13 -338 49 -472 93 -89 29 -325
129 -366 155 -21 13 -6 28 62 60 70 33 97 69 97 126 0 29 -8 45 -34 71 -30 30
-40 34 -88 34 -46 0 -66 -7 -143 -51 -50 -28 -108 -64 -129 -80 l-40 -29 -65
37 c-180 100 -285 197 -405 376 -78 118 -170 292 -213 405 -146 387 -89 967
142 1447 111 230 374 562 542 681 128 92 553 275 553 239z m322 -737 c3 -51
-7 -103 -21 -113 -14 -8 -108 15 -121 30 -13 16 8 104 34 141 15 21 17 21 60
6 43 -16 44 -17 48 -64z m-117 -374 c50 -10 93 -23 97 -29 15 -20 8 -106 -12
-149 -20 -41 -103 -147 -121 -154 -11 -4 -53 133 -73 238 -9 47 -18 93 -21
104 -3 14 1 17 18 13 12 -3 63 -13 112 -23z m1021 -161 c111 -135 170 -267
161 -358 -7 -65 -39 -139 -74 -170 -47 -41 -188 -95 -247 -95 -80 0 -241 59
-299 109 -48 43 -91 132 -83 173 29 153 236 350 411 393 28 7 56 13 62 14 7 1
38 -29 69 -66z m1572 -1203 c54 -72 174 -200 256 -271 99 -87 141 -104 200
-84 54 19 62 29 117 139 27 56 67 121 89 146 l39 45 1 -37 c0 -56 12 -77 94
-174 78 -92 136 -189 136 -231 0 -12 -2 -23 -4 -23 -3 0 -26 14 -52 32 -93 62
-276 117 -347 104 -86 -16 -139 -108 -108 -188 5 -13 27 -45 50 -73 49 -59 51
-86 12 -138 -47 -62 -88 -88 -208 -132 l-68 -25 -38 42 c-115 129 -173 241
-239 456 l-42 136 40 153 c21 84 41 153 45 153 3 0 15 -13 27 -30z m3123 -379
c-1 -95 -39 -246 -57 -229 -2 3 0 49 6 104 9 97 36 211 47 201 3 -3 5 -37 4
-76z m-2206 -553 c18 -43 6 -53 -87 -68 -98 -17 -105 -3 -26 54 76 55 94 57
113 14z"/>
<path d="M3348 10934 c-32 -7 -85 -27 -119 -45 l-62 -31 -46 23 c-32 16 -69
25 -118 27 -64 4 -80 1 -137 -26 -76 -36 -136 -92 -172 -163 -21 -43 -27 -73
-34 -171 -5 -66 -11 -122 -14 -125 -3 -3 -26 17 -50 44 -58 65 -150 114 -224
120 -44 4 -76 -1 -142 -22 -182 -58 -260 -118 -260 -201 0 -39 5 -51 34 -80
28 -28 41 -34 78 -34 24 0 70 9 102 21 88 30 147 35 180 14 34 -23 80 -120
101 -219 14 -64 17 -108 12 -223 -3 -78 -8 -147 -12 -152 -3 -6 -25 3 -48 19
-65 44 -184 80 -262 80 -68 0 -188 -33 -243 -67 -49 -30 -101 -86 -113 -120
-22 -67 29 -143 97 -143 19 0 63 16 102 36 38 20 89 38 114 41 64 7 150 -20
198 -63 42 -38 80 -121 80 -177 1 -18 7 -45 14 -62 12 -26 11 -35 -7 -70 -31
-64 -103 -160 -149 -199 -85 -73 -209 -115 -274 -93 -61 20 -91 68 -119 192
-20 88 -30 114 -53 138 -49 48 -126 37 -157 -23 -31 -60 -8 -255 42 -354 33
-65 109 -137 180 -173 107 -52 269 -34 425 49 151 80 267 218 383 453 85 173
134 313 175 505 63 293 96 413 156 561 108 270 189 384 312 442 57 27 71 29
128 24 79 -8 211 -69 233 -108 22 -39 7 -76 -43 -106 -24 -15 -51 -39 -60 -54
-49 -83 22 -189 128 -189 130 0 250 142 263 311 12 174 -95 302 -319 380 -95
33 -201 38 -300 13z"/>
<path d="M2017 7846 c-58 -16 -148 -76 -186 -125 -63 -80 -88 -158 -98 -302
l-6 -95 33 -37 c27 -32 38 -37 75 -37 30 0 49 6 68 24 26 24 33 44 62 179 28
130 90 181 194 159 127 -27 218 -95 307 -228 54 -82 56 -87 46 -122 -5 -20
-15 -64 -21 -97 -22 -120 -100 -196 -218 -211 -58 -7 -137 13 -184 47 -63 45
-143 28 -174 -37 -35 -75 9 -145 129 -204 106 -52 201 -69 288 -51 57 11 178
62 220 93 9 7 19 10 22 7 3 -2 10 -61 17 -129 11 -110 10 -136 -5 -218 -22
-120 -50 -194 -89 -233 -29 -30 -34 -31 -86 -26 -31 4 -83 15 -115 27 -71 24
-97 25 -140 5 -58 -28 -82 -96 -52 -153 30 -57 85 -91 225 -137 162 -53 271
-29 383 87 l57 59 5 -33 c3 -18 7 -67 10 -108 8 -105 29 -161 89 -226 107
-118 250 -149 381 -83 l43 21 50 -25 c127 -65 295 -77 425 -31 208 74 320 195
321 346 1 167 -100 314 -234 338 -118 22 -212 -81 -162 -176 10 -21 33 -45 51
-54 52 -28 62 -41 62 -76 0 -44 -24 -67 -115 -111 -63 -29 -85 -35 -144 -35
-60 0 -79 5 -131 33 -94 50 -150 119 -234 290 -87 175 -147 351 -210 622 -57
241 -99 362 -178 521 -155 309 -296 452 -517 525 -83 27 -201 35 -264 17z"/>
<path d="M5799 5301 c-38 -39 -39 -90 -3 -142 25 -36 25 -39 15 -116 -14 -99
-53 -179 -101 -205 -43 -24 -137 -21 -191 6 -47 22 -115 86 -162 153 -44 61
-82 78 -138 63 -45 -12 -89 -61 -89 -98 0 -39 44 -201 65 -242 25 -49 141
-160 203 -193 82 -44 191 -78 272 -84 61 -4 86 -1 135 16 101 37 95 37 95 4 0
-98 79 -251 180 -351 121 -120 199 -154 270 -117 64 33 67 95 10 178 -74 110
-106 236 -98 396 4 73 10 106 27 139 48 94 143 170 233 186 89 16 323 -34 427
-90 69 -38 161 -106 199 -146 l22 -25 -62 -75 c-155 -187 -213 -337 -239 -618
-13 -143 -13 -158 0 -301 26 -286 123 -504 300 -679 147 -145 330 -225 435
-190 45 14 66 44 66 91 0 52 -29 77 -168 148 -67 35 -144 82 -172 108 -114
102 -196 277 -219 468 -19 156 -17 169 29 207 97 79 225 288 271 443 18 60 29
184 29 335 0 16 161 130 233 164 99 48 294 110 418 135 134 27 367 40 503 30
133 -11 421 -68 552 -110 331 -106 649 -348 870 -664 104 -149 164 -295 189
-465 16 -100 19 -238 7 -305 -7 -38 -11 -42 -82 -77 -82 -40 -327 -125 -375
-130 -28 -3 -30 0 -32 32 -16 226 -79 474 -161 635 -97 192 -309 413 -530 552
-232 146 -482 238 -680 250 -334 19 -697 -146 -869 -397 -48 -71 -91 -162
-115 -247 -20 -68 -23 -100 -22 -253 0 -162 2 -182 28 -265 64 -210 161 -348
291 -411 53 -26 71 -29 152 -29 105 0 134 14 166 78 17 33 17 42 5 79 -16 52
-58 83 -125 93 -87 13 -134 51 -177 141 -55 117 -69 275 -37 430 40 191 146
321 346 420 212 105 422 102 701 -11 255 -102 528 -337 634 -545 24 -47 90
-235 90 -256 0 -8 -15 -4 -43 11 -73 41 -167 58 -327 59 -133 1 -151 -1 -218
-26 -114 -41 -179 -85 -287 -193 -120 -119 -175 -194 -258 -351 l-62 -118 -65
3 c-54 2 -71 -2 -100 -21 -43 -29 -60 -61 -60 -113 0 -75 43 -119 140 -145 62
-16 143 -67 236 -148 169 -146 265 -210 410 -275 72 -32 116 -46 269 -88 34
-10 105 -14 220 -13 155 1 178 3 260 28 118 36 225 83 305 134 l65 41 7 -92
c9 -113 34 -261 60 -347 33 -111 151 -336 236 -450 111 -149 298 -319 380
-344 29 -9 28 -20 -9 -135 -83 -258 -96 -358 -59 -431 56 -110 210 -122 301
-23 33 35 67 101 77 150 7 30 12 37 28 34 111 -20 155 -4 206 79 17 28 32 50
34 50 2 0 28 -16 59 -35 67 -44 180 -96 305 -142 197 -73 327 -103 580 -133
151 -18 184 -25 237 -52 35 -17 74 -46 92 -68 50 -63 190 -169 278 -212 75
-36 91 -41 160 -41 88 -1 144 14 306 80 l110 44 72 -12 c62 -10 76 -9 103 5
100 52 78 163 -43 213 -85 36 -154 29 -314 -31 -146 -55 -194 -63 -258 -46
-57 16 -123 47 -123 59 0 4 34 11 76 15 360 33 852 305 1116 619 230 272 402
677 469 1108 18 117 20 162 15 354 -8 359 -61 626 -161 825 -47 93 -191 304
-290 425 l-96 116 23 28 c61 75 240 174 384 212 98 26 250 35 325 20 137 -29
249 -112 288 -215 32 -86 28 -93 -27 -48 -153 128 -332 135 -474 18 -191 -157
-192 -448 -2 -638 132 -132 314 -163 469 -80 104 57 240 211 297 338 71 162
63 370 -21 548 -44 94 -66 118 -185 205 -171 124 -387 184 -578 161 -51 -6
-110 -15 -131 -20 -37 -8 -40 -7 -59 26 -31 53 -76 75 -152 75 -114 0 -216
-53 -385 -203 -52 -46 -106 -93 -122 -106 l-27 -22 -104 54 c-158 83 -370 151
-551 175 -112 16 -306 13 -417 -4 -255 -41 -522 -173 -690 -344 -183 -185
-280 -391 -382 -811 -58 -244 -59 -248 -48 -394 16 -228 89 -406 257 -631 110
-146 212 -229 396 -319 118 -58 187 -76 318 -83 237 -13 422 40 808 231 96 47
181 86 189 86 12 0 14 -13 9 -72 -23 -265 -184 -515 -415 -645 -214 -120 -542
-178 -781 -138 -284 48 -517 190 -717 439 -96 119 -137 194 -197 361 -90 250
-123 388 -166 690 -35 246 -44 362 -38 504 18 397 19 405 40 446 45 90 40 151
-16 186 -45 28 -87 19 -144 -30 -25 -23 -49 -41 -54 -41 -4 0 -17 -19 -28 -43
-11 -23 -42 -63 -68 -89 -61 -58 -254 -208 -269 -208 -8 0 -13 45 -16 143 -9
266 -87 476 -265 714 -121 162 -314 350 -463 452 -92 63 -302 177 -389 211
-126 49 -390 114 -596 145 -138 22 -493 16 -620 -9 -285 -57 -515 -143 -665
-249 l-64 -46 -66 63 c-206 199 -405 281 -670 279 -140 -1 -228 -19 -345 -72
-37 -17 -71 -31 -75 -31 -4 0 -10 20 -13 45 -12 85 -49 125 -116 125 -23 0
-35 9 -59 48 -56 86 -137 108 -193 53z m1451 -970 c0 -23 -55 -161 -84 -211
-27 -47 -31 -52 -34 -31 -5 29 31 129 70 199 27 47 48 66 48 43z m5670 -224
c164 -39 380 -122 380 -145 0 -9 -53 -62 -62 -62 -3 0 -18 20 -32 44 -17 30
-40 51 -69 65 -53 26 -80 26 -134 1 -49 -22 -76 -61 -98 -140 -23 -82 -51
-145 -105 -240 -27 -47 -56 -105 -66 -130 -9 -25 -20 -48 -24 -53 -3 -4 -31 6
-61 22 -30 16 -90 40 -134 53 -114 33 -336 32 -475 -1 -141 -35 -286 -94 -380
-156 -46 -30 -87 -55 -91 -55 -10 0 41 161 76 240 104 235 322 426 599 526
147 52 227 64 411 59 127 -3 182 -8 265 -28z m1771 -473 c10 -9 23 -33 30 -53
12 -39 55 -91 75 -91 46 0 0 -74 -72 -116 -35 -20 -52 -25 -79 -20 -71 14
-136 95 -139 174 -3 109 110 174 185 106z m-875 -102 c138 -175 248 -351 284
-458 28 -79 65 -257 81 -379 19 -154 17 -450 -5 -565 -92 -488 -282 -878 -546
-1123 -185 -171 -538 -356 -755 -396 -55 -10 -152 -15 -261 -12 l-70 1 -61
122 c-69 138 -104 182 -157 196 -128 36 -188 -91 -103 -218 20 -30 33 -58 29
-62 -11 -11 -345 38 -449 66 -130 36 -266 88 -406 157 -88 44 -131 59 -162 59
-40 0 -42 1 -54 41 -7 23 -11 42 -9 43 2 1 21 16 43 33 22 17 51 34 65 38 42
13 67 34 85 71 49 103 -57 206 -215 208 -99 1 -154 -20 -215 -85 -33 -35 -52
-48 -65 -44 -10 3 -37 -1 -61 -10 -24 -8 -55 -15 -69 -15 -67 1 -223 109 -311
217 -195 237 -292 510 -292 823 -1 154 15 223 56 254 90 68 262 127 341 119
89 -10 144 39 133 119 -14 104 -133 142 -312 99 -44 -11 -88 -23 -97 -26 -27
-11 -23 9 28 152 l45 129 93 53 c52 29 125 77 162 107 114 89 104 97 97 -78
-7 -189 16 -390 83 -728 43 -220 154 -539 248 -716 110 -207 324 -439 511
-554 368 -227 764 -267 1195 -123 200 67 336 148 466 277 184 183 287 420 301
689 4 87 9 117 19 117 18 0 30 -26 39 -85 13 -95 64 -145 147 -145 128 0 186
135 175 405 -3 74 -13 156 -22 190 -42 151 -132 272 -241 326 -49 24 -63 36
-59 48 43 110 83 265 115 446 11 66 26 136 32 155 22 72 50 140 56 140 4 -1
34 -35 68 -78z m-4353 -343 c1 -52 -2 -123 -7 -160 -7 -52 -5 -71 8 -96 27
-53 61 -73 125 -73 102 0 321 49 452 101 29 11 54 17 57 14 5 -5 -6 -44 -69
-242 -18 -56 -28 -68 -117 -148 -169 -151 -352 -255 -475 -271 l-42 -5 -55 75
c-60 81 -89 149 -90 209 0 58 13 73 85 97 70 23 121 65 131 106 24 93 -34 166
-160 203 -86 25 -178 41 -250 41 l-50 0 30 31 c39 42 118 80 241 118 89 28
107 37 135 71 18 21 37 35 41 31 4 -4 9 -50 10 -102z m2704 -49 c53 -51 100
-135 139 -250 26 -76 27 -260 1 -307 -21 -40 -105 -90 -164 -99 -58 -9 -246
30 -300 62 -77 45 -172 191 -173 265 -1 148 125 275 347 349 48 16 90 29 93
29 3 1 28 -21 57 -49z m1026 23 c20 -12 -2 -130 -28 -157 -13 -13 -21 -13 -68
3 -45 15 -52 22 -55 47 -2 19 8 46 28 77 30 48 31 49 73 42 23 -4 45 -9 50
-12z m-166 -415 c40 -13 73 -27 73 -32 0 -25 -233 -256 -259 -256 -12 0 -32
161 -25 201 8 42 30 87 56 116 19 20 23 21 52 8 17 -8 64 -24 103 -37z m-4161
-135 c14 -31 28 -70 31 -86 l6 -30 -32 19 c-17 10 -50 38 -73 61 l-42 43 24
25 c38 40 58 33 86 -32z"/>
</g>
</svg>
