<?xml version="1.0" standalone="no"?>
<!DOCTYPE svg PUBLIC "-//W3C//DTD SVG 20010904//EN"
 "http://www.w3.org/TR/2001/REC-SVG-20010904/DTD/svg10.dtd">
<svg version="1.0" xmlns="http://www.w3.org/2000/svg"
 width="15pt" height="15pt" viewBox="0 0 602.000000 595.000000"
 preserveAspectRatio="xMidYMid meet">

<g transform="translate(0.000000,595.000000) scale(0.100000,-0.100000)"
 fill="#b33109" stroke="none">
<path d="M2905 5744 c-549 -55 -982 -195 -1400 -453 -332 -205 -668 -539 -879
-876 -196 -311 -333 -688 -392 -1077 -21 -139 -30 -561 -15 -715 65 -654 320
-1217 746 -1648 556 -561 1341 -825 2280 -766 458 29 808 102 1150 238 249 99
515 241 564 300 105 127 35 348 -132 418 -20 8 -62 15 -93 15 -53 0 -65 -5
-170 -70 -338 -208 -697 -338 -1114 -402 -124 -19 -185 -22 -420 -22 -206 0
-302 4 -383 17 -538 83 -953 283 -1293 622 -309 308 -504 701 -586 1180 -30
178 -33 591 -5 760 90 537 312 966 688 1330 386 373 888 605 1439 665 150 17
460 14 619 -4 476 -57 881 -233 1168 -510 342 -328 511 -725 530 -1241 17
-462 -106 -866 -365 -1201 -213 -275 -553 -483 -797 -487 -82 -2 -134 23 -155
73 -33 80 -20 139 304 1370 168 641 306 1177 306 1191 0 69 -44 134 -115 172
-33 18 -57 22 -145 22 -94 0 -110 -3 -149 -25 -67 -38 -82 -67 -122 -227 l-36
-146 -38 77 c-45 92 -143 201 -223 250 -265 159 -707 145 -1062 -34 -535 -270
-924 -865 -1051 -1610 -26 -157 -38 -520 -20 -653 38 -287 147 -516 324 -683
186 -176 423 -250 721 -224 310 27 505 118 729 343 l107 108 0 -54 c0 -175 69
-308 193 -371 97 -48 168 -61 342 -61 131 0 179 4 264 23 325 73 619 241 873
498 117 119 180 197 265 326 181 275 303 628 344 988 17 155 15 462 -5 610
-36 268 -101 491 -211 715 -108 222 -232 392 -421 576 -364 353 -841 570
-1444 654 -110 16 -615 29 -715 19z m478 -1531 c150 -41 267 -168 312 -338 39
-152 5 -579 -71 -880 -106 -421 -318 -781 -575 -975 -166 -125 -319 -181 -494
-182 -257 -1 -402 128 -460 408 -71 344 20 837 235 1279 150 307 333 516 546
623 171 86 347 108 507 65z"/>
</g>
</svg>
