<?xml version="1.0" standalone="no"?>
<!DOCTYPE svg PUBLIC "-//W3C//DTD SVG 20010904//EN"
 "http://www.w3.org/TR/2001/REC-SVG-20010904/DTD/svg10.dtd">
<svg version="1.0" xmlns="http://www.w3.org/2000/svg"
 width="15pt" height="15pt" viewBox="0 0 602.000000 595.000000"
 preserveAspectRatio="xMidYMid meet">

<g transform="translate(0.000000,595.000000) scale(0.100000,-0.100000)"
fill="#b33109" stroke="none">
<path d="M1225 5851 c-123 -44 -164 -74 -421 -306 -285 -258 -344 -315 -464
-452 -178 -202 -208 -281 -217 -565 -5 -141 -2 -191 10 -245 9 -37 29 -140 46
-228 57 -306 144 -552 311 -885 408 -815 1179 -1648 2059 -2225 675 -443 1388
-728 2029 -811 109 -14 142 -15 186 -5 243 54 609 371 925 801 50 69 114 154
141 190 67 88 110 171 110 212 0 30 -11 45 -87 119 -296 286 -622 520 -938
674 -346 169 -585 199 -715 90 -23 -19 -45 -35 -49 -35 -5 0 -28 -25 -52 -56
-118 -151 -206 -248 -270 -295 -101 -74 -115 -76 -229 -19 -152 75 -310 162
-375 206 -33 23 -78 51 -100 62 -52 27 -86 55 -299 241 -232 201 -499 498
-695 770 -65 90 -264 503 -281 582 -21 93 -9 112 165 284 178 176 246 270 253
351 5 59 -11 101 -87 227 -27 45 -87 152 -133 237 -47 85 -107 191 -133 235
-26 44 -115 213 -198 375 -82 162 -165 321 -184 353 -32 53 -82 95 -97 80 -3
-3 -14 1 -23 9 -30 26 -81 48 -110 48 -15 -1 -50 -9 -78 -19z"/>
</g>
</svg>
