<?xml version="1.0" standalone="no"?>
<!DOCTYPE svg PUBLIC "-//W3C//DTD SVG 20010904//EN"
 "http://www.w3.org/TR/2001/REC-SVG-20010904/DTD/svg10.dtd">
<svg version="1.0" xmlns="http://www.w3.org/2000/svg"
 width="20pt" height="30pt" viewBox="0 -300 512 160"
 preserveAspectRatio="xMidYMid meet">

<g transform="translate(0.000000,164.000000) scale(0.100000,-0.100000)"
fill="#ecc95f" stroke="none">
<path d="M2965 1573 c-154 -33 -325 -117 -468 -230 -67 -54 -262 -248 -293
-291 -9 -13 -55 -56 -102 -95 -48 -40 -100 -85 -117 -100 -44 -39 -259 -215
-337 -275 -60 -46 -241 -144 -336 -182 -49 -19 -192 -8 -272 23 -156 59 -284
179 -330 311 -25 71 -25 86 5 171 37 104 117 216 196 275 123 91 211 111 309
69 56 -24 84 -16 95 28 5 23 1 32 -24 55 -81 72 -266 64 -406 -17 -58 -34
-177 -161 -216 -231 l-32 -55 -31 30 c-73 71 -209 97 -303 59 -137 -56 -247
-193 -274 -342 -40 -217 101 -419 274 -392 54 9 84 26 140 81 40 40 47 53 47
86 0 34 -4 41 -27 50 -32 12 -77 4 -94 -17 -25 -30 -85 -53 -115 -45 -55 14
-101 117 -90 199 14 102 87 202 182 247 65 31 151 6 191 -54 22 -33 23 -42 21
-190 -2 -125 1 -169 16 -221 56 -204 197 -362 391 -440 79 -31 97 -34 189 -35
145 0 225 29 411 153 22 15 45 32 50 38 6 5 27 23 48 38 70 51 228 209 323
322 52 62 100 118 106 126 7 7 49 58 93 113 140 176 370 398 500 483 84 55
311 141 373 142 24 0 30 -15 8 -23 -20 -8 -25 -54 -9 -77 17 -24 55 -26 73 -5
18 21 16 66 -4 80 -27 20 -19 25 42 25 75 0 190 -31 271 -72 78 -39 190 -147
239 -230 59 -99 112 -290 112 -400 0 -126 -71 -304 -157 -394 -157 -167 -408
-260 -558 -207 -45 17 -52 24 -86 88 -34 64 -39 70 -71 73 -31 3 -37 -1 -51
-31 -19 -40 -10 -86 29 -154 32 -56 72 -82 157 -104 94 -25 162 -24 278 5 201
50 379 179 477 346 54 93 92 185 92 225 0 20 5 19 36 -10 15 -14 61 -36 103
-49 l76 -24 15 -53 c22 -76 54 -134 90 -159 47 -34 134 -60 198 -60 48 0 71
-7 142 -44 121 -61 233 -90 324 -81 87 8 116 25 116 65 0 44 -31 66 -102 74
-126 15 -221 59 -398 185 -124 88 -143 105 -266 226 -109 108 -272 315 -398
508 -32 48 -61 87 -65 87 -4 0 -23 21 -42 48 -41 55 -152 147 -224 187 -140
77 -366 106 -540 68z m1105 -882 c16 -31 2 -53 -34 -49 -31 3 -44 23 -32 54 8
21 53 17 66 -5z m-3403 -172 c16 -16 5 -39 -18 -39 -12 0 -19 7 -19 18 0 31
17 41 37 21z m3613 -10 c16 -28 5 -49 -24 -49 -27 0 -51 32 -42 56 8 22 54 17
66 -7z m-3552 -102 c4 -20 -25 -34 -40 -19 -15 15 -1 44 19 40 10 -2 19 -11
21 -21z m3760 -39 c7 -7 12 -20 12 -30 0 -23 -58 -26 -66 -3 -14 37 26 61 54
33z m-3700 -64 c-19 -19 -38 -11 -38 16 0 24 21 31 40 14 12 -12 12 -16 -2
-30z m830 -1 c-5 -26 -38 -29 -38 -4 0 15 6 21 21 21 14 0 19 -5 17 -17z
m-750 -46 c4 -20 -25 -34 -39 -20 -14 14 1 45 20 41 9 -2 17 -11 19 -21z m680
6 c-5 -26 -38 -29 -38 -4 0 15 6 21 21 21 14 0 19 -5 17 -17z m-78 -53 c0 -11
-6 -20 -14 -20 -18 0 -29 16 -21 30 11 18 35 11 35 -10z m-505 0 c8 -13 -13
-40 -31 -40 -14 0 -19 31 -7 43 10 10 31 8 38 -3z m415 -40 c0 -21 -24 -28
-35 -10 -8 14 3 30 21 30 8 0 14 -9 14 -20z m-320 -9 c0 -24 -25 -34 -40 -16
-15 18 -5 35 21 35 12 0 19 -7 19 -19z m125 -26 c0 -23 -34 -33 -46 -14 -10
17 9 41 30 37 9 -2 16 -12 16 -23z m100 -1 c0 -10 -8 -20 -17 -22 -18 -3 -26
27 -11 42 12 11 28 0 28 -20z"/>
<path d="M3211 1396 c-17 -31 -6 -64 24 -72 54 -13 87 43 47 79 -26 24 -57 21
-71 -7z"/>
<path d="M3408 1318 c-40 -14 -47 -57 -13 -86 41 -35 95 -13 95 38 0 42 -36
63 -82 48z"/>
<path d="M3536 1174 c-22 -21 -20 -50 4 -74 24 -24 29 -24 58 -4 24 17 30 62
10 82 -17 17 -54 15 -72 -4z"/>
<path d="M3616 1058 c-29 -40 -18 -67 32 -83 48 -14 82 53 46 89 -22 23 -60
20 -78 -6z"/>
<path d="M3682 948 c-28 -28 -7 -78 34 -78 39 0 49 74 12 84 -31 8 -32 8 -46
-6z"/>
</g>
</svg>
