<?xml version="1.0" standalone="no"?>
<!DOCTYPE svg PUBLIC "-//W3C//DTD SVG 20010904//EN"
 "http://www.w3.org/TR/2001/REC-SVG-20010904/DTD/svg10.dtd">
<svg version="1.0" xmlns="http://www.w3.org/2000/svg"
 width="1015.000000pt" height="767.000000pt" viewBox="0 0 1015.000000 767.000000"
 preserveAspectRatio="xMidYMid meet">

<g transform="translate(0.000000,767.000000) scale(0.100000,-0.100000)"
fill="#000000" stroke="none">
<path d="M4850 7583 c-104 -8 -323 -45 -375 -63 -31 -11 -77 -30 -103 -44 -44
-23 -60 -25 -252 -31 -113 -3 -230 -8 -260 -10 -30 -2 -109 -6 -175 -10 -66
-3 -255 -12 -420 -20 -165 -8 -446 -22 -625 -30 -179 -8 -370 -17 -425 -20
-55 -2 -152 -7 -215 -10 -63 -3 -162 -8 -220 -10 -58 -3 -184 -10 -280 -15
-96 -5 -236 -12 -310 -15 -74 -3 -207 -11 -295 -17 -88 -6 -266 -11 -395 -10
-129 0 -249 -4 -265 -9 -57 -17 -57 -21 -56 -384 1 -183 3 -390 6 -461 2 -71
6 -232 10 -359 3 -126 7 -273 10 -325 3 -52 7 -207 10 -345 3 -137 8 -304 10
-370 5 -143 13 -375 20 -615 3 -96 8 -242 10 -325 3 -82 7 -226 10 -320 11
-363 16 -505 22 -630 3 -71 5 -137 5 -145 0 -16 14 -474 23 -730 2 -85 7 -243
10 -350 4 -107 8 -215 10 -240 2 -25 7 -166 11 -315 6 -263 7 -271 31 -312 29
-50 4 -42 278 -93 28 -6 133 -23 235 -40 228 -37 341 -56 445 -75 44 -8 136
-23 205 -34 138 -23 596 -98 675 -112 28 -5 93 -16 145 -24 52 -9 120 -20 150
-25 30 -5 73 -12 95 -15 22 -3 51 -8 65 -10 14 -3 36 -8 50 -10 14 -3 77 -14
140 -24 63 -11 169 -29 235 -41 101 -18 399 -67 605 -100 66 -11 233 -39 275
-46 102 -18 289 -43 295 -39 4 3 10 -1 13 -8 14 -37 215 -117 347 -137 30 -5
82 -14 115 -19 97 -17 442 -15 598 4 246 29 473 90 529 143 27 25 56 31 398
86 19 3 96 17 170 31 74 14 173 32 220 40 111 18 672 122 730 135 25 5 97 19
160 29 224 39 297 52 455 81 190 36 476 87 560 101 111 18 390 69 405 74 8 2
58 11 110 20 52 8 115 19 140 24 25 4 113 20 195 35 287 52 321 63 351 110 20
31 22 51 28 377 4 189 9 403 11 474 2 72 6 288 10 480 3 193 7 438 10 545 5
215 12 610 20 1055 11 626 16 896 20 1045 9 341 20 1233 20 1708 l0 504 -27
23 c-27 23 -28 23 -325 23 -164 0 -341 2 -393 6 -52 3 -169 8 -260 11 -91 3
-212 8 -270 10 -58 2 -179 7 -270 10 -91 3 -217 7 -280 10 -63 3 -191 7 -285
10 -93 3 -231 7 -305 10 -74 3 -218 7 -320 11 -102 3 -210 7 -240 9 -30 2
-158 6 -285 10 -126 3 -257 8 -290 10 -33 2 -181 7 -330 11 -259 6 -272 8
-311 30 -22 13 -67 33 -100 44 -52 18 -89 26 -224 45 -45 7 -460 13 -520 8z
m489 -133 c106 -10 241 -39 281 -60 42 -23 42 -25 55 -780 3 -179 7 -415 10
-525 3 -110 7 -380 10 -600 3 -220 8 -447 10 -505 3 -58 7 -244 10 -415 3
-170 10 -490 15 -710 5 -220 12 -526 15 -680 3 -154 7 -345 10 -425 3 -80 7
-287 10 -460 3 -173 7 -369 10 -435 3 -66 7 -230 10 -365 3 -135 7 -335 10
-445 17 -661 18 -592 -7 -609 -42 -27 -261 -82 -423 -106 -140 -20 -423 -28
-571 -15 -99 8 -264 41 -324 65 -85 33 -117 58 -124 94 -4 18 -4 141 -1 272 4
230 9 685 20 1939 3 325 7 786 10 1025 5 425 10 1109 20 2805 6 947 -3 853 90
881 106 31 224 50 375 60 58 4 106 7 107 8 6 5 279 -6 372 -14z m896 -125 c72
-3 177 -7 235 -10 58 -2 195 -7 305 -10 110 -3 232 -8 270 -10 39 -3 207 -9
375 -15 168 -6 343 -12 390 -15 47 -2 180 -7 295 -10 116 -3 242 -7 280 -10
39 -3 156 -7 260 -10 105 -3 222 -7 260 -10 39 -2 178 -8 310 -11 132 -4 254
-8 270 -9 17 0 86 -2 154 -3 l124 -2 -7 -232 c-4 -128 -9 -287 -11 -353 -9
-302 -29 -1364 -40 -2145 -3 -201 -7 -484 -10 -630 -3 -146 -7 -456 -10 -690
-3 -234 -7 -537 -10 -675 -3 -137 -7 -482 -11 -765 -3 -283 -9 -518 -12 -522
-4 -3 -61 -16 -127 -27 -66 -12 -142 -26 -170 -32 -27 -5 -63 -12 -80 -14 -26
-3 -192 -33 -355 -65 -116 -22 -175 -33 -322 -59 -29 -6 -102 -20 -163 -31
-60 -12 -144 -28 -185 -36 -294 -53 -425 -77 -565 -104 -88 -17 -196 -37 -240
-45 -75 -13 -485 -88 -655 -119 -41 -8 -138 -26 -215 -41 -77 -14 -165 -31
-195 -36 -30 -5 -141 -27 -246 -47 l-192 -38 -5 46 c-3 25 -6 140 -7 255 0
116 -3 230 -5 255 -2 25 -6 218 -9 430 -4 212 -8 450 -11 530 -3 80 -7 287
-10 460 -3 173 -8 394 -10 490 -2 96 -7 281 -10 410 -3 129 -7 323 -10 430 -2
107 -7 321 -10 475 -7 365 -14 667 -20 835 -2 74 -7 266 -10 425 -3 160 -7
335 -10 390 -3 55 -7 224 -10 375 -3 151 -7 322 -10 380 -3 58 -8 230 -11 384
l-6 278 163 -6 c90 -4 223 -9 294 -11z m-1959 -552 c-3 -307 -8 -679 -11 -828
-7 -368 -14 -1010 -20 -1800 -3 -363 -7 -833 -10 -1045 -2 -212 -7 -821 -10
-1355 -6 -976 -10 -1253 -16 -1260 -2 -2 -60 8 -129 21 -143 28 -548 99 -850
149 -189 31 -472 79 -830 141 -80 14 -212 36 -295 50 -82 14 -161 27 -175 30
-14 2 -115 20 -225 39 -110 19 -252 44 -315 55 -63 11 -171 30 -240 41 -69 11
-131 21 -138 24 -6 2 -72 14 -145 25 -119 19 -184 29 -212 35 -5 2 -44 8 -85
14 -41 7 -75 13 -77 15 -8 8 -16 214 -28 746 -6 252 -13 480 -20 710 -3 85 -8
234 -10 330 -11 446 -16 605 -20 740 -3 80 -7 242 -10 360 -3 118 -7 267 -10
330 -3 63 -7 214 -10 335 -3 121 -7 290 -10 375 -3 85 -7 229 -10 320 -3 91
-7 219 -10 285 -2 66 -7 221 -10 345 -3 124 -8 268 -10 320 -2 52 -7 169 -10
260 -3 91 -8 181 -10 200 -2 19 -7 108 -11 197 l-6 162 68 0 c38 0 256 9 484
20 560 28 603 30 845 41 116 6 248 12 295 15 47 2 139 7 205 10 66 3 140 8
165 10 25 2 124 7 220 10 96 3 191 8 210 10 19 3 136 9 260 15 124 6 263 12
310 15 47 2 144 7 215 10 72 3 144 7 160 10 17 2 116 7 220 11 105 3 192 8
194 10 2 2 33 4 69 4 l64 0 -6 -557z"/>
<path d="M4534 5621 c-12 -5 -25 -14 -28 -19 -7 -12 -23 -185 -36 -402 -6 -96
-15 -179 -20 -184 -16 -16 -11 -52 9 -70 11 -10 37 -20 58 -22 21 -2 275 -6
564 -10 l527 -7 15 24 c23 36 21 144 -9 499 -6 78 -40 176 -62 185 -28 10
-995 16 -1018 6z m506 -115 c190 -3 369 -6 398 -6 l52 0 0 -97 c0 -54 5 -154
10 -222 5 -69 8 -126 6 -128 -2 -3 -207 -5 -456 -6 l-452 -2 6 140 c3 77 6
181 6 232 l0 92 28 3 c15 2 34 2 42 1 8 -1 170 -4 360 -7z"/>
<path d="M4504 2951 c-12 -5 -24 -13 -27 -18 -8 -12 -24 -202 -38 -427 -7
-133 -15 -196 -25 -212 -31 -46 3 -90 75 -99 19 -2 291 -7 605 -11 l571 -6 20
22 c18 21 20 35 18 184 -2 140 -8 233 -29 415 -3 24 -12 57 -20 72 -8 15 -14
35 -14 43 0 36 -32 39 -579 42 -320 3 -545 0 -557 -5z m719 -126 c169 -2 312
-7 316 -10 5 -2 9 -49 10 -102 1 -54 6 -161 11 -237 6 -77 9 -140 7 -142 -2
-2 -225 -5 -496 -6 l-493 -3 7 250 c5 166 11 252 19 257 6 4 78 5 161 3 82 -3
289 -7 458 -10z"/>
<path d="M5937 7243 c-15 -2 -39 -15 -53 -28 l-25 -24 1 -208 c0 -114 2 -221
4 -238 2 -16 7 -194 10 -395 4 -201 9 -385 11 -410 2 -25 7 -214 10 -420 3
-206 8 -391 10 -410 2 -19 6 -179 9 -355 4 -176 8 -374 11 -440 3 -66 7 -235
10 -375 8 -344 14 -614 20 -800 2 -85 7 -276 10 -425 3 -148 7 -340 10 -425 2
-85 7 -258 10 -385 3 -126 7 -302 10 -390 3 -88 7 -268 10 -400 7 -295 14
-465 21 -486 8 -27 66 -27 213 -3 75 13 152 26 171 29 19 3 141 24 270 46 129
22 420 71 645 109 226 38 464 79 530 90 66 11 320 54 565 96 245 41 459 77
475 80 276 47 451 78 545 96 63 11 125 21 136 20 12 -1 27 4 32 11 17 20 21
181 27 1042 5 810 10 1390 20 2335 3 267 8 865 11 1330 3 465 7 934 8 1043 3
214 -2 236 -48 222 -21 -6 -385 -6 -441 0 -16 2 -183 6 -370 9 -187 4 -394 9
-460 11 -66 2 -248 7 -405 10 -157 3 -370 8 -475 10 -193 5 -946 22 -1310 29
-110 2 -212 2 -228 -1z m623 -88 c91 -3 284 -7 430 -10 146 -3 344 -7 440 -10
96 -3 301 -7 455 -10 154 -3 330 -8 390 -10 61 -2 286 -7 500 -11 215 -4 397
-8 405 -10 8 -1 106 -3 217 -3 l202 -1 -5 -437 c-8 -832 -13 -1176 -18 -1181
-3 -3 -12 1 -21 8 -11 9 -30 10 -63 5 -26 -4 -60 -6 -77 -5 -106 8 -133 4
-170 -24 -45 -35 -75 -82 -75 -120 0 -44 46 -120 91 -147 27 -17 37 -29 32
-39 -13 -29 -18 -328 -21 -1261 -3 -899 -2 -947 15 -966 29 -33 66 -37 93 -8
l22 24 0 1068 c1 588 -3 1084 -7 1103 -4 19 -14 43 -23 53 -12 13 -13 20 -4
29 7 7 12 27 12 44 0 26 -8 39 -35 60 -37 28 -44 48 -20 57 9 4 22 -5 35 -23
12 -17 30 -34 40 -40 27 -15 79 7 86 36 3 13 10 24 15 24 13 0 10 -23 -6 -44
-21 -27 -19 -52 6 -77 16 -16 29 -20 50 -15 l29 6 0 -246 c-1 -135 -4 -244 -7
-240 -3 3 -7 100 -9 217 -2 183 -5 214 -20 230 -21 24 -56 24 -76 2 -28 -32
-35 -277 -43 -1518 -3 -569 -2 -734 8 -746 7 -9 26 -19 43 -23 24 -5 34 -2 52
17 21 22 22 29 22 295 1 150 4 270 8 268 5 -3 7 -29 6 -58 -1 -29 -2 -164 -3
-300 l-1 -247 -22 4 c-27 6 -64 -17 -73 -45 -4 -11 -1 -36 5 -56 14 -42 8 -52
-24 -35 -28 16 -63 7 -86 -22 -9 -11 -22 -17 -28 -13 -19 11 -14 44 10 76 27
37 16 80 -24 94 -52 18 -113 -51 -118 -134 -4 -64 0 -78 25 -109 l26 -30 -23
-3 c-26 -3 -68 -80 -98 -175 -4 -15 -34 -100 -65 -188 -31 -88 -60 -171 -64
-184 -6 -21 -14 -25 -54 -27 -61 -4 -129 -50 -158 -106 -27 -53 -22 -142 10
-187 l21 -30 -69 -78 c-38 -43 -133 -152 -210 -243 -135 -158 -141 -167 -139
-205 2 -30 9 -42 26 -51 42 -21 70 -2 167 111 52 61 101 117 108 125 65 76
208 253 231 287 24 36 27 47 21 88 -7 44 -26 75 -46 75 -17 0 -9 33 13 57 22
23 62 30 87 14 8 -5 25 -5 40 0 22 8 33 26 58 92 63 164 184 535 185 568 l1
34 66 -2 c36 -1 90 -2 119 -3 30 -1 60 4 68 11 12 9 13 -16 10 -177 -3 -104
-5 -403 -6 -665 l-1 -476 -107 -15 c-106 -16 -766 -125 -1037 -172 -143 -25
-654 -112 -1120 -191 -143 -24 -408 -69 -590 -100 -181 -30 -346 -58 -365 -61
-19 -3 -80 -14 -135 -24 -55 -10 -101 -18 -101 -17 -1 1 -5 171 -9 377 -3 206
-8 402 -10 435 -2 33 -7 215 -10 405 -4 190 -8 363 -10 385 -3 39 -3 39 9 13
37 -85 140 -120 210 -72 12 8 36 10 70 7 65 -7 114 20 151 82 44 76 36 149
-25 218 -37 43 -79 55 -113 32 -38 -24 -39 -59 -5 -106 21 -30 28 -48 24 -65
-8 -30 -21 -30 -41 0 -9 13 -25 26 -37 29 -31 9 -74 -18 -86 -53 -15 -42 -32
-38 -32 8 0 31 8 47 40 83 43 48 49 69 24 93 -21 22 -62 20 -101 -4 -36 -22
-59 -53 -79 -108 -12 -35 -13 -30 -15 88 -1 69 -3 154 -5 190 -1 36 -5 200 -8
365 -4 165 -8 356 -11 425 -3 69 -7 251 -10 405 -3 154 -8 330 -10 390 -2 61
-7 238 -10 395 -3 157 -8 339 -11 405 -6 118 -5 119 13 102 27 -23 69 -22 86
4 11 15 13 37 10 80 -5 49 -3 60 11 65 28 11 40 -12 38 -69 -2 -42 2 -58 18
-75 43 -46 103 -15 115 59 7 42 36 81 43 60 2 -7 -1 -33 -8 -57 -12 -42 -11
-46 10 -69 66 -70 152 22 130 138 -10 52 -40 101 -70 117 -28 15 -77 12 -112
-6 -29 -15 -34 -15 -62 0 -17 8 -51 20 -75 25 -37 8 -51 6 -82 -10 -21 -10
-44 -28 -52 -39 -13 -19 -15 -18 -20 27 -3 26 -6 131 -7 233 -1 102 -3 208 -5
235 -1 28 -5 185 -9 350 -8 383 -15 621 -22 762 -5 100 -4 112 13 122 17 11
117 10 613 -4z m3017 -2482 c-3 -10 -5 -2 -5 17 0 19 2 27 5 18 2 -10 2 -26 0
-35z m-10 -415 c-3 -8 -6 -5 -6 6 -1 11 2 17 5 13 3 -3 4 -12 1 -19z m0 -70
c-3 -7 -5 -2 -5 12 0 14 2 19 5 13 2 -7 2 -19 0 -25z m0 -305 c-1 -54 -3 -10
-3 97 0 107 2 151 3 98 2 -54 2 -142 0 -195z m0 -180 c-2 -16 -4 -3 -4 27 0
30 2 43 4 28 2 -16 2 -40 0 -55z m0 -70 c-3 -10 -5 -4 -5 12 0 17 2 24 5 18 2
-7 2 -21 0 -30z m0 -65 c1 -38 0 -40 -6 -13 -6 26 -4 55 3 55 2 0 3 -19 3 -42z"/>
<path d="M7379 7012 c-24 -26 -71 -79 -104 -117 -33 -38 -78 -90 -101 -115
-22 -25 -67 -77 -100 -116 -32 -39 -114 -134 -181 -212 -127 -147 -137 -167
-110 -215 24 -43 40 -57 69 -57 15 0 28 -2 28 -5 0 -17 -33 -66 -57 -85 l-28
-21 -14 30 c-20 41 -73 53 -102 23 -10 -12 -19 -24 -19 -27 0 -7 -86 -142
-209 -328 -41 -63 -73 -122 -73 -136 0 -29 35 -61 67 -61 30 0 50 25 168 218
l99 160 34 -11 c110 -34 268 128 248 256 -5 29 -17 52 -40 74 -30 28 -32 32
-17 45 9 7 69 76 133 153 121 144 295 351 333 395 90 105 114 159 85 188 -26
26 -64 13 -109 -36z"/>
<path d="M8300 6991 c-16 -31 -12 -44 33 -106 37 -51 181 -234 235 -300 10
-11 53 -65 96 -120 44 -55 97 -121 119 -147 21 -27 33 -48 27 -48 -6 0 -24
-21 -40 -47 -70 -110 -18 -286 103 -347 62 -31 78 -32 136 -6 24 11 45 19 46
18 6 -9 55 -119 55 -123 0 -18 86 -202 99 -212 26 -20 68 -15 85 9 21 29 20
49 -3 95 -11 21 -34 70 -51 108 -100 223 -107 237 -160 302 -19 23 -59 27 -80
8 -11 -10 -20 -24 -20 -31 0 -26 -24 -64 -40 -64 -38 0 -80 70 -80 132 0 55
13 68 65 68 34 0 44 5 54 24 11 19 10 29 -4 56 -14 27 -176 236 -256 329 -12
14 -33 41 -47 60 -15 20 -32 41 -38 46 -6 6 -45 53 -87 106 -127 161 -175 209
-208 209 -18 0 -32 -7 -39 -19z"/>
<path d="M6088 5173 c-9 -2 -19 -16 -23 -30 -7 -29 -7 -469 0 -603 2 -47 7
-191 10 -320 9 -401 15 -592 20 -685 3 -49 7 -209 11 -355 10 -467 9 -452 41
-477 34 -28 41 -28 72 -4 19 15 24 28 25 67 2 72 -15 737 -19 744 -1 3 -6 174
-9 380 -4 206 -9 402 -11 435 -2 33 -7 164 -10 290 -3 127 -10 297 -15 379
-12 179 -22 198 -92 179z"/>
<path d="M6266 5155 c-8 -9 -18 -32 -22 -53 -8 -40 1 -612 16 -1037 5 -148 12
-344 15 -435 3 -91 8 -223 10 -295 3 -71 7 -238 10 -370 5 -213 7 -243 24
-265 27 -37 73 -39 100 -4 20 26 22 36 17 124 -8 143 -20 539 -31 1015 -14
633 -33 1124 -45 1228 -5 43 -16 85 -24 93 -19 18 -51 18 -70 -1z"/>
<path d="M6455 2135 c-14 -13 -25 -31 -25 -39 0 -28 62 -192 103 -270 22 -44
56 -94 74 -113 31 -30 39 -33 96 -33 70 0 76 3 97 44 18 35 34 42 65 28 63
-29 66 -104 6 -117 -35 -7 -45 -22 -55 -78 -6 -30 -3 -44 16 -70 35 -49 498
-515 534 -538 27 -16 36 -18 58 -8 32 15 42 49 25 80 -11 21 -114 132 -383
414 -53 55 -96 103 -96 108 0 4 7 10 15 13 29 12 58 74 58 127 1 84 -50 161
-130 198 -68 31 -139 20 -193 -31 -18 -17 -33 -30 -35 -30 -12 0 -96 210 -109
271 -14 66 -77 89 -121 44z"/>
<path d="M4020 7234 c-8 -2 -181 -8 -385 -14 -203 -6 -413 -12 -465 -15 -108
-5 -303 -12 -530 -20 -85 -3 -209 -7 -275 -10 -66 -3 -250 -10 -410 -15 -159
-6 -344 -12 -410 -15 -66 -2 -187 -7 -270 -10 -82 -3 -260 -10 -395 -15 -349
-13 -423 -14 -443 -6 -10 5 -24 3 -33 -5 -15 -12 -16 -50 -10 -389 4 -206 9
-436 11 -510 2 -74 7 -261 10 -415 9 -465 15 -742 20 -910 3 -88 7 -297 10
-465 3 -168 7 -366 10 -440 3 -74 7 -295 10 -490 3 -195 8 -398 10 -450 3 -52
7 -243 10 -425 3 -181 7 -393 10 -470 3 -77 7 -288 10 -470 6 -377 13 -515 26
-531 5 -6 40 -15 77 -19 37 -4 74 -8 82 -10 8 -2 105 -17 215 -34 110 -17 223
-35 250 -41 28 -5 68 -12 90 -15 180 -27 404 -61 585 -90 118 -19 307 -48 420
-66 113 -17 241 -37 285 -44 44 -7 285 -45 535 -84 250 -39 559 -87 685 -107
238 -38 347 -46 364 -29 10 11 18 321 26 1055 3 250 7 664 10 920 3 256 7 623
10 815 3 193 7 611 10 930 3 319 8 675 10 790 2 116 7 525 10 910 3 385 8 800
10 923 l5 223 -28 28 c-23 25 -37 30 -87 33 -33 3 -67 3 -75 2z m91 -85 c18
-9 19 -27 13 -482 -3 -260 -7 -533 -9 -607 -2 -74 -4 -255 -4 -401 l-1 -266
-42 40 c-40 38 -43 39 -95 34 -29 -3 -68 -15 -86 -26 -29 -18 -35 -18 -66 -5
-18 8 -50 14 -71 14 -104 0 -159 -182 -80 -262 30 -30 50 -34 80 -18 35 19 42
45 24 90 -13 32 -14 44 -5 53 15 15 27 -2 42 -61 11 -42 48 -82 76 -82 8 0 25
11 39 25 23 23 25 30 19 79 -6 48 -5 55 13 65 28 15 32 6 32 -64 0 -34 6 -68
13 -77 21 -27 52 -30 79 -8 l25 19 -3 -122 c-1 -67 -5 -378 -8 -692 -15 -1420
-21 -1891 -25 -1965 -1 -8 -10 4 -20 26 -37 81 -142 128 -177 79 -21 -28 -18
-39 25 -84 43 -45 58 -90 42 -118 -9 -16 -12 -14 -25 17 -27 65 -88 76 -130
23 -14 -19 -21 -22 -27 -11 -15 23 -10 48 16 82 31 40 32 69 4 97 -27 27 -80
21 -117 -13 -32 -30 -62 -94 -62 -136 0 -41 41 -124 76 -151 33 -26 90 -37
123 -24 20 7 33 5 56 -9 64 -38 152 -17 191 45 l25 42 -6 -620 c-3 -341 -7
-707 -7 -813 l-2 -194 -40 7 c-48 8 -56 9 -156 25 -75 11 -99 15 -285 45 -55
8 -129 20 -165 25 -36 6 -108 17 -160 25 -52 8 -153 24 -225 35 -139 21 -504
78 -545 85 -50 8 -357 57 -420 66 -35 5 -132 20 -215 34 -82 13 -314 49 -515
80 -201 30 -435 66 -520 80 -85 14 -169 26 -186 27 l-32 2 -1 221 c-1 121 -4
245 -6 275 -2 30 -6 230 -10 445 -7 352 -6 388 8 376 20 -16 103 -17 122 -1
10 9 19 9 36 0 12 -7 37 -10 55 -7 31 5 34 4 34 -20 0 -25 45 -165 115 -358
20 -55 43 -120 52 -145 8 -25 26 -70 40 -102 27 -62 51 -74 103 -55 66 25 114
-38 66 -86 -21 -21 -26 -36 -26 -76 0 -44 5 -56 57 -122 31 -41 77 -97 102
-124 25 -28 69 -77 96 -109 28 -33 70 -82 95 -110 25 -28 59 -68 75 -88 20
-24 42 -38 65 -43 43 -8 65 8 73 52 6 30 -5 45 -192 260 -109 125 -208 236
-219 247 l-22 19 25 29 c45 53 42 142 -7 210 -28 40 -101 79 -149 81 l-41 2
-25 70 c-14 39 -36 102 -50 140 -13 39 -31 84 -39 102 -8 17 -14 34 -14 38 0
12 -64 170 -78 192 -8 12 -22 25 -33 28 -19 6 -19 7 1 32 46 58 33 161 -27
213 -38 34 -68 38 -95 13 -23 -21 -23 -41 2 -78 21 -31 26 -70 11 -79 -4 -3
-19 6 -31 19 -25 26 -68 33 -87 14 -19 -19 -33 -1 -23 27 16 40 12 63 -15 90
-17 17 -32 23 -50 20 l-25 -5 -1 97 c-1 53 -4 204 -8 335 -3 130 -3 237 2 237
4 0 7 -57 7 -127 0 -71 3 -207 6 -303 6 -159 8 -177 27 -198 25 -27 62 -23 89
10 16 17 17 36 13 142 -2 66 -7 288 -10 491 -3 204 -7 456 -10 560 -3 105 -7
305 -10 445 -10 444 -21 597 -43 623 -20 22 -54 22 -75 -1 -13 -14 -17 -43
-18 -140 0 -70 -5 -120 -10 -116 -5 3 -9 71 -9 151 0 128 2 144 16 139 25 -10
60 4 74 28 10 19 9 29 -5 55 -9 18 -14 38 -12 44 2 7 10 0 17 -16 24 -50 96
-49 127 3 19 33 21 34 43 20 12 -8 9 -16 -22 -46 -40 -37 -51 -87 -26 -112 9
-9 7 -16 -8 -33 -18 -20 -19 -40 -19 -418 0 -218 4 -657 9 -976 4 -319 9 -635
10 -702 2 -139 12 -163 72 -163 51 0 65 35 59 152 -2 51 -7 354 -10 673 -6
692 -22 1369 -33 1410 -8 27 -5 32 27 56 20 14 49 49 64 78 38 69 32 107 -28
166 -48 48 -91 62 -153 50 -41 -8 -56 -8 -125 1 -38 5 -52 2 -68 -11 -19 -18
-19 -16 -20 131 0 82 -2 181 -4 219 -7 129 -28 1255 -24 1259 2 2 123 7 269
10 146 4 283 9 305 11 22 2 132 7 245 10 113 3 248 7 300 10 119 6 342 13 570
20 96 3 207 7 245 10 39 2 167 7 285 10 118 4 247 8 285 10 39 2 165 7 280 10
116 4 233 8 260 10 28 2 151 7 275 11 124 3 226 8 228 9 8 7 77 3 93 -6z
m-3583 -2521 l-2 -223 -6 210 c-5 197 -4 235 6 235 2 0 3 -100 2 -222z m9
-430 c-3 -8 -6 -5 -6 6 -1 11 2 17 5 13 3 -3 4 -12 1 -19z m0 -155 c-2 -27 -3
-5 -3 47 0 52 1 74 3 48 2 -27 2 -69 0 -95z m10 -280 c-2 -16 -4 -5 -4 22 0
28 2 40 4 28 2 -13 2 -35 0 -50z m0 -166 c-2 -23 -3 -1 -3 48 0 50 1 68 3 42
2 -26 2 -67 0 -90z m6 -62 c4 -8 3 -16 -1 -19 -4 -3 -9 4 -9 15 -2 23 3 25 10
4z"/>
<path d="M2576 7014 c-25 -25 -19 -61 18 -101 18 -21 60 -70 92 -109 68 -82
261 -306 382 -442 81 -92 83 -95 63 -109 -51 -35 -65 -117 -32 -189 45 -99
136 -161 220 -150 l48 6 65 -97 c35 -54 86 -133 112 -176 64 -104 95 -119 141
-72 14 13 25 30 25 38 0 14 -269 429 -312 481 -20 24 -29 27 -55 22 -22 -5
-35 -16 -43 -37 -7 -16 -14 -29 -17 -29 -16 0 -44 25 -62 54 -27 44 -27 60 1
53 25 -7 58 17 58 42 0 9 7 25 15 35 8 11 15 26 15 33 0 11 -97 126 -256 303
-17 19 -87 98 -155 175 -258 291 -282 311 -323 269z"/>
<path d="M1657 6918 c-48 -48 -189 -223 -327 -404 -30 -39 -92 -119 -137 -178
-46 -59 -90 -120 -99 -138 -15 -29 -15 -32 4 -50 14 -14 33 -20 61 -20 30 1
44 -4 51 -18 22 -41 7 -116 -32 -157 -29 -31 -56 -29 -69 5 -28 69 -31 72 -69
72 -32 0 -39 -4 -50 -30 -7 -16 -16 -30 -21 -30 -10 0 -59 -95 -90 -172 -20
-52 -45 -108 -79 -183 -28 -61 -29 -94 -4 -119 37 -38 86 -12 113 60 30 79
113 279 117 283 2 2 14 -4 28 -12 96 -63 222 5 270 146 28 84 16 163 -34 221
l-29 33 42 55 c65 85 253 327 348 449 110 141 126 169 113 206 -16 48 -48 42
-107 -19z"/>
<path d="M3942 5151 c-14 -11 -22 -33 -26 -71 -11 -104 -22 -657 -32 -1610 -4
-322 -7 -625 -8 -673 -1 -85 0 -90 27 -113 26 -22 30 -23 57 -9 49 25 44 -41
55 770 4 275 8 561 10 635 10 345 8 1036 -3 1056 -15 28 -54 35 -80 15z"/>
<path d="M3752 5135 c-28 -32 -35 -202 -47 -1110 -3 -214 -8 -545 -11 -735
-10 -630 -11 -596 8 -617 23 -25 84 -19 103 11 15 22 14 9 30 1021 4 215 8
408 10 430 3 22 5 246 5 498 1 503 0 510 -55 514 -17 2 -36 -4 -43 -12z"/>
<path d="M3585 2124 c-14 -14 -27 -37 -31 -52 -9 -42 -50 -161 -79 -225 l-25
-59 -29 31 c-36 39 -69 51 -135 51 -65 0 -120 -33 -161 -97 -52 -82 -41 -197
22 -238 15 -10 21 -20 16 -29 -5 -8 -75 -85 -158 -172 -318 -337 -315 -333
-315 -379 0 -24 6 -34 25 -43 46 -21 57 -12 354 296 274 285 252 257 250 314
-3 58 -21 88 -55 88 -35 0 -53 42 -33 78 16 30 55 53 75 45 7 -3 22 -20 33
-39 20 -33 22 -34 85 -34 58 0 69 3 99 29 39 35 114 182 153 303 26 81 27 88
11 111 -9 14 -30 29 -47 35 -26 10 -33 8 -55 -14z"/>
</g>
</svg>
