<?xml version="1.0" standalone="no"?>
<!DOCTYPE svg PUBLIC "-//W3C//DTD SVG 20010904//EN"
 "http://www.w3.org/TR/2001/REC-SVG-20010904/DTD/svg10.dtd">
<svg version="1.0" xmlns="http://www.w3.org/2000/svg"
 width="574.000000pt" height="618.000000pt" viewBox="0 0 574.000000 618.000000"
 preserveAspectRatio="xMidYMid meet">

<g transform="translate(0.000000,618.000000) scale(0.100000,-0.100000)"
fill="#000000" stroke="none">
<path d="M2805 5755 c-22 -8 -49 -26 -60 -39 -37 -46 -65 -192 -65 -339 l0
-96 -142 6 c-161 6 -365 -12 -608 -54 -162 -27 -230 -37 -515 -74 -55 -7 -160
-13 -234 -13 l-135 -1 -25 44 c-101 172 -370 188 -505 30 -71 -83 -85 -204
-36 -303 48 -96 140 -147 264 -148 70 -1 90 3 139 28 63 30 127 93 154 149 10
22 27 38 42 42 38 9 475 -9 866 -37 172 -13 508 -13 549 -1 17 5 60 18 96 29
36 12 68 18 72 14 3 -4 8 -415 10 -913 l3 -907 -95 -6 c-52 -4 -189 -11 -305
-17 -317 -15 -436 -31 -625 -85 -41 -12 -181 -85 -245 -129 -77 -52 -251 -224
-297 -295 -65 -100 -100 -192 -125 -330 -12 -70 -15 -179 -14 -635 1 -302 6
-604 11 -670 8 -95 7 -129 -4 -165 l-13 -45 -179 -2 c-111 -2 -187 -7 -201
-15 -35 -18 -42 -60 -45 -278 -3 -200 -2 -206 20 -237 12 -17 33 -35 45 -39
25 -8 2690 -8 2887 0 69 3 460 7 870 11 410 3 764 8 786 11 41 5 70 27 93 71
14 28 14 108 0 303 -16 213 0 200 -240 200 -139 0 -190 3 -196 13 -4 6 -6 292
-4 635 3 652 -1 751 -41 927 -38 168 -122 303 -278 448 -133 124 -277 206
-440 251 -134 38 -555 76 -841 76 l-126 0 -7 593 c-3 325 -9 734 -12 908 -5
230 -3 318 5 323 6 4 39 -2 74 -13 126 -41 172 -44 405 -32 229 12 390 23 692
46 102 8 242 15 311 15 l124 0 15 -32 c19 -45 97 -126 140 -147 172 -86 366
-22 434 143 9 21 16 65 16 98 0 97 -69 206 -156 247 -13 6 -36 16 -50 23 -14
7 -62 12 -107 12 -65 -1 -92 -6 -132 -25 -53 -25 -135 -99 -135 -122 0 -8 -9
-22 -20 -32 -17 -15 -34 -17 -157 -11 -76 3 -174 10 -218 15 -44 6 -120 15
-170 20 -119 14 -197 25 -400 56 -217 32 -496 49 -590 35 -39 -5 -76 -10 -82
-10 -9 0 -13 20 -13 66 0 103 -29 280 -55 340 -19 41 -42 60 -90 73 -48 13
-41 13 -90 -4z m-209 -3111 l81 -7 6 -106 c9 -151 25 -387 36 -516 5 -60 6
-113 2 -117 -7 -8 -223 -14 -751 -23 -295 -5 -316 -7 -335 -25 -30 -30 -11
-73 35 -80 19 -3 220 -2 445 1 226 4 762 7 1192 8 481 1 792 5 807 11 21 8 26
16 26 44 0 22 -6 37 -17 42 -10 5 -259 11 -553 14 l-535 5 2 25 c3 44 25 460
32 595 l6 130 180 0 c245 0 559 -36 690 -80 260 -87 349 -214 376 -534 18
-210 -5 -1109 -28 -1133 -7 -6 -13 -24 -13 -39 0 -15 -3 -30 -7 -32 -16 -10
-514 -17 -1624 -23 l-1146 -7 -8 39 c-4 22 -12 45 -18 53 -8 9 -14 83 -19 200
-3 102 -11 274 -17 381 -14 279 -5 613 20 715 47 194 136 291 334 362 89 32
271 62 500 83 61 5 121 12 135 13 46 7 84 7 166 1z"/>
</g>
</svg>
