<?xml version="1.0" standalone="no"?>
<!DOCTYPE svg PUBLIC "-//W3C//DTD SVG 20010904//EN"
 "http://www.w3.org/TR/2001/REC-SVG-20010904/DTD/svg10.dtd">
<svg version="1.0" xmlns="http://www.w3.org/2000/svg"
 width="602.000000pt" height="595.000000pt" viewBox="0 0 602.000000 595.000000"
 preserveAspectRatio="xMidYMid meet">

<g transform="translate(0.000000,595.000000) scale(0.100000,-0.100000)"
fill="#000000" stroke="none">
<path d="M3233 5573 c-5 -1 -458 -3 -1008 -6 -728 -3 -1006 -7 -1022 -15 -45
-25 -51 -85 -93 -967 -6 -115 -12 -232 -15 -260 -3 -27 -7 -97 -10 -155 -3
-58 -7 -123 -10 -145 -2 -22 -7 -105 -10 -185 -3 -80 -8 -176 -10 -215 -2 -38
-9 -167 -15 -285 -10 -215 -12 -252 -30 -540 -9 -153 -14 -243 -25 -490 -4
-69 -8 -147 -10 -175 -2 -27 -6 -111 -10 -185 -3 -74 -10 -202 -16 -285 -5
-82 -11 -181 -14 -220 -2 -38 -7 -131 -10 -205 -3 -74 -8 -169 -10 -210 -2
-41 -7 -147 -11 -235 -3 -88 -9 -200 -14 -249 -5 -55 -4 -101 3 -122 20 -66
18 -65 421 -65 330 1 368 -1 422 -18 55 -17 108 -19 639 -25 319 -3 1085 -9
1702 -12 1117 -6 1122 -6 1151 14 48 35 57 81 43 229 -7 70 -17 162 -22 203
-5 41 -12 111 -15 155 -2 44 -6 91 -9 105 -3 25 -11 98 -20 195 -2 28 -9 93
-15 145 -5 52 -23 244 -40 425 -17 182 -35 364 -40 405 -10 71 -38 359 -60
605 -6 61 -13 133 -16 160 -3 28 -8 68 -10 90 -2 22 -8 81 -13 130 -6 50 -13
126 -16 170 -3 44 -9 116 -15 160 -18 165 -32 303 -60 595 -6 63 -15 142 -20
175 -5 33 -12 92 -15 130 -14 172 -38 414 -59 580 -8 66 -19 170 -26 230 -15
147 -38 283 -56 323 -8 19 -25 37 -41 43 -19 7 -259 9 -745 7 -395 -2 -721 -4
-725 -5z m1391 -165 c5 -24 25 -233 24 -258 0 -18 30 -396 37 -460 3 -25 9
-81 14 -125 5 -44 15 -141 21 -215 6 -74 20 -220 31 -325 11 -104 24 -239 29
-300 13 -144 19 -202 25 -245 3 -19 10 -93 16 -165 5 -71 12 -143 15 -160 4
-31 18 -166 34 -345 13 -136 29 -294 35 -345 2 -22 19 -179 36 -350 17 -170
32 -323 34 -340 1 -16 6 -61 9 -100 4 -38 11 -110 16 -160 9 -81 22 -209 50
-500 5 -55 14 -145 20 -200 5 -55 13 -127 16 -160 3 -33 9 -87 14 -120 4 -33
6 -63 3 -67 -5 -9 -3286 2 -3294 11 -6 5 -24 183 -35 326 -2 28 -6 68 -8 90
-3 22 -8 63 -10 90 -35 367 -56 580 -66 655 -5 41 -15 138 -21 215 -6 77 -19
219 -29 315 -11 96 -26 254 -35 350 -17 193 -21 233 -35 365 -12 111 -57 575
-65 670 -3 39 -10 102 -15 141 -10 77 -14 112 -30 299 -26 283 -89 920 -95
960 -24 142 -51 455 -41 466 2 2 745 5 1650 7 l1645 3 5 -23z m-3355 -1163 c7
-77 16 -174 21 -215 5 -41 14 -136 20 -210 6 -74 20 -216 30 -315 10 -99 22
-211 25 -250 3 -38 8 -81 10 -95 2 -14 11 -115 20 -225 9 -110 18 -206 20
-213 3 -8 19 -161 35 -340 17 -180 35 -363 40 -407 5 -44 12 -109 14 -145 7
-100 34 -391 51 -535 12 -113 34 -345 50 -540 3 -33 11 -99 17 -147 6 -48 9
-90 7 -93 -3 -3 -135 -8 -294 -11 l-287 -7 6 89 c3 49 8 154 11 234 3 80 7
172 10 205 2 33 7 114 10 180 3 66 8 145 10 175 3 30 10 163 15 295 13 289 18
401 25 520 3 50 7 153 10 230 3 77 10 194 14 260 5 66 10 143 10 170 1 28 6
131 11 230 6 99 15 286 20 415 6 129 17 345 25 480 8 135 15 288 15 340 1 133
15 95 29 -75z"/>
<path d="M3777 5134 c-2 -1 -661 -9 -1717 -20 -531 -5 -494 3 -492 -109 1 -77
35 -431 57 -600 2 -16 15 -138 29 -270 14 -132 27 -256 30 -275 3 -19 14 -120
26 -225 11 -104 26 -242 34 -305 8 -63 22 -180 30 -260 30 -278 57 -515 61
-545 3 -16 14 -119 25 -227 11 -109 22 -203 25 -210 2 -7 13 -103 25 -213 11
-110 24 -234 30 -275 22 -173 39 -320 45 -390 3 -41 10 -104 15 -140 5 -36 14
-112 21 -170 12 -101 29 -150 52 -150 6 0 29 -9 51 -19 36 -17 73 -20 301 -26
143 -3 328 -8 410 -10 83 -3 265 -6 405 -7 220 -1 259 1 286 15 55 29 52 120
-4 142 -9 4 -309 9 -667 12 -357 3 -652 7 -655 10 -2 2 -10 61 -16 131 -7 70
-20 183 -29 251 -8 67 -18 146 -21 175 -11 112 -25 235 -34 301 -6 39 -24 194
-40 345 -16 151 -32 291 -34 310 -3 19 -15 125 -26 235 -11 110 -24 220 -29
245 -5 25 -9 52 -9 60 0 8 -5 56 -12 105 -6 50 -13 110 -15 135 -3 25 -10 83
-15 130 -6 47 -12 108 -15 136 -2 29 -6 62 -9 75 -3 13 -10 69 -16 124 -35
342 -48 455 -65 563 -3 18 -12 99 -20 180 -9 81 -20 179 -26 217 -23 164 -50
378 -47 380 2 2 569 5 1261 7 1141 4 1257 3 1259 -11 1 -9 2 -34 3 -56 1 -22
5 -71 8 -110 4 -38 11 -142 17 -230 6 -88 15 -189 20 -225 5 -36 16 -146 25
-245 18 -212 46 -510 50 -545 2 -14 6 -43 8 -65 3 -22 11 -105 17 -185 12
-153 30 -332 55 -565 8 -77 22 -223 30 -325 8 -102 17 -198 20 -215 2 -16 15
-147 30 -290 14 -143 32 -323 41 -400 9 -77 18 -171 21 -210 3 -38 13 -146 22
-238 10 -92 15 -170 12 -171 -3 -2 -132 -7 -286 -10 -350 -8 -493 -16 -524
-27 -57 -22 -70 -94 -24 -125 25 -16 64 -17 511 -18 433 -1 485 1 498 15 13
14 13 40 -1 205 -8 104 -20 227 -25 274 -6 47 -15 139 -20 205 -5 66 -12 138
-14 160 -3 22 -12 121 -21 220 -9 99 -19 194 -21 210 -2 17 -11 109 -19 205
-8 96 -16 191 -19 210 -12 86 -29 260 -46 455 -17 196 -20 228 -25 270 -10 85
-26 245 -36 355 -5 63 -11 129 -14 145 -2 17 -7 72 -10 123 -3 51 -8 98 -10
105 -3 6 -21 170 -40 362 -70 696 -85 817 -110 865 -24 46 -58 51 -334 48
-139 -1 -253 -3 -254 -4z"/>
<path d="M3319 4456 c-2 -2 -93 -6 -201 -9 -157 -3 -202 -7 -221 -20 -32 -21
-40 -62 -17 -90 18 -21 24 -22 242 -22 252 0 282 6 292 57 7 36 -6 56 -51 75
-36 14 -38 15 -44 9z"/>
<path d="M3675 4453 c-54 -13 -73 -75 -35 -113 21 -21 51 -24 295 -20 120 1
137 9 150 62 5 21 1 33 -19 52 -25 26 -25 26 -198 25 -95 -1 -182 -4 -193 -6z"/>
<path d="M2235 4422 c-55 -2 -75 -8 -92 -24 -29 -28 -29 -59 0 -86 23 -22 30
-22 271 -22 258 0 294 5 310 46 9 23 -15 66 -44 81 -24 12 -233 14 -445 5z"/>
<path d="M3721 3981 c-34 -9 -65 -53 -56 -80 14 -46 40 -52 236 -52 142 1 187
4 204 15 39 26 37 81 -3 114 -17 13 -335 16 -381 3z"/>
<path d="M2967 3965 c-68 -22 -68 -108 0 -121 18 -3 125 -5 236 -2 169 3 208
6 229 20 37 24 45 66 18 92 -20 20 -31 21 -236 21 -120 0 -230 -4 -247 -10z"/>
<path d="M2277 3950 c-62 -4 -82 -9 -93 -24 -19 -26 -17 -56 4 -84 17 -22 19
-22 272 -22 233 0 257 1 280 18 32 24 37 62 11 93 -19 24 -20 24 -208 24 -103
0 -223 -2 -266 -5z"/>
<path d="M3838 3492 c-80 -3 -89 -5 -108 -29 -25 -32 -25 -54 -1 -84 19 -23
24 -24 208 -27 180 -3 190 -3 216 18 32 25 36 67 10 99 -16 18 -31 21 -128 23
-60 2 -149 2 -197 0z"/>
<path d="M3091 3481 c-81 -6 -95 -9 -112 -30 -24 -30 -24 -56 1 -81 24 -24 -1
-22 260 -20 234 2 246 4 266 58 11 27 9 33 -13 54 -23 22 -33 23 -166 24 -78
1 -184 -1 -236 -5z"/>
<path d="M2373 3460 c-91 -4 -115 -8 -132 -24 -27 -24 -27 -67 -1 -91 19 -17
42 -19 276 -18 l256 0 25 25 c30 30 24 71 -15 96 -28 18 -173 23 -409 12z"/>
<path d="M3860 3020 c-95 -6 -107 -10 -121 -48 -13 -35 5 -68 44 -82 16 -5
107 -10 202 -10 165 0 172 1 192 23 11 12 23 30 27 40 8 23 -23 77 -44 77
-126 4 -231 4 -300 0z"/>
<path d="M3120 3011 c-105 -7 -117 -11 -131 -48 -12 -33 -3 -60 23 -74 28 -15
450 -12 483 3 13 6 29 24 34 40 13 37 -10 73 -53 82 -33 7 -221 5 -356 -3z"/>
<path d="M2394 2990 c-91 -4 -116 -9 -133 -24 -27 -24 -27 -67 -1 -91 18 -17
43 -18 274 -18 222 0 257 2 280 16 48 32 22 113 -38 119 -44 4 -276 3 -382 -2z"/>
<path d="M3487 2514 c-1 -1 -81 -4 -177 -7 -187 -4 -216 -11 -226 -51 -9 -37
-1 -59 26 -74 34 -17 442 -11 482 8 50 24 47 84 -5 112 -17 9 -93 18 -100 12z"/>
<path d="M3885 2513 c-65 -16 -77 -101 -17 -124 14 -5 107 -10 206 -10 159 1
182 3 197 18 30 30 33 66 9 96 l-21 27 -177 -1 c-97 -1 -186 -4 -197 -6z"/>
<path d="M2443 2482 c-64 -3 -75 -6 -93 -29 -26 -33 -25 -54 3 -81 23 -22 30
-22 269 -22 135 0 257 4 271 9 58 22 54 101 -6 120 -29 10 -249 11 -444 3z"/>
<path d="M3960 1966 c-43 -14 -60 -53 -40 -91 16 -31 26 -33 125 -35 228 -5
290 -1 313 20 29 27 28 71 -1 98 -22 21 -32 22 -193 21 -98 -1 -184 -6 -204
-13z"/>
<path d="M3217 1957 c-26 -6 -39 -17 -48 -38 -17 -44 0 -76 46 -85 59 -11 437
1 462 14 12 7 25 26 28 44 6 27 3 36 -20 56 -28 24 -29 24 -231 20 -111 -1
-218 -7 -237 -11z"/>
<path d="M2524 1940 c-82 -6 -104 -20 -104 -65 0 -55 20 -64 155 -65 360 -3
392 -2 420 23 22 18 25 27 19 55 -11 56 -37 62 -241 59 -98 -1 -210 -4 -249
-7z"/>
</g>
</svg>
