<?xml version="1.0" standalone="no"?>
<!DOCTYPE svg PUBLIC "-//W3C//DTD SVG 20010904//EN"
 "http://www.w3.org/TR/2001/REC-SVG-20010904/DTD/svg10.dtd">
<svg version="1.0" xmlns="http://www.w3.org/2000/svg"
 width="602.000000pt" height="595.000000pt" viewBox="0 0 602.000000 595.000000"
 preserveAspectRatio="xMidYMid meet">

<g transform="translate(0.000000,595.000000) scale(0.100000,-0.100000)"
fill="#000000" stroke="none">
<path d="M2870 5803 c-147 -14 -304 -40 -414 -68 -507 -128 -880 -428 -1107
-890 -79 -162 -121 -292 -122 -375 -2 -119 70 -210 208 -262 48 -18 80 -23
164 -23 l103 0 -6 -500 c-3 -275 -8 -657 -11 -850 -3 -192 -6 -579 -7 -860
l-3 -510 26 -55 c49 -102 163 -237 244 -288 22 -13 49 -33 61 -43 11 -11 40
-22 65 -25 24 -3 91 -15 149 -26 129 -25 243 -46 293 -54 20 -4 37 -8 37 -10
0 -2 -15 -24 -34 -49 -149 -195 -106 -540 84 -680 158 -116 359 -135 538 -50
200 95 305 334 247 559 -9 33 -13 61 -10 64 5 6 62 -3 285 -43 420 -77 426
-77 472 -36 28 25 32 35 31 72 -1 24 -4 162 -8 305 l-8 262 93 106 c51 58 94
106 95 106 12 0 64 -102 105 -205 27 -69 62 -144 78 -168 16 -23 36 -55 45
-72 32 -63 153 -188 202 -209 35 -15 125 -30 125 -21 0 3 -14 63 -31 133 l-31
127 -73 44 c-81 49 -87 57 -139 211 -14 41 -34 100 -46 130 -11 30 -20 58 -20
62 0 4 24 7 53 6 29 -1 58 1 64 5 18 11 36 94 30 139 -4 24 -9 165 -12 313 -3
149 -10 430 -15 625 -5 195 -12 477 -15 625 -3 149 -8 291 -11 318 -4 42 0 55
35 115 110 189 161 392 161 642 0 237 -41 422 -135 616 -211 434 -656 707
-1271 779 -116 14 -460 19 -564 8z m475 -588 c242 -37 435 -121 574 -252 l66
-62 -190 0 c-104 -1 -509 -3 -900 -7 l-710 -6 25 27 c43 46 162 132 240 173
122 65 286 115 445 135 83 11 359 6 450 -8z m-305 -455 c788 7 1036 4 1044
-16 5 -14 -55 -15 -612 -10 -339 3 -794 5 -1011 6 -314 0 -391 3 -383 13 8 9
59 11 219 7 114 -3 449 -3 743 0z m195 -151 c462 -1 855 -4 873 -6 39 -6 42
-27 5 -47 -16 -8 -40 -25 -55 -39 -25 -24 -28 -24 -123 -16 -54 5 -100 10
-103 13 -11 11 -42 -16 -42 -37 0 -31 27 -44 108 -53 l71 -6 -16 -25 c-10 -15
-19 -20 -23 -13 -3 6 -35 15 -70 22 -57 10 -65 9 -76 -7 -26 -36 28 -75 104
-75 17 0 22 -5 20 -17 -2 -10 -11 -16 -19 -15 -8 2 -39 10 -69 18 -51 13 -131
23 -305 40 -38 3 -74 8 -78 11 -5 3 -21 -1 -38 -7 -31 -13 -38 -40 -16 -58 15
-13 112 -28 232 -37 95 -7 138 -13 185 -26 19 -5 47 -9 63 -9 22 0 27 -4 27
-26 0 -21 -3 -25 -17 -19 -74 30 -116 21 -111 -21 2 -22 11 -29 48 -40 25 -8
61 -14 80 -14 25 0 39 -6 49 -21 13 -21 12 -22 -31 -16 -36 5 -180 22 -343 42
-22 3 -148 19 -280 35 -132 17 -258 33 -280 35 -131 15 -577 70 -732 90 -203
26 -228 36 -263 105 -24 47 -27 138 -5 180 8 15 26 37 40 48 24 19 38 20 188
17 89 -2 540 -4 1002 -6z m915 -398 c-6 -35 -22 -92 -36 -127 -24 -57 -27 -62
-45 -51 -10 6 -19 23 -19 36 0 15 -13 35 -36 55 -34 29 -37 36 -37 86 0 36 8
72 23 103 28 60 35 64 38 21 4 -52 19 -84 41 -84 37 0 43 23 32 112 l-10 83
27 22 27 23 3 -108 c2 -59 -2 -136 -8 -171z m-2227 -35 c31 -20 57 -43 57 -50
0 -7 7 -19 15 -26 11 -9 15 -32 15 -81 0 -79 -5 -82 -77 -50 -26 12 -51 34
-67 59 -14 22 -30 43 -36 47 -5 3 -10 43 -10 92 l0 86 23 -20 c12 -12 48 -37
80 -57z m303 -31 c111 -12 105 -8 100 -73 -2 -31 -7 -223 -10 -427 -4 -203 -8
-471 -11 -595 -3 -124 -8 -601 -11 -1060 -4 -459 -7 -836 -9 -838 -2 -2 -152
26 -183 34 -10 3 -11 49 -8 211 3 115 8 345 11 513 3 168 7 424 10 570 12 647
16 900 17 1270 0 217 3 399 5 403 3 5 11 6 17 4 7 -3 39 -8 72 -12z m324 -40
c87 -10 387 -45 554 -65 94 -11 184 -23 202 -26 58 -11 185 -154 331 -373 l32
-48 -112 -80 c-62 -44 -174 -124 -250 -177 -173 -122 -297 -225 -363 -302
-208 -241 -300 -439 -334 -714 -15 -128 -15 -557 1 -611 17 -57 78 -122 141
-150 46 -21 68 -24 168 -24 105 0 119 3 165 27 62 32 98 69 124 128 18 40 21
66 21 220 1 527 87 688 555 1037 77 57 155 113 173 124 l32 21 1 -159 c1 -87
3 -221 5 -298 1 -77 5 -291 9 -475 3 -184 8 -413 10 -507 3 -95 2 -173 -2
-173 -10 0 -64 -45 -198 -165 -55 -49 -111 -98 -124 -110 -13 -11 -83 -73
-155 -137 -72 -65 -138 -118 -148 -118 -50 0 -128 26 -169 56 -133 97 -307
127 -465 79 -46 -14 -51 -13 -291 36 l-52 10 6 197 c2 108 6 781 6 1495 l2
1298 40 -5 c22 -3 60 -8 85 -11z m1095 -130 c39 -4 81 -9 95 -11 28 -4 157
-15 210 -17 32 -2 35 -5 37 -35 3 -30 -5 -42 -71 -107 -91 -89 -142 -129 -156
-120 -11 7 -230 294 -230 302 0 3 10 3 23 0 12 -3 54 -8 92 -12z m874 -542 c0
-54 3 -154 6 -223 3 -69 7 -197 10 -285 13 -400 16 -497 20 -595 2 -58 8 -215
11 -349 l7 -244 -38 6 c-21 3 -40 8 -42 11 -3 3 6 19 20 36 15 17 29 47 33 67
9 47 -14 928 -31 1173 -12 192 -17 500 -7 500 6 0 10 -37 11 -97z m-2566 -93
l38 0 -3 -217 -3 -218 -50 -3 c-44 -2 -55 1 -88 29 l-38 32 2 212 3 212 51
-23 c27 -13 67 -24 88 -24z m2428 -52 c1 -57 3 -123 4 -148 1 -25 5 -130 9
-235 4 -104 9 -215 11 -245 2 -30 6 -118 9 -195 8 -179 16 -331 25 -470 4 -60
6 -114 3 -118 -2 -4 -22 9 -45 30 -23 21 -54 47 -69 58 -25 19 -26 26 -32 127
-5 109 -16 148 -40 148 -34 0 -37 -26 -39 -328 l-2 -299 -33 -37 -32 -37 -1
53 c-1 29 -2 105 -4 168 -2 63 -6 304 -9 535 -4 231 -9 526 -12 655 l-6 236
116 92 c63 51 118 97 121 102 17 28 25 0 26 -92z m-2528 -493 c20 -8 57 -15
82 -15 l45 0 0 -216 0 -215 -22 7 c-59 17 -94 37 -120 67 l-27 32 -1 178 c0
97 2 177 4 177 2 0 20 -7 39 -15z m9 -530 c29 -14 65 -25 81 -25 l27 0 0 -225
0 -225 -25 0 c-17 0 -44 19 -85 61 l-61 61 2 189 c1 104 3 189 4 189 2 0 27
-11 57 -25z m74 -595 c29 0 30 -11 24 -217 -3 -115 -8 -170 -15 -165 -23 16
-104 120 -124 159 -18 36 -21 60 -21 167 l0 125 57 -35 c31 -19 67 -34 79 -34z
m2089 -687 c0 -78 -3 -145 -7 -149 -4 -3 -101 12 -215 35 -114 23 -216 41
-226 41 -10 0 -17 4 -15 9 2 6 57 58 123 117 123 109 166 148 270 244 l60 55
5 -105 c3 -58 5 -169 5 -247z"/>
<path d="M2061 4567 c-23 -28 -9 -51 34 -58 22 -4 234 -10 470 -14 622 -11
593 -11 611 7 21 21 3 58 -29 59 -12 0 -49 2 -82 3 -33 2 -269 6 -525 11 -418
7 -467 6 -479 -8z"/>
<path d="M2513 4442 c-33 -2 -44 -8 -49 -24 -9 -29 19 -48 70 -49 23 0 59 -2
81 -4 22 -1 153 -5 292 -9 245 -7 252 -7 262 13 15 28 14 39 -8 50 -10 6 -126
13 -257 17 -132 3 -264 6 -294 7 -30 1 -74 1 -97 -1z"/>
<path d="M2977 4263 c-9 -9 -9 -35 1 -50 6 -10 227 -38 457 -58 33 -3 80 -8
105 -10 151 -17 180 -13 180 24 0 38 3 38 -300 66 -91 9 -205 20 -255 25 -106
11 -179 13 -188 3z"/>
<path d="M4283 3165 c-5 -8 -5 -63 -2 -122 4 -59 10 -157 13 -218 4 -60 11
-168 16 -240 5 -71 12 -182 16 -245 6 -118 13 -140 44 -140 36 0 43 25 36 128
-3 53 -8 131 -11 172 -2 41 -9 145 -15 230 -30 452 -30 450 -71 450 -10 0 -22
-7 -26 -15z"/>
</g>
</svg>
