<?xml version="1.0" standalone="no"?>
<!DOCTYPE svg PUBLIC "-//W3C//DTD SVG 20010904//EN"
 "http://www.w3.org/TR/2001/REC-SVG-20010904/DTD/svg10.dtd">
<svg version="1.0" xmlns="http://www.w3.org/2000/svg"
 width="1015.000000pt" height="767.000000pt" viewBox="0 0 1015.000000 767.000000"
 preserveAspectRatio="xMidYMid meet">

<g transform="translate(0.000000,767.000000) scale(0.100000,-0.100000)"
fill="#000000" stroke="none">
<path d="M4750 7369 c-69 -28 -138 -57 -155 -64 -28 -12 -746 -300 -1290 -517
-137 -54 -263 -105 -280 -113 -29 -12 -440 -178 -535 -215 -103 -40 -727 -291
-745 -300 -11 -5 -65 -27 -120 -48 -55 -22 -230 -92 -390 -157 -159 -64 -355
-143 -435 -174 -80 -32 -152 -60 -160 -64 -8 -3 -62 -26 -119 -49 -95 -40
-107 -48 -127 -84 -21 -38 -22 -43 -7 -64 l16 -23 1441 7 c793 4 1662 9 1931
11 270 3 1026 7 1680 10 655 3 1444 7 1755 10 311 3 966 7 1455 10 583 4 902
10 925 17 42 13 70 35 70 57 0 46 -54 82 -195 132 -44 15 -105 38 -135 49 -30
12 -84 32 -120 45 -36 13 -108 40 -160 60 -52 19 -131 49 -175 64 -67 24 -232
85 -490 181 -27 10 -113 42 -190 70 -77 28 -149 56 -160 61 -11 5 -33 13 -50
18 -16 5 -68 24 -115 41 -47 18 -116 43 -155 57 -38 14 -84 31 -102 39 -17 8
-34 14 -37 14 -3 0 -79 27 -168 61 -90 34 -217 81 -283 105 -141 51 -361 132
-460 169 -38 15 -106 39 -150 55 -44 15 -111 40 -150 55 -87 34 -139 53 -285
106 -63 23 -144 53 -180 66 -36 14 -94 35 -130 48 -36 13 -137 50 -225 83 -88
33 -212 79 -275 101 -63 23 -124 46 -135 51 -65 28 -201 70 -228 69 -18 0 -88
-23 -157 -50z m231 -65 c35 -14 125 -48 199 -75 171 -64 328 -122 455 -169 55
-20 150 -55 210 -77 211 -78 470 -174 505 -187 62 -25 192 -73 350 -131 257
-94 1041 -385 1175 -435 55 -21 237 -88 405 -150 168 -61 339 -124 380 -140
77 -30 125 -47 460 -170 107 -39 224 -82 260 -95 l65 -24 -660 -2 c-363 -1
-806 -3 -985 -4 -179 -2 -795 -6 -1370 -9 -991 -6 -1462 -9 -3150 -21 -399 -3
-1157 -7 -1685 -10 -942 -5 -959 -4 -920 14 37 17 261 108 415 168 36 14 79
31 95 38 17 8 179 72 360 145 182 72 339 135 350 140 11 6 117 48 235 95 118
47 224 90 235 95 11 5 101 41 200 81 99 39 392 157 650 261 259 104 497 200
530 213 33 12 146 58 250 100 105 42 235 95 290 117 241 95 281 111 290 119 5
5 15 9 23 9 8 0 28 7 45 15 18 8 86 37 152 64 66 27 120 50 121 50 0 1 29 -11
65 -25z"/>
<path d="M4880 7046 c-151 -53 -346 -121 -470 -166 -63 -23 -133 -47 -155 -55
-42 -14 -249 -88 -275 -98 -8 -4 -53 -19 -100 -36 -85 -29 -280 -98 -585 -206
-88 -31 -203 -72 -255 -90 -52 -19 -153 -55 -225 -80 -71 -26 -193 -69 -270
-97 -191 -67 -275 -97 -445 -158 -80 -29 -167 -60 -195 -69 -59 -21 -90 -58
-81 -95 3 -14 14 -30 24 -35 9 -5 247 -12 527 -15 281 -3 627 -8 770 -11 143
-3 526 -7 850 -10 325 -3 709 -7 855 -10 146 -3 605 -8 1020 -11 415 -4 818
-8 895 -9 271 -5 1511 -4 1550 1 21 3 45 10 52 16 21 17 15 56 -9 72 -13 8
-158 68 -323 134 -309 123 -363 143 -575 217 -69 24 -174 61 -235 83 -60 23
-202 73 -315 112 -113 39 -268 94 -345 121 -77 28 -165 58 -195 69 -30 10 -95
33 -145 50 -49 18 -160 56 -245 85 -85 30 -240 83 -345 120 -418 146 -599 205
-629 204 -17 0 -74 -15 -126 -33z m355 -141 c116 -42 221 -80 235 -85 14 -4
90 -32 170 -60 80 -29 219 -78 310 -110 91 -32 224 -80 295 -105 72 -26 148
-53 170 -60 22 -7 105 -36 185 -65 80 -28 159 -56 175 -61 17 -5 39 -13 50
-18 11 -6 40 -17 65 -25 48 -16 171 -59 395 -138 77 -27 196 -69 265 -93 319
-110 522 -186 516 -193 -4 -4 -385 -2 -616 3 -85 2 -380 6 -655 9 -1098 13
-1373 16 -1690 21 -181 3 -638 7 -1015 10 -377 3 -779 8 -894 10 -115 2 -400
5 -633 6 -235 1 -426 5 -429 10 -3 5 -1 9 5 9 8 0 450 155 796 280 33 12 78
27 100 35 22 7 92 32 155 55 63 22 158 56 210 75 153 54 331 118 545 195 110
40 261 94 335 120 74 26 194 69 265 95 72 25 193 69 270 96 77 28 149 54 160
59 25 12 13 15 260 -75z"/>
<path d="M9370 5500 c-9 -6 -591 -10 -1535 -10 -836 0 -1839 -3 -2230 -5 -390
-2 -1657 -7 -2815 -10 -1450 -4 -2109 -10 -2117 -17 -16 -13 -17 -74 -2 -83 7
-5 9 -50 5 -139 -18 -409 -18 -431 5 -459 12 -16 30 -27 44 -27 13 0 27 -4 30
-10 4 -6 67 -10 156 -10 111 0 151 -3 154 -12 2 -7 6 -96 10 -198 3 -102 8
-212 11 -245 25 -302 16 -262 100 -429 42 -83 84 -162 94 -176 11 -17 15 -33
10 -50 -9 -32 -21 -174 -45 -535 -3 -44 -12 -165 -20 -270 -8 -104 -17 -235
-20 -290 -3 -55 -7 -120 -10 -145 -5 -49 -5 -49 -35 -500 -11 -168 -22 -325
-24 -350 -3 -25 -10 -127 -17 -228 l-13 -182 -100 -1 c-56 -1 -117 0 -137 1
-59 2 -69 -22 -69 -162 0 -125 8 -160 37 -173 10 -5 65 -11 123 -15 l105 -7
-130 -1 c-184 -3 -325 -8 -329 -13 -3 -2 -6 -75 -7 -162 -2 -114 1 -161 10
-170 9 -9 100 -12 366 -13 195 0 357 -3 360 -6 3 -3 -124 -6 -282 -7 -400 -2
-562 -10 -592 -28 -23 -15 -23 -17 -16 -126 6 -102 18 -147 38 -147 4 0 21
-10 37 -22 l29 -21 4548 6 c2501 4 4558 10 4570 13 35 10 44 49 39 179 -2 66
-5 137 -5 158 -1 60 -35 87 -108 87 -54 0 -59 2 -75 31 -14 24 -18 54 -18 137
0 82 -4 115 -18 142 -17 35 -17 35 -94 38 l-77 3 20 20 c15 15 19 28 14 42
-15 48 -24 104 -25 145 0 36 -6 49 -31 73 -31 29 -32 29 -159 29 l-128 0 -6
113 c-4 61 -9 128 -11 147 -2 19 -7 89 -10 155 -4 66 -8 122 -10 125 -2 3 -6
61 -10 130 -4 69 -8 139 -10 155 -2 17 -9 100 -15 185 -6 85 -13 178 -15 205
-3 28 -7 86 -10 130 -7 111 -15 212 -20 265 -3 25 -9 106 -15 180 -5 74 -22
273 -36 442 l-28 307 66 143 c37 79 73 161 82 183 17 46 33 255 42 588 l7 227
203 0 c197 0 204 1 215 21 7 14 13 127 16 324 l6 302 -24 16 c-27 20 -29 20
-49 7z m-40 -335 l0 -225 -217 -1 c-120 -1 -281 -3 -358 -4 -77 -2 -412 -6
-745 -9 -333 -3 -744 -8 -915 -11 -170 -3 -524 -7 -785 -10 -261 -3 -635 -7
-830 -10 -195 -3 -562 -7 -815 -10 -491 -5 -854 -10 -1870 -25 -352 -5 -876
-12 -1165 -15 -289 -3 -600 -7 -691 -10 l-166 -4 5 262 c2 144 5 263 6 264 2
2 2876 12 5816 19 1334 3 2426 6 2427 7 1 1 69 3 152 5 l151 2 0 -225z m-434
-349 c3 -7 0 -84 -5 -169 -6 -86 -14 -232 -17 -324 -4 -92 -7 -169 -8 -170 -1
-1 -43 5 -93 12 -172 26 -322 22 -523 -14 l-97 -18 -7 166 c-8 195 -15 315
-26 426 -4 44 -6 83 -4 86 2 4 158 7 346 8 188 1 344 3 346 5 10 10 84 3 88
-8z m-872 -226 c3 -118 9 -242 12 -275 2 -33 9 -109 14 -169 10 -109 10 -109
86 -260 42 -83 84 -162 94 -176 11 -17 15 -33 10 -50 -9 -32 -21 -174 -45
-535 -3 -44 -12 -165 -20 -270 -8 -104 -17 -235 -20 -290 -3 -55 -7 -120 -10
-145 -2 -25 -7 -79 -10 -120 -42 -630 -50 -742 -68 -990 l-12 -155 -226 -3
-227 -2 -7 127 c-3 71 -8 142 -10 158 -2 17 -7 84 -10 150 -4 66 -8 122 -10
125 -2 3 -6 61 -10 130 -4 69 -8 139 -10 155 -2 17 -9 100 -15 185 -6 85 -13
178 -15 205 -3 28 -7 86 -10 130 -7 111 -15 212 -20 265 -3 25 -9 106 -15 180
-5 74 -22 273 -36 442 l-28 307 66 143 c37 79 73 161 82 183 17 45 32 243 42
567 l7 208 201 2 c111 2 204 1 207 -2 4 -3 9 -102 13 -220z m-524 207 c-1 -6
-5 -73 -10 -147 -5 -74 -12 -211 -16 -305 -4 -93 -7 -171 -8 -172 -1 -1 -43 5
-93 12 -172 26 -322 22 -523 -15 l-98 -17 -6 181 c-4 100 -9 197 -11 216 -2
19 -7 83 -10 142 l-7 108 274 2 c150 2 326 4 391 5 88 2 117 0 117 -10z m-880
-111 c1 -61 3 -138 5 -171 2 -33 7 -103 10 -155 18 -293 17 -288 101 -454 42
-83 84 -162 94 -176 11 -17 15 -33 10 -50 -9 -32 -21 -174 -45 -535 -3 -44
-12 -165 -20 -270 -8 -104 -17 -235 -20 -290 -3 -55 -7 -120 -10 -145 -2 -25
-7 -79 -10 -120 -2 -41 -14 -210 -25 -375 -11 -165 -22 -329 -25 -365 -3 -36
-9 -130 -15 -210 -6 -80 -13 -164 -16 -187 l-5 -41 -223 -1 -224 -1 -7 127
c-3 71 -8 142 -10 158 -2 17 -7 84 -10 150 -4 66 -8 122 -10 125 -2 3 -6 61
-10 130 -4 69 -8 139 -10 155 -2 17 -9 100 -15 185 -6 85 -13 178 -15 205 -3
28 -7 86 -10 130 -7 111 -15 212 -20 265 -3 25 -9 106 -15 180 -5 74 -22 273
-36 442 l-28 307 66 143 c37 79 73 161 82 183 17 44 31 239 42 562 l7 203 171
2 c94 2 188 4 209 4 l37 1 0 -111z m-525 27 c-3 -43 -8 -105 -10 -138 -3 -33
-8 -139 -11 -235 -4 -96 -7 -176 -8 -177 -1 -1 -43 5 -93 12 -172 26 -322 22
-523 -15 l-98 -17 -6 181 c-4 100 -9 199 -11 221 -2 22 -7 84 -10 137 l-7 97
164 3 c89 2 266 4 391 6 l228 4 -6 -79z m-881 55 c3 -7 7 -96 11 -198 3 -102
8 -212 11 -245 25 -302 16 -262 100 -429 42 -83 84 -162 94 -176 11 -17 15
-33 10 -50 -9 -32 -21 -174 -45 -535 -3 -44 -12 -165 -20 -270 -8 -104 -17
-235 -20 -290 -3 -55 -7 -120 -10 -145 -2 -25 -7 -79 -10 -120 -30 -446 -46
-688 -51 -750 -18 -257 -31 -411 -35 -415 -4 -3 -409 -8 -455 -6 -8 1 -14 42
-18 119 -4 64 -9 133 -11 152 -2 19 -7 89 -10 155 -4 66 -8 122 -10 125 -2 3
-6 61 -10 130 -4 69 -8 139 -10 155 -2 17 -9 100 -15 185 -6 85 -13 178 -15
205 -3 28 -7 86 -10 130 -7 111 -15 212 -20 265 -3 25 -9 106 -15 180 -5 74
-22 273 -36 442 l-28 307 44 93 c121 263 117 247 129 433 6 94 14 256 17 362
l7 192 66 3 c239 11 361 9 365 -4z m-538 -60 c-12 -140 -16 -211 -22 -378 -4
-96 -7 -176 -8 -177 -1 -1 -43 5 -93 12 -172 26 -322 22 -523 -15 l-97 -17 -7
176 c-4 97 -9 199 -11 226 -2 28 -7 89 -10 137 l-7 87 124 3 c67 2 244 4 391
6 l268 3 -5 -63z m-1395 -49 c-1 -52 -4 -96 -6 -99 -2 -3 -6 -93 -10 -200 -4
-107 -8 -196 -9 -197 -1 -1 -43 5 -93 12 -172 26 -322 22 -523 -14 l-97 -18
-7 156 c-3 86 -9 206 -13 266 -4 61 -7 126 -7 145 l-1 35 290 3 c160 1 313 3
340 5 28 1 70 1 95 1 l44 -1 -3 -94z m519 -1 c1 -57 3 -130 5 -163 2 -33 7
-103 10 -155 18 -293 17 -288 101 -454 42 -83 84 -162 94 -176 11 -17 15 -33
10 -50 -9 -32 -21 -174 -45 -535 -3 -44 -12 -165 -20 -270 -8 -104 -17 -235
-20 -290 -3 -55 -7 -120 -10 -145 -2 -25 -7 -79 -10 -120 -2 -41 -14 -212 -25
-380 -11 -168 -22 -330 -25 -360 -2 -30 -9 -125 -15 -210 -6 -85 -13 -170 -16
-188 l-5 -32 -218 0 -218 0 -7 133 c-4 72 -9 146 -11 162 -2 17 -7 84 -10 150
-4 66 -8 122 -10 125 -2 3 -6 61 -10 130 -4 69 -8 139 -10 155 -2 17 -9 100
-15 185 -6 85 -13 178 -15 205 -3 28 -7 86 -10 130 -7 111 -15 212 -20 265 -3
25 -9 106 -15 180 -5 74 -22 273 -36 442 l-28 307 44 93 c121 263 117 247 129
433 5 94 13 249 17 345 4 96 8 178 10 182 3 4 94 7 204 8 l200 0 0 -102z
m-1855 4 c-3 -42 -8 -104 -10 -137 -3 -33 -8 -139 -11 -235 -4 -96 -7 -176 -8
-177 -1 -1 -43 5 -93 12 -172 26 -322 22 -523 -15 l-98 -17 -6 181 c-4 100 -9
199 -11 221 -2 22 -7 84 -10 137 l-7 98 234 2 c128 2 304 4 391 5 l158 3 -6
-78z m465 -9 c1 -49 3 -115 5 -148 2 -33 7 -103 10 -155 18 -293 17 -288 101
-454 42 -83 84 -162 94 -176 11 -17 15 -33 10 -50 -9 -32 -21 -174 -45 -535
-3 -44 -12 -165 -20 -270 -8 -104 -17 -235 -20 -290 -3 -55 -7 -120 -10 -145
-2 -25 -7 -79 -10 -120 -50 -745 -50 -751 -69 -998 -8 -95 -16 -176 -19 -179
-5 -4 -328 -8 -373 -4 -8 1 -14 35 -18 93 -4 51 -9 118 -11 148 -2 30 -7 102
-10 160 -4 58 -8 112 -10 120 -2 8 -7 69 -10 135 -4 66 -8 133 -10 150 -2 16
-9 98 -15 180 -6 83 -12 175 -15 205 -2 30 -7 91 -10 135 -7 112 -15 212 -20
265 -3 25 -9 106 -15 180 -5 74 -22 273 -36 442 l-28 307 66 143 c37 79 73
161 82 183 17 44 31 239 42 563 l7 202 179 0 178 0 0 -87z m4779 -595 c-5 -24
-13 -77 -19 -118 -6 -41 -12 -84 -14 -95 -3 -11 -5 -26 -5 -33 -1 -9 -12 -12
-33 -10 l-33 3 -36 142 -36 142 31 4 c17 2 59 5 92 5 l61 2 -8 -42z m-4203 10
c-19 -94 -26 -130 -32 -183 -4 -33 -8 -63 -10 -67 -1 -5 -2 -12 -3 -18 0 -5
-16 -10 -34 -10 l-34 0 -33 133 c-18 72 -35 137 -37 144 -5 13 29 19 125 21
60 2 62 1 58 -20z m2811 -10 c-2 -18 -10 -69 -16 -113 -6 -44 -13 -89 -15
-100 -3 -11 -5 -28 -5 -37 -1 -13 -9 -18 -30 -18 -27 0 -31 5 -45 53 -19 65
-56 217 -56 228 0 11 33 16 109 18 l63 1 -5 -32z m1639 13 c21 -6 19 -12 -47
-147 -64 -134 -69 -141 -94 -137 -14 3 -27 9 -30 12 -2 4 2 66 10 137 8 71 15
135 15 142 0 10 14 11 63 6 34 -4 72 -10 83 -13z m-4210 -10 c21 -6 19 -12
-47 -147 -64 -134 -69 -141 -94 -137 -14 3 -27 8 -29 12 -2 3 2 60 10 126 7
66 13 130 14 143 0 22 2 23 63 16 34 -4 72 -10 83 -13z m1143 -23 c-5 -24 -13
-77 -19 -118 -6 -41 -12 -84 -14 -95 -3 -11 -5 -26 -5 -33 -1 -9 -12 -12 -33
-10 l-33 3 -36 142 -36 142 31 4 c17 2 59 5 92 5 l61 2 -8 -42z m1667 23 c21
-6 19 -12 -47 -147 -64 -133 -69 -141 -93 -137 -15 3 -26 10 -26 17 0 6 7 70
15 141 8 72 15 133 15 138 0 7 96 -1 136 -12z m907 -103 c15 -68 30 -133 33
-144 5 -17 0 -24 -25 -32 l-30 -11 -42 77 c-23 42 -53 97 -67 122 -13 25 -28
49 -33 55 -26 27 3 39 127 54 5 0 22 -54 37 -121z m1654 90 c-2 -18 -10 -69
-16 -113 -6 -44 -13 -89 -15 -100 -3 -11 -5 -28 -5 -37 -1 -13 -9 -18 -30 -18
-27 0 -31 5 -45 53 -19 65 -56 217 -56 228 0 11 33 16 109 18 l63 1 -5 -32z
m-5863 -111 c15 -72 30 -137 33 -143 2 -7 -10 -16 -26 -22 -33 -12 -22 -27
-139 188 -13 25 -28 49 -33 55 -26 27 0 38 126 54 6 0 23 -59 39 -132z m1882
114 c21 -6 19 -12 -47 -147 -64 -134 -69 -141 -94 -137 -14 3 -27 9 -30 12 -2
4 2 66 10 137 8 71 15 135 15 142 0 10 14 11 63 6 34 -4 72 -10 83 -13z m914
12 c0 -5 14 -66 30 -137 17 -72 30 -133 30 -136 0 -4 -16 -11 -35 -17 l-35
-11 -41 76 c-23 43 -53 97 -67 122 -13 25 -28 49 -33 55 -21 22 -6 34 54 43
83 13 97 13 97 5z m3306 -12 c21 -6 19 -12 -47 -147 -64 -133 -69 -141 -93
-137 -15 3 -26 10 -26 17 0 6 7 70 15 141 8 72 15 133 15 138 0 7 96 -1 136
-12z m-4713 -113 c15 -68 30 -133 33 -144 5 -17 0 -24 -25 -32 l-30 -11 -42
77 c-23 42 -53 97 -67 122 -13 25 -28 49 -33 55 -26 27 3 39 127 54 5 0 22
-54 37 -121z m4207 115 c0 -5 14 -66 30 -137 17 -72 30 -133 30 -136 0 -4 -16
-11 -35 -17 l-35 -11 -41 76 c-23 43 -53 97 -67 122 -13 25 -28 49 -33 55 -21
22 -6 34 54 43 83 13 97 13 97 5z m-6693 -45 c-2 -18 -10 -69 -16 -113 -6 -44
-13 -89 -15 -100 -3 -11 -5 -28 -5 -37 -1 -13 -9 -18 -30 -18 -27 0 -31 5 -45
53 -19 66 -56 217 -56 228 0 10 38 16 114 18 l58 1 -5 -32z m249 3 c21 -6 19
-12 -47 -147 -64 -134 -69 -141 -94 -137 -14 3 -27 9 -30 13 -3 5 2 68 10 142
8 73 15 137 15 141 0 8 106 -1 146 -12z m-516 2 c0 -5 14 -66 30 -137 17 -72
30 -133 30 -137 0 -4 -13 -12 -30 -17 -32 -12 -22 -26 -138 188 -13 25 -28 49
-33 55 -21 22 -6 34 54 43 85 13 87 13 87 5z m5928 -326 c7 -5 12 -30 12 -65
0 -62 24 -437 39 -622 6 -63 13 -158 16 -210 6 -103 13 -189 20 -260 2 -25 7
-76 10 -115 3 -38 9 -124 14 -190 6 -66 13 -158 16 -205 8 -111 14 -182 20
-250 2 -30 7 -84 10 -120 3 -36 8 -90 10 -120 20 -230 32 -375 31 -377 -1 -1
-164 -3 -361 -5 l-360 -3 -3 50 c-2 28 4 154 12 280 22 316 26 371 31 440 2
33 7 101 10 150 4 50 8 110 10 135 3 25 9 122 15 215 11 192 16 256 30 440 9
125 12 174 25 385 3 52 8 118 10 145 2 28 7 105 11 173 7 122 7 122 33 128 14
3 31 7 36 9 22 6 291 -1 303 -8z m-4210 -10 c7 -5 12 -30 12 -65 0 -62 24
-437 39 -622 6 -63 13 -158 16 -210 6 -103 13 -189 20 -260 2 -25 7 -76 10
-115 3 -38 9 -124 14 -190 6 -66 13 -160 16 -210 4 -49 8 -106 10 -125 2 -19
6 -75 10 -125 4 -49 8 -101 10 -115 2 -14 6 -68 10 -120 4 -52 8 -106 10 -120
2 -14 6 -65 9 -115 4 -49 9 -105 12 -122 l5 -33 -366 0 -365 0 0 68 c0 37 7
159 15 272 8 113 17 248 20 300 3 52 8 115 10 140 2 25 7 88 10 140 3 52 8
115 10 140 3 25 9 122 15 215 11 192 16 256 30 440 9 125 12 174 25 385 3 52
8 118 10 145 2 28 7 105 11 173 7 122 7 122 33 128 14 3 31 7 36 9 22 6 291
-1 303 -8z m2810 0 c7 -5 12 -30 12 -65 0 -62 24 -437 39 -622 6 -63 13 -158
16 -210 6 -103 13 -189 20 -260 2 -25 7 -76 10 -115 3 -38 9 -124 14 -190 6
-66 13 -160 16 -210 4 -49 8 -106 10 -125 2 -19 6 -75 10 -125 4 -49 8 -101
10 -115 2 -14 6 -68 10 -120 4 -52 8 -107 10 -122 2 -15 6 -69 10 -120 3 -51
8 -103 11 -115 l4 -23 -365 0 -365 0 0 63 c0 34 7 154 15 267 8 113 17 248 20
300 3 52 8 115 10 140 2 25 7 88 10 140 3 52 8 115 10 140 3 25 9 122 15 215
11 192 16 256 30 440 9 125 12 174 25 385 3 52 8 118 10 145 2 28 7 105 11
173 7 122 7 122 33 128 14 3 31 7 36 9 22 6 291 -1 303 -8z m-1420 -10 c7 -5
12 -30 12 -65 0 -62 24 -437 39 -622 6 -63 13 -158 16 -210 6 -103 13 -189 20
-260 2 -25 7 -76 10 -115 3 -38 9 -124 14 -190 6 -66 13 -158 16 -205 8 -111
14 -182 20 -250 2 -30 7 -84 10 -120 3 -36 8 -90 10 -120 33 -382 33 -370 10
-371 -11 -1 -174 -3 -362 -5 l-343 -4 0 63 c0 34 7 154 15 267 8 113 17 248
20 300 3 52 8 115 10 140 2 25 7 88 10 140 3 52 8 115 10 140 3 25 9 122 15
215 11 192 16 256 30 440 9 125 12 174 25 385 3 52 8 118 10 145 2 28 7 105
11 173 7 122 7 122 33 128 14 3 31 7 36 9 22 6 291 -1 303 -8z m4220 0 c7 -5
12 -30 12 -65 0 -62 24 -437 39 -622 6 -63 13 -158 16 -210 6 -103 13 -189 20
-260 2 -25 7 -76 10 -115 3 -38 9 -124 14 -190 6 -66 13 -160 16 -210 4 -49 8
-106 10 -125 2 -19 6 -75 10 -125 4 -49 8 -101 10 -115 2 -14 6 -68 10 -120 4
-52 9 -108 11 -125 2 -16 6 -76 10 -133 l7 -102 -362 0 -361 0 0 53 c0 28 7
144 15 257 8 113 17 248 20 300 3 52 8 115 10 140 2 25 7 88 10 140 3 52 8
115 10 140 3 25 9 122 15 215 11 192 16 256 30 440 9 125 12 174 25 385 3 52
8 118 10 145 2 28 7 105 11 173 7 122 7 122 33 128 14 3 31 7 36 9 22 6 291
-1 303 -8z m-6950 -40 c7 -5 12 -30 12 -65 0 -62 24 -437 39 -622 6 -63 13
-158 16 -210 6 -103 13 -189 20 -260 2 -25 7 -76 10 -115 3 -38 9 -124 14
-190 6 -66 13 -160 16 -210 4 -49 8 -106 10 -125 2 -19 6 -75 10 -125 4 -49 8
-101 10 -115 2 -14 6 -68 10 -120 4 -52 9 -108 11 -125 2 -16 6 -73 10 -126
l7 -96 -362 -2 -361 -2 0 48 c0 26 7 140 15 253 8 113 17 248 20 300 3 52 8
115 10 140 2 25 7 88 10 140 3 52 8 115 10 140 3 25 9 122 15 215 11 192 16
256 30 440 9 125 12 174 25 385 3 52 8 118 10 145 2 28 7 105 11 173 7 122 7
122 33 128 14 3 31 7 36 9 22 6 291 -1 303 -8z m7474 -2594 c3 -10 5 -34 4
-53 -1 -29 -5 -35 -24 -36 -13 -1 -481 -4 -1040 -8 -559 -3 -1105 -8 -1212
-11 -107 -3 -550 -7 -985 -10 -434 -3 -938 -7 -1120 -10 -181 -3 -627 -7 -990
-10 -363 -3 -817 -7 -1010 -10 -192 -3 -660 -7 -1040 -10 -379 -3 -736 -8
-792 -11 l-103 -6 0 81 0 81 713 1 c391 0 944 2 1227 4 283 2 1492 6 2685 10
1194 4 2171 8 2172 9 1 0 341 3 756 5 734 3 754 3 759 -16z m-825 -199 c-3 -3
-12 -4 -19 -1 -8 3 -5 6 6 6 11 1 17 -2 13 -5z m136 -1 c-7 -2 -19 -2 -25 0
-7 3 -2 5 12 5 14 0 19 -2 13 -5z m115 0 c-10 -2 -28 -2 -40 0 -13 2 -5 4 17
4 22 1 32 -1 23 -4z m385 0 c-62 -2 -165 -2 -230 0 -65 1 -14 3 112 3 127 0
180 -2 118 -3z m200 0 c-7 -2 -21 -2 -30 0 -10 3 -4 5 12 5 17 0 24 -2 18 -5z
m-1816 -9 c-3 -3 -12 -4 -19 -1 -8 3 -5 6 6 6 11 1 17 -2 13 -5z m180 0 c-3
-3 -12 -4 -19 -1 -8 3 -5 6 6 6 11 1 17 -2 13 -5z m40 0 c-3 -3 -12 -4 -19 -1
-8 3 -5 6 6 6 11 1 17 -2 13 -5z m110 0 c-3 -3 -12 -4 -19 -1 -8 3 -5 6 6 6
11 1 17 -2 13 -5z m150 0 c-3 -3 -12 -4 -19 -1 -8 3 -5 6 6 6 11 1 17 -2 13
-5z m50 0 c-3 -3 -12 -4 -19 -1 -8 3 -5 6 6 6 11 1 17 -2 13 -5z m-1440 -10
c-3 -3 -12 -4 -19 -1 -8 3 -5 6 6 6 11 1 17 -2 13 -5z m100 0 c-3 -3 -12 -4
-19 -1 -8 3 -5 6 6 6 11 1 17 -2 13 -5z m-1004 -11 c-7 -2 -21 -2 -30 0 -10 3
-4 5 12 5 17 0 24 -2 18 -5z m-2196 -19 c-3 -3 -12 -4 -19 -1 -8 3 -5 6 6 6
11 1 17 -2 13 -5z m-2240 -20 c-3 -3 -12 -4 -19 -1 -8 3 -5 6 6 6 11 1 17 -2
13 -5z m120 0 c-3 -3 -12 -4 -19 -1 -8 3 -5 6 6 6 11 1 17 -2 13 -5z m8111
-123 l-3 -91 -1095 -5 c-602 -2 -1642 -7 -2310 -10 -2819 -12 -3492 -15 -4368
-21 l-922 -5 0 70 0 70 53 5 c28 3 437 8 907 11 470 3 1103 7 1405 10 820 7
1666 14 2455 20 388 3 872 7 1075 10 204 3 759 8 1235 11 476 4 866 7 867 8 1
0 159 3 353 5 l351 3 -3 -91z m-7800 -236 c-7 -7 -229 -7 -236 0 -3 3 50 5
118 5 68 0 121 -2 118 -5z m75 -2 c-13 -2 -33 -2 -45 0 -13 2 -3 4 22 4 25 0
35 -2 23 -4z m90 0 c-13 -2 -33 -2 -45 0 -13 2 -3 4 22 4 25 0 35 -2 23 -4z
m220 0 c-34 -2 -93 -2 -130 0 -37 2 -9 3 62 3 72 0 102 -1 68 -3z m114 1 c-3
-3 -12 -4 -19 -1 -8 3 -5 6 6 6 11 1 17 -2 13 -5z m7501 -128 l3 -106 -2093 0
c-1151 0 -3185 -3 -4520 -6 -2062 -6 -2428 -5 -2432 7 -3 8 -7 35 -11 61 l-6
47 463 2 c255 1 517 3 583 4 66 2 381 5 700 9 319 3 713 8 875 11 162 3 511 7
775 10 499 5 1041 12 1715 20 217 3 611 7 875 10 264 3 615 8 780 10 165 2
584 7 930 11 347 4 631 8 633 9 1 1 165 3 365 4 l362 2 3 -105z"/>
</g>
</svg>
