<?xml version="1.0" standalone="no"?>
<!DOCTYPE svg PUBLIC "-//W3C//DTD SVG 20010904//EN"
 "http://www.w3.org/TR/2001/REC-SVG-20010904/DTD/svg10.dtd">
<svg version="1.0" xmlns="http://www.w3.org/2000/svg"
 width="1015.000000pt" height="767.000000pt" viewBox="0 0 1015.000000 767.000000"
 preserveAspectRatio="xMidYMid meet">

<g transform="translate(0.000000,767.000000) scale(0.100000,-0.100000)"
fill="#ECC95F" stroke="none">
<path d="M4900 7419 c-95 -41 -293 -120 -575 -229 -82 -32 -224 -87 -315 -123
-91 -36 -374 -147 -630 -247 -418 -163 -538 -210 -830 -325 -47 -18 -150 -59
-230 -90 -80 -31 -183 -72 -230 -90 -47 -18 -161 -63 -255 -100 -93 -36 -273
-107 -400 -156 -300 -118 -481 -189 -750 -294 -121 -48 -225 -92 -232 -98 -7
-7 -17 -45 -24 -84 -17 -105 -20 -103 170 -103 86 0 318 5 516 10 701 18 795
20 1285 30 272 5 592 12 710 15 118 3 427 10 685 15 259 6 643 15 855 21 272
7 635 7 1240 0 1249 -16 2527 -26 3160 -26 l555 0 2 65 c1 36 -1 73 -3 82 -11
39 -62 60 -1169 473 -77 29 -315 119 -530 200 -375 142 -529 200 -810 305 -71
27 -195 73 -275 103 -80 30 -255 96 -390 146 -135 51 -284 108 -332 127 -49
19 -90 34 -93 34 -3 0 -44 15 -93 34 -77 31 -341 130 -692 261 -63 24 -128 50
-145 58 -58 30 -76 29 -175 -14z m205 -70 c92 -35 554 -210 725 -274 63 -24
309 -116 545 -205 983 -370 1100 -414 1395 -525 63 -23 363 -136 665 -250 515
-194 985 -370 1065 -398 27 -10 36 -19 41 -47 4 -19 5 -38 1 -42 -4 -3 -365
-2 -802 2 -2494 28 -3789 36 -4160 26 -146 -4 -560 -13 -920 -21 -646 -14
-886 -20 -1230 -30 -96 -3 -490 -12 -875 -20 -385 -8 -782 -17 -882 -20 l-183
-6 0 29 c0 15 6 35 13 44 6 9 147 69 312 133 274 107 431 168 665 260 47 18
159 62 250 98 91 35 257 100 370 145 113 44 279 109 370 145 91 35 352 137
580 227 228 89 478 187 555 217 241 94 257 100 760 298 94 37 217 85 275 108
58 22 159 62 225 89 66 26 129 48 140 48 11 0 56 -14 100 -31z"/>
<path d="M4920 7049 c-43 -20 -153 -61 -460 -174 -80 -29 -207 -76 -283 -104
-75 -28 -197 -73 -270 -99 -72 -27 -244 -91 -382 -141 -137 -51 -311 -115
-385 -143 -74 -27 -196 -72 -270 -99 -74 -28 -175 -66 -225 -84 -49 -19 -225
-84 -390 -145 -165 -61 -330 -123 -368 -136 -67 -26 -87 -45 -87 -82 0 -29 20
-33 149 -27 102 5 309 11 966 30 552 16 1232 38 1530 50 311 12 1340 12 1450
0 22 -2 236 -7 475 -10 239 -3 496 -7 570 -10 74 -3 324 -7 555 -10 231 -3
481 -8 556 -11 154 -7 179 -3 179 31 0 33 -28 61 -80 78 -55 19 -289 102 -540
192 -102 37 -234 84 -295 105 -60 21 -200 70 -310 110 -110 39 -283 101 -385
136 -261 92 -509 180 -620 220 -52 18 -178 63 -280 99 -376 133 -477 169 -579
207 -119 43 -157 46 -221 17z m216 -88 c66 -21 202 -69 304 -106 102 -37 235
-84 295 -105 61 -21 315 -111 565 -200 250 -89 505 -179 565 -200 61 -21 193
-69 295 -105 102 -37 248 -88 325 -115 77 -27 205 -72 285 -100 80 -29 173
-61 208 -73 34 -12 62 -25 62 -29 0 -5 -55 -6 -122 -3 -68 2 -289 7 -493 10
-586 8 -1480 24 -1720 30 -528 13 -1716 -10 -2815 -54 -135 -6 -326 -13 -425
-16 -99 -3 -250 -8 -335 -11 -97 -4 -151 -2 -145 4 6 5 69 31 140 57 428 156
529 193 805 295 91 34 230 85 310 114 142 53 292 108 560 208 74 27 182 67
240 88 58 21 179 66 270 100 494 184 675 249 696 250 7 0 65 -18 130 -39z"/>
<path d="M4660 5524 c-47 -2 -389 -8 -760 -14 -371 -5 -754 -12 -850 -15 -96
-3 -330 -7 -520 -10 -190 -3 -433 -7 -540 -10 -107 -3 -375 -7 -595 -10 -498
-7 -717 -14 -731 -26 -15 -12 -6 -648 9 -667 6 -7 21 -11 36 -8 14 3 103 7
196 8 l170 3 13 -370 13 -370 87 -171 86 -171 -12 -224 c-7 -123 -22 -354 -32
-514 -11 -159 -38 -607 -60 -995 -22 -388 -44 -748 -48 -800 l-7 -95 -153 -3
c-147 -2 -153 -3 -161 -25 -13 -35 -13 -194 0 -218 l11 -22 1162 7 c638 3
1262 8 1386 11 298 6 1473 14 3165 20 1861 7 2703 15 2731 25 23 9 24 13 24
124 0 104 -2 116 -19 126 -11 5 -78 10 -150 10 l-130 0 -5 32 c-3 18 -10 112
-16 208 -6 96 -26 380 -45 630 -35 460 -42 557 -70 955 -9 121 -25 328 -36
460 -30 365 -34 325 60 510 l80 160 11 350 c5 193 10 363 10 378 l0 29 203 -3
202 -4 3 337 c2 276 0 337 -11 341 -8 3 -288 8 -623 11 -677 7 -3950 14 -4084
10z m4648 -79 c9 -3 12 -68 12 -281 l0 -276 -307 6 c-170 3 -634 8 -1033 11
-399 3 -934 7 -1190 10 -1224 13 -1804 15 -2245 5 -796 -17 -2467 -55 -2805
-64 -234 -7 -847 -20 -945 -21 l-70 0 -3 278 -2 277 137 1 c76 0 161 2 188 4
28 1 259 5 515 9 256 3 562 8 680 11 118 3 670 12 1225 20 556 9 1051 17 1100
19 132 4 4728 -5 4743 -9z m-4587 -785 c-2 -107 -6 -256 -10 -330 l-6 -135
-387 -3 -388 -2 -4 22 c-6 31 -30 618 -25 622 5 4 674 24 764 22 l60 -1 -4
-195z m529 168 c0 -18 7 -182 15 -364 l15 -331 73 -184 c41 -101 76 -197 80
-214 3 -16 -3 -138 -13 -270 -11 -132 -24 -312 -29 -400 -46 -699 -63 -955
-76 -1120 -34 -426 -55 -818 -45 -830 5 -6 7 -15 3 -18 -3 -4 -111 -7 -240 -7
l-233 0 0 34 c0 43 -66 1004 -80 1156 -6 63 -28 363 -50 665 -21 303 -45 622
-51 710 l-12 160 81 161 82 161 10 329 c5 181 10 344 10 362 l0 32 230 0 230
0 0 -32z m734 25 l158 -6 -6 -261 c-4 -144 -9 -291 -12 -328 -5 -59 -8 -66
-29 -70 -13 -3 -185 -6 -383 -7 l-361 -2 -5 43 c-8 66 -33 622 -29 631 5 9
451 9 667 0z m661 -15 c2 -7 11 -177 19 -377 l16 -364 70 -175 c39 -96 73
-198 76 -226 5 -48 -34 -695 -76 -1256 -10 -140 -28 -401 -40 -580 -36 -568
-49 -741 -55 -750 -10 -16 -400 -13 -412 2 -18 23 -32 110 -38 243 -6 122 -19
299 -79 1115 -14 184 -37 493 -51 685 -14 193 -30 415 -37 495 l-11 145 67
140 c37 77 73 146 81 155 15 17 21 114 31 508 l6 252 214 0 c163 0 216 -3 219
-12z m892 -3 c4 -3 -14 -675 -18 -679 -2 -2 -176 -7 -386 -10 -290 -5 -383 -4
-389 5 -6 10 -32 518 -34 657 l0 42 413 -6 c226 -4 413 -8 414 -9z m467 7 c3
-4 12 -178 21 -386 l17 -378 70 -176 c39 -98 75 -194 79 -215 6 -23 4 -107 -6
-225 -8 -103 -26 -360 -40 -572 -14 -212 -41 -612 -60 -890 -20 -278 -41 -590
-48 -695 l-12 -190 -202 -3 -202 -2 -5 32 c-3 18 -12 134 -21 258 -9 124 -23
313 -30 420 -8 107 -24 328 -35 490 -11 162 -32 437 -45 610 -14 173 -27 349
-31 390 -3 41 -11 156 -19 255 -16 211 -18 197 84 400 l69 136 6 292 c4 160 9
327 12 369 l6 77 122 4 c66 1 153 4 193 5 39 1 74 -2 77 -6z m896 -20 c3 -4 1
-160 -5 -346 l-10 -340 -25 -6 c-14 -4 -188 -8 -388 -9 -293 -2 -363 0 -366
11 -3 7 -9 128 -15 268 -7 140 -14 296 -17 345 l-6 91 413 -4 c228 -2 416 -7
419 -10z m-5066 -44 c3 -29 10 -183 17 -341 l11 -289 73 -182 c40 -100 76
-200 79 -223 4 -22 3 -103 -3 -179 -27 -344 -53 -724 -81 -1159 -17 -258 -37
-555 -45 -660 -25 -340 -36 -498 -39 -580 l-2 -80 -225 -3 -224 -2 -38 542
c-21 299 -52 714 -68 923 -16 209 -43 569 -59 800 l-31 420 79 160 80 160 6
100 c3 55 8 219 12 365 3 146 8 268 11 273 2 4 103 7 223 7 l219 0 5 -52z
m-1512 25 l97 6 5 -42 c3 -23 10 -179 17 -347 l11 -305 73 -185 c40 -102 76
-205 80 -230 6 -45 -4 -231 -50 -855 -14 -187 -41 -585 -60 -885 -34 -535 -40
-625 -50 -725 -3 -27 -6 -76 -7 -107 l-1 -58 -183 0 c-101 0 -184 4 -184 9 0
5 -9 109 -20 232 -11 123 -33 402 -50 619 -17 217 -37 467 -45 555 -26 277
-87 1058 -88 1115 0 57 10 89 100 320 l49 125 3 160 c2 88 6 259 10 380 l6
220 60 5 c33 3 76 1 95 -4 19 -5 79 -6 132 -3z m992 -195 c-2 -117 -7 -268
-10 -335 l-6 -123 -177 0 c-97 -1 -271 -3 -388 -6 l-211 -6 -6 53 c-3 30 -8
131 -11 224 -3 94 -8 221 -11 282 l-7 113 169 3 c93 1 280 4 416 5 l247 2 -5
-212z m-1348 -105 c-4 -164 -9 -326 -12 -360 l-6 -63 -388 0 -388 0 -6 93
c-14 228 -25 592 -18 599 4 4 165 11 357 16 193 5 376 10 409 10 l59 2 -7
-297z m2703 -420 c-11 -26 -46 -97 -77 -156 l-57 -108 -236 -2 -235 -2 -61
150 -60 150 136 5 c75 3 243 6 373 8 l237 3 -20 -48z m1428 23 c2 -2 -29 -69
-68 -150 l-72 -146 -192 0 c-106 0 -212 -3 -237 -6 -43 -6 -44 -5 -55 27 -6
19 -32 84 -57 146 -25 61 -46 117 -46 122 0 15 712 22 727 7z m-2823 -24 c3
-5 -27 -75 -67 -157 l-73 -148 -240 -2 -240 -2 -53 131 c-29 72 -55 141 -58
153 l-5 23 328 3 c181 1 346 3 366 5 20 1 39 -2 42 -6z m4220 -1 c3 -5 -27
-75 -67 -157 l-72 -147 -239 -1 -239 -1 -58 145 c-32 80 -59 148 -59 152 0 4
127 9 283 10 155 2 319 4 364 6 45 1 84 -2 87 -7z m1366 -31 c0 -5 -32 -75
-72 -154 l-72 -144 -185 0 c-103 0 -209 -2 -236 -6 l-50 -7 -61 153 c-34 84
-60 156 -57 161 7 11 733 9 733 -3z m-6930 -39 c0 -9 -47 -137 -95 -261 l-17
-45 -240 0 -239 0 -74 145 c-41 80 -74 148 -75 152 0 4 143 9 318 11 174 1
341 3 370 5 28 1 52 -2 52 -7z m2558 -257 c42 -6 53 -11 57 -28 2 -12 13 -156
25 -321 11 -165 27 -379 35 -475 17 -208 17 -209 55 -750 17 -233 40 -528 51
-655 17 -206 26 -421 17 -430 -2 -1 -183 -6 -404 -10 l-401 -7 -6 46 c-4 26 0
140 8 254 8 114 24 342 35 507 11 165 33 491 50 725 17 234 40 585 53 780 l22
355 50 6 c71 8 290 10 353 3z m1470 -32 c6 -9 12 -36 12 -61 0 -45 16 -281 46
-671 37 -501 65 -874 89 -1200 28 -380 49 -612 60 -646 l7 -22 -299 -6 c-164
-3 -346 -11 -405 -17 -59 -6 -112 -8 -118 -4 -15 9 -12 147 10 471 11 159 22
327 25 374 15 231 46 667 59 850 25 324 56 813 56 866 0 27 4 55 9 63 21 33
423 36 449 3z m-2830 -24 c10 -13 46 -462 102 -1258 17 -234 37 -504 45 -600
23 -267 56 -732 53 -735 -2 -1 -186 -6 -409 -10 -401 -7 -406 -6 -411 13 -6
22 -7 14 52 837 22 308 49 706 60 885 12 179 30 444 40 590 11 146 20 268 20
272 0 12 49 15 246 17 143 1 194 -2 202 -11z m4220 4 c17 -11 14 15 77 -887
14 -198 30 -414 35 -480 17 -203 42 -529 65 -860 8 -121 18 -248 21 -282 l6
-63 -411 0 -411 0 0 53 c0 28 11 196 24 372 14 176 32 428 41 560 32 493 55
821 82 1197 l27 387 26 4 c49 8 405 7 418 -1z m1370 -27 c5 -5 17 -127 26
-270 9 -143 28 -402 42 -575 13 -173 40 -531 59 -795 19 -264 42 -576 51 -692
10 -117 16 -215 13 -217 -10 -9 -808 -16 -813 -7 -4 5 3 133 14 283 10 150 31
449 45 663 14 215 36 539 50 720 13 182 32 457 41 612 l18 282 35 4 c73 8 410
2 419 -8z m-6927 -41 c3 -2 9 -54 13 -116 4 -62 18 -237 31 -388 14 -151 38
-450 55 -665 17 -214 39 -484 50 -600 32 -354 64 -784 60 -788 -10 -9 -809
-17 -814 -9 -5 8 18 426 44 802 10 149 69 1137 91 1522 7 119 16 223 20 230
11 17 149 26 314 20 72 -2 133 -6 136 -8z m7429 -2649 c0 -44 -4 -67 -12 -70
-7 -2 -924 -6 -2038 -10 -1114 -3 -2097 -8 -2185 -10 -88 -2 -565 -7 -1060
-10 -495 -3 -992 -7 -1105 -10 -113 -3 -600 -8 -1082 -11 l-878 -6 0 69 0 70
598 1 c328 1 838 4 1132 6 294 3 1032 8 1640 11 608 3 1258 7 1445 10 187 3
999 8 1805 11 806 4 1467 8 1469 10 2 2 64 4 138 4 l133 0 0 -65z"/>
<path d="M8589 816 c-2 -2 -600 -6 -1329 -10 -729 -3 -1399 -8 -1490 -11 -91
-3 -642 -7 -1225 -10 -583 -3 -1325 -7 -1650 -10 -324 -3 -952 -8 -1394 -10
-443 -3 -807 -8 -810 -11 -4 -3 -4 -65 -3 -137 3 -105 7 -136 20 -151 19 -21
43 -21 1587 9 413 8 892 17 1065 20 1589 29 1463 29 4192 19 1748 -7 1819 -7
1838 11 17 16 20 30 20 104 -1 102 -13 170 -31 182 -12 8 -782 12 -790 5z
m751 -124 c0 -33 3 -74 6 -91 l7 -31 -1444 7 c-2360 13 -3596 9 -4274 -12 -82
-3 -307 -7 -500 -10 -192 -3 -471 -8 -620 -10 -148 -3 -533 -10 -855 -15 -322
-5 -657 -11 -744 -12 l-159 -3 2 85 c1 46 4 87 6 91 2 3 568 9 1257 13 1232 6
2037 11 3303 21 352 3 1200 8 1885 11 685 4 1246 8 1248 9 1 1 200 3 442 4
l440 2 0 -59z"/>
<path d="M5257 484 c-1 -1 -339 -5 -752 -9 -412 -4 -763 -8 -780 -10 -16 -1
-316 -5 -665 -9 -349 -3 -702 -8 -785 -11 -82 -3 -397 -7 -700 -10 -302 -3
-655 -8 -783 -11 l-233 -6 -11 -27 c-15 -37 -10 -242 6 -259 10 -10 122 -13
552 -12 296 0 564 2 594 5 30 2 476 7 990 10 514 3 1147 7 1405 10 711 7 1834
14 3200 20 677 3 1460 7 1740 10 468 5 511 7 523 23 19 25 13 246 -8 266 -13
13 -273 16 -2153 18 -1176 2 -2139 2 -2140 2z m2029 -64 c1981 -1 2216 -2
2221 -16 5 -13 -13 -153 -20 -161 -1 -1 -767 -4 -1702 -7 -1857 -7 -2315 -9
-4765 -31 -905 -8 -1816 -15 -2025 -17 l-379 -3 -8 40 c-5 22 -8 60 -6 85 l3
45 445 6 c245 4 607 9 805 13 198 3 551 8 785 11 234 3 531 7 660 10 129 3
507 8 840 11 333 4 673 10 755 14 83 4 156 5 163 4 7 -2 1010 -4 2228 -4z"/>
</g>
</svg>
